<?xml version="1.0" encoding="UTF-8" standalone="no"?>
<svg
   xmlns:dc="http://purl.org/dc/elements/1.1/"
   xmlns:cc="http://creativecommons.org/ns#"
   xmlns:rdf="http://www.w3.org/1999/02/22-rdf-syntax-ns#"
   xmlns:svg="http://www.w3.org/2000/svg"
   xmlns="http://www.w3.org/2000/svg"
   xmlns:sodipodi="http://sodipodi.sourceforge.net/DTD/sodipodi-0.dtd"
   xmlns:inkscape="http://www.inkscape.org/namespaces/inkscape"
   inkscape:version="1.0 (6e3e5246a0, 2020-05-07)"
   sodipodi:docname="logo-512x512.svg"
   viewBox="0 0 512 512"
   height="512"
   width="512"
   version="1.1"
   id="svg">
  <g
     id="g858"
     transform="matrix(1.0714285,0,0,1.0714285,-30.519072,-39.223508)">
    <g
       transform="matrix(0.05837836,0,0,0.05838896,31.999515,34.198751)"
       id="g849">
      <g
         transform="translate(1406.9145,-3.0078254e-5)"
         id="g839">
        <path
           id="path845"
           d="m 2058.0661,60.788582 c -14.96,1.496 -51.68,8.568001 -81.6,15.674001 -29.92,7.123 -87.89,15.13 -128.826,17.799 -51.816,3.383001 -85.918,9.451997 -112.2,19.940997 -20.774,8.313 -58.395,17.119 -83.589,19.567 -25.432,2.482 -55.692,10.26801 -68,17.51001 -12.206,7.174 -40.681,15.997 -63.274,19.618 -22.593,3.621 -51.663,12.75 -64.6,20.281 -12.937,7.548 -35.751,15.827 -50.711,18.428 -14.96,2.601 -36.38,10.183 -47.6,16.847 -11.22,6.664 -34.17,16.15 -51,21.063 -16.83,4.913 -36.499,14.348 -43.69,20.978 -7.208,6.613 -23.171,13.906 -35.479,16.218 -12.325,2.312 -29.104,10.013 -37.281,17.119 -8.194,7.089 -26.163,15.946 -39.933,19.652 -13.787,3.706 -30.498,12.767 -37.162,20.111 -6.647,7.361 -23.205,17.017 -36.771,21.471 -13.583,4.454 -28.679,13.753 -33.575,20.655 -4.879,6.919 -12.869,12.563 -17.765,12.563 -4.879,0 -20.162,8.976 -33.96602,19.941 -13.787,10.965 -34.10201,21.91301 -45.13501,24.34401 -11.016,2.414 -20.043,8.432 -20.043,13.379 0,4.947 -10.71,15.317 -23.8,23.035 -13.09,7.718 -23.8,17 -23.8,20.621 0,3.604 -6.052,8.483 -13.447,10.829 -7.395,2.346 -26.044,14.79 -41.446,27.659 -15.402,12.869 -32.096,23.392 -37.094,23.392 -4.998,0 -11.033,6.12 -13.413,13.6 -2.38,7.48 -7.208,13.6 -10.744,13.6 -6.97,0 -60.01,49.283 -137.49601,127.789 -92.225,93.41501 -118.014,121.48201 -122.621,133.48401 -2.533,6.613 -10.71,13.617 -18.173,15.572 -7.463,1.938 -13.566,7.48 -13.566,12.308 0,4.811 -10.71,21.573 -23.8,37.247 -13.09,15.674 -23.8,31.586 -23.8,35.36 0,3.791 -7.65,12.903 -17,20.247 -9.35,7.361 -17,17.527 -17,22.593 0,5.066 -7.004,14.78999 -15.55501,21.60699 -8.568,6.817 -19.89,23.103 -25.16,36.193 -5.287,13.09 -14.875,27.625 -21.301,32.3 -6.443,4.692 -13.668,17.476 -16.082,28.441 -2.414,10.948 -9.18,23.919 -15.062,28.798 -5.882,4.879 -16.32,21.981 -23.188,38.012 -6.868,16.031 -17.017,30.872 -22.542,32.997 -5.678,2.176 -12.053,17.136 -14.637,34.391 -2.516,16.779 -10.489,36.023 -17.731,42.772 -7.225,6.732 -17.476,28.662 -22.763,48.722 -5.287,20.077 -14.331,39.933 -20.06,44.132 -5.746,4.199 -13.651,25.636 -17.561,47.634 -3.927,21.998 -13.073,48.28 -20.332,58.395 -7.497,10.472 -16.184,39.559 -20.145,67.422 -3.825,26.962 -12.563,58.446 -19.448004,69.989 -8.483001,14.263 -14.841001,46.172 -19.822001,99.365 -4.046,43.112 -12.886001,93.602 -19.669001,112.2 -18.241,49.997 -18.649,440.0621 -0.51,484.3131 6.545,15.963 15.283001,66.181 19.516001,112.2 5.44,58.973 11.441,89.539 20.536001,104.635 7.072004,11.713 15.878004,45.169 19.567004,74.341 4.675,36.805 10.88,57.46 20.298,67.473 7.446,7.939 15.521,28.815 17.935,46.376 2.397,17.578 10.047,38.505 17,46.512 12.461,14.365 26.197,53.312 26.282,74.494 0.017,5.984 7.548,19.006 16.728,28.917 9.18,9.911 18.717,28.798 21.199,41.973 2.465,13.175 10.013,26.911 16.745,30.532 6.749,3.604 14.314,15.895 16.813,27.319 2.516,11.407 11.747,28.509 20.536,37.995 8.789,9.469 17.884,25.942 20.213,36.584 2.346,10.659 11.713,24.259 20.825,30.226 9.112,5.967 16.575,15.402 16.575,20.961 0,5.559 9.18,19.703 20.4,31.45 11.22001,11.747 20.40001,25.789 20.40001,31.212 0,5.423 8.415,18.377 18.7,28.764 10.285,10.404 27.88,31.79 39.1,47.515 21.709,30.43 53.159,67.405 81.379,95.693 9.469,9.486 17.221,20.621 17.221,24.718 0,4.097 7.412,12.325 16.49,18.258 9.061,5.95 18.445,17 20.859,24.582 2.397,7.582 8.823,13.787 14.263,13.787 5.423,0 13.362,7.65 17.629,17 4.25,9.35 10.302,17 13.413,17 3.128,0 31.807,26.01 63.73301,57.8 31.943,31.79 61.098,57.8 64.787,57.8 3.689,0 10.047,7.31 14.127,16.252 4.063,8.942 13.94,19.635 21.947,23.749 8.007,4.131 32.912,22.916 55.352,41.752 22.44,18.836 46.019,36.006 52.377,38.165 6.375,2.142 16.388,11.237 22.27,20.196 5.865,8.959 15.011,16.286 20.332,16.286 5.304,0 13.651,5.661 18.53,12.58 4.896,6.936 18.07101,17.357 29.29101,23.171 11.22002,5.814 29.58002,18.496 40.80002,28.203 11.22,9.69 24.055,17.629 28.509,17.646 4.471,0 12.121,5.355 17,11.9 4.896,6.545 20.366,17.731 34.391,24.871 14.025,7.14 25.5,15.181 25.5,17.867 0,2.703 8.874,8.585 19.72,13.09 10.863,4.488 26.69,15.572 35.19,24.616 8.5,9.044 18.785,16.456 22.848,16.456 4.063,0 15.623,7.65 25.721,17 10.081,9.35 21.42,17 25.194,17 3.774,0 17.068,8.976 29.563,19.941 12.478,10.965 30.668,21.93 40.392,24.378 9.724,2.431 24.633,11.815 33.116,20.859 8.483,9.027 21.029,16.422 27.88,16.422 6.851,0 18.989,7.497 26.962,16.66 7.956,9.163 22.865,18.513 33.099,20.757 10.234,2.244 25.653,11.577 34.238,20.74 8.602,9.146 19.244,16.643 23.647,16.643 4.386,0 20.655,9.18 36.159,20.4 15.487,11.22 31.382,20.4 35.326,20.4 3.944,0 14.416,7.259 23.29,16.116 8.857,8.874 23.511,17.986 32.555,20.247 9.044,2.278 28.084,13.379 42.313,24.684 14.212,11.305 29.852,20.553 34.731,20.553 4.896,0 12.886,5.644 17.765,12.563 4.896,6.902 20.349,16.32 34.374,20.91 14.008,4.607 29.308,13.787 34,20.4 4.675,6.63 19.618,15.691 33.201,20.145 13.566,4.454 29.852,13.821 36.193,20.825 6.341,7.004 19.516,14.739 29.274,17.187 9.758,2.448 26.282,11.645 36.737,20.434 10.438,8.789 28.611,18.105 40.375,20.689 12.206,2.669 22.763,9.945 24.582,16.932 1.989,7.582 12.308,13.94 27.149,16.728 13.158,2.465 31.093,11.662 39.865,20.434 8.772,8.772 25.381,18.02 36.924,20.553 11.543,2.533 27.744,11.611 36.006,20.162 8.262,8.551 24.191,17.697 35.411,20.315 11.22,2.635 26.061,9.894 32.98,16.15 12.427,11.22 39.865,26.707 99.62,56.185 16.83,8.313 33.66,18.853 37.4,23.426 3.74,4.59 14.977,10.234 24.973,12.546 9.996,2.312 26.826,11.39 37.4,20.179 10.574,8.789 27.404,17.969 37.4,20.4 9.996,2.431 27.268,12.087 38.386,21.437 11.118,9.35 24.361,17.085 29.427,17.187 5.066,0.102 21.233,9.282 35.921,20.4 14.688,11.118 31.756,20.213 37.927,20.213 6.154,0 18.105,7.361 26.554,16.354 8.449,8.993 25.891,18.326 38.743,20.74 12.852,2.414 27.132,10.421 31.722,17.816 4.59,7.395 19.788,16.524 33.779,20.315 13.991,3.774 32.98,14.399 42.194,23.613 9.214,9.214 22.593,16.762 29.733,16.762 7.14,0 24.514,9.18 38.641,20.4 14.127,11.22 29.393,20.4 33.949,20.4 4.539,0 16.218,7.378 25.959,16.388 9.724,9.027 27.37,18.53 39.219,21.131 11.832,2.601 22.882,9.911 24.531,16.252 1.751,6.647 15.861,15.317 33.371,20.485 16.694,4.93 33.303,14.467 36.907,21.199 3.604,6.732 15.538,14.212 26.537,16.626 10.999,2.414 23.987,9.197 28.866,15.079 4.879,5.882 21.981,16.32 38.012,23.188 16.031,6.868 30.855,16.9831 32.963,22.4571 2.108,5.474 12.597,11.9 23.341,14.246 10.727,2.363 27.6251,10.676 37.5701,18.496 18.649,14.671 53.652,34.884 102.544,59.228 15.504,7.701 29.818,18.326 31.841,23.579 2.023,5.253 13.158,11.645 24.752,14.195 11.594,2.55 30.855,13.549 42.772,24.446 11.934,10.897 25.585,19.805 30.328,19.805 4.743,0 12.444,6.12 17.119,13.6 4.675,7.48 11.662,13.6 15.538,13.6 7.361,0 70.839,45.101 96.033,68.238 8.007,7.344 17.272,13.362 20.587,13.362 3.315,0 14.042,8.415 23.834,18.7 9.775,10.285 29.036,27.88 42.806,39.1 13.753,11.22 31.671,26.928 39.814,34.884 8.143,7.973 31.314,28.934 51.493,46.58 20.179,17.646 59.279,58.565 86.904,90.916 27.625,32.351 57.783,66.504 67.014,75.888 9.231,9.401 16.796,20.519 16.796,24.718 0,4.216 7.65,12.665 17,18.785 9.35,6.137 17,15.215 17,20.179 0,4.964 9.18,18.632 20.4,30.379 11.22,11.747 20.4,26.112 20.4,31.926 0,5.831 7.191,17.34 15.997,25.568 8.789,8.245 19.652,26.18 24.123,39.882 4.471,13.685 12.512,26.571 17.833,28.611 5.338,2.057 13.277,17.884 17.629,35.19 4.352,17.289 11.798,32.946 16.541,34.765 9.112,3.485 19.482,26.571 26.741,59.585 2.414,10.931 10.064,27.081 17,35.904 6.936,8.823 14.773,28.832 17.408,44.455 2.635,15.623 11.798,39.236 20.366,52.496 8.551,13.243 17.697,40.562 20.315,60.69 2.635,20.128 10.642,46.563 17.833,58.735 10.132,17.187 14.603,44.71 20.009,123.199 3.808,55.59 9.333,120.411 12.24,144.058 3.672,29.665 2.499,53.839 -3.757,77.979 -4.998,19.244 -9.112,53.448 -9.146,76.007 -0.119,56.95 -6.341,89.046 -20.196,103.904 -6.511,6.987 -15.249,32.147 -19.431,55.913 -4.182,23.766 -13.43,49.606 -20.519,57.409 -7.106,7.803 -14.977,25.84 -17.527,40.069 -2.601,14.62 -11.849,32.164 -21.233,40.324 -9.146,7.956 -16.626,21.131 -16.626,29.291 0,8.16 -9.18,26.384 -20.4,40.511 -11.22,14.127 -20.4,30.192 -20.4,35.734 0,5.542 -9.18,20.519 -20.4,33.303 -11.22,12.784 -20.4,27.693 -20.4,33.15 0,5.44 -6.341,13.753 -14.093,18.462 -7.752,4.692 -18.309,18.496 -23.443,30.651 -5.151,12.155 -13.736,22.1 -19.074,22.1 -5.321,0 -11.475,8.925 -13.651,19.839 -3.723,18.615 -17.833,37.808 -59.5,80.971 -9.673,9.996 -21.25,25.075 -25.755,33.49 -4.488,8.415 -11.883,15.317 -16.422,15.351 -4.539,0.017 -13.481,9.197 -19.839,20.4 -6.375,11.186 -15.827,20.349 -21.012,20.349 -5.185,0 -12.92,7.65 -17.17,17 -4.267,9.35 -10.761,17 -14.45,17 -8.33,0 -197.71,189.397 -213.554,213.554 -6.358,9.707 -15.861,17.646 -21.131,17.646 -5.27,0 -11.526,6.12 -13.906,13.6 -2.38,7.497 -10.948,17.153 -19.023,21.488 -8.092,4.335 -20.349,15.028 -27.234,23.8 -6.902,8.755 -15.725,15.912 -19.635,15.912 -3.91,0 -17.561,9.18 -30.345,20.4 -12.784,11.22 -29.274,20.4 -36.652,20.4 -7.361,0 -19.924,7.497 -27.897,16.66 -7.956,9.163 -24.004,18.751 -35.649,21.301 -11.645,2.533 -27.71,11.662 -35.734,20.281 -8.007,8.619 -26.367,17.867 -40.8,20.553 -14.416,2.686 -30.226,10.523 -35.105,17.425 -4.879,6.885 -21.233,14.518 -36.3291,16.932 -15.096,2.414 -35.734,11.339 -45.832,19.856 -10.098,8.5 -30.481,17.612 -45.271,20.264 -14.79,2.652 -33.422,10.744 -41.395,18.003 -9.095,8.279 -32.538,15.878 -62.815,20.366 -49.147,7.293 -57.018,14.467 -23.12,21.08 42.398,8.262 373.7111,-5.763 390.3881,-16.524 22.593,-14.586 41.582,-19.057 110.194,-25.993 38.216,-3.859 64.498,-10.013 72.097,-16.881 6.579,-5.95 31.841,-14.977 56.168,-20.06 24.31,-5.1 51.544,-14.008 60.503,-19.822 8.959,-5.797 31.586,-14.212 50.286,-18.666 18.7,-4.454 37.06,-11.815 40.8,-16.354 3.74,-4.539 22.865,-13.566 42.5,-20.077 19.635,-6.511 35.7,-14.246 35.7,-17.187 0,-2.941 14.535,-11.883 32.3,-19.89 30.991,-13.957 52.683,-27.676 103.088,-65.195 12.767,-9.503 26.741,-17.272 31.076,-17.272 4.335,0 14.535,-7.65 22.661,-17 8.126,-9.35 19.414,-17 25.075,-17 5.661,0 16.745,-7.429 24.633,-16.507 7.905,-9.078 23.188,-20.162 33.966,-24.616 10.778,-4.471 19.601,-12.138 19.601,-17.051 0,-4.896 5.746,-10.727 12.75,-12.954 11.305,-3.587 35.088,-22.916 79.288,-64.43 7.616,-7.157 22.117,-16.762 32.215,-21.369 10.098,-4.607 23.052,-15.555 28.815,-24.327 5.746,-8.772 14.62,-15.946 19.703,-15.946 5.1,0 14.127,-7.412 20.06,-16.49 5.95,-9.061 16.677,-18.343 23.851,-20.621 7.174,-2.278 14.62,-10.115 16.524,-17.425 1.921,-7.31 11.169,-16.218 20.553,-19.788 9.401,-3.57 19.074,-12.784 21.522,-20.485 2.431,-7.701 7.174,-13.991 10.523,-13.991 3.349,0 24.684,-18.36 47.396,-40.8 22.712,-22.44 44.047,-40.8 47.396,-40.8 3.349,0 7.888,-5.661 10.081,-12.563 2.193,-6.919 11.577,-16.031 20.859,-20.264 9.265,-4.216 16.864,-11.39 16.864,-15.929 0,-4.539 16.83,-24.31 37.4,-43.911 20.57,-19.601 37.4,-37.859 37.4,-40.579 0,-2.703 15.3,-19.822 34,-38.029 18.7,-18.224 34,-34.799 34,-36.856 0,-2.057 19.125,-26.282 42.5,-53.839 23.375,-27.557 51.68,-62.781 62.9,-78.285 11.22,-15.504 26.52,-34.799 34,-42.857 7.48,-8.075 19.431,-26.163 26.571,-40.188 7.14,-14.025 15.47,-25.5 18.53,-25.5 3.043,0 10.676,-9.945 16.932,-22.1 6.273,-12.155 17.051,-26.095 23.987,-30.991 6.919,-4.879 12.58,-12.852 12.58,-17.697 0,-4.862 7.361,-16.762 16.354,-26.486 9.01,-9.707 19.822,-28.135 24.055,-40.97 4.233,-12.818 13.413,-28.475 20.366,-34.782 6.97,-6.307 14.637,-21.879 17.017,-34.629 2.397,-12.733 10.013,-27.115 16.932,-31.96 6.919,-4.845 16.524,-21.947 21.318,-37.995 4.811,-16.065 14.059,-32.028 20.536,-35.496 6.885,-3.689 13.736,-18.411 16.439,-35.309 2.55,-15.946 11.781,-39.695 20.502,-52.785 8.738,-13.09 17.986,-38.369 20.57,-56.185 2.567,-17.799 10.319,-39.542 17.204,-48.297 7.939,-10.098 16.269,-41.072 22.831,-84.864 5.763,-38.573 15.623,-77.095 22.389,-87.414 17.306,-26.435 17.986,-340.527 0.816,-372.64 -12.614,-23.579 -16.949,-48.008 -25.67,-145.146 -4.454,-49.453 -9.724,-74.12 -17.765,-82.994 -6.97,-7.701 -14.45,-35.054 -19.159,-70.074 -4.879,-36.21 -12.121,-62.271 -19.635,-70.533 -6.528,-7.208 -15.385,-31.229 -19.669,-53.38 -4.267,-22.151 -13.702,-46.852 -20.961,-54.91 -7.259,-8.041 -14.943,-27.931 -17.085,-44.2 -2.142,-16.252 -10.676,-38.743 -18.955,-49.963 -8.279,-11.22 -17.136,-29.24 -19.703,-40.035 -2.55,-10.795 -12.138,-29.444 -21.284,-41.429 -9.163,-12.002 -16.643,-27.863 -16.643,-35.275 0,-7.395 -9.095,-25.466 -20.213,-40.154 -11.118,-14.688 -20.298,-31.5861 -20.4,-37.5531 -0.102,-5.967 -6.732,-16.677 -14.722,-23.8 -8.007,-7.123 -18.836,-22.134 -24.106,-33.354 -10.438,-22.304 -36.159,-61.353 -52.36,-79.543 -5.644,-6.341 -15.47,-21.641 -21.811,-34 -6.341,-12.342 -18.751,-29.189 -27.557,-37.434 -8.823,-8.228 -16.031,-19.499 -16.031,-25.041 0,-5.542 -6.12,-12.002 -13.6,-14.382 -7.48,-2.38 -13.6,-7.123 -13.6,-10.54 0,-3.417 -8.415,-15.708 -18.7,-27.285 -10.285,-11.594 -32.47,-36.635 -49.3,-55.641 -58.497,-66.079 -221.204,-222.734 -231.353,-222.734 -3.145,0 -7.667,-6.12 -10.047,-13.583 -2.363,-7.48 -11.968,-15.504 -21.352,-17.867 -9.367,-2.346 -19.805,-11.543 -23.171,-20.417 -3.383,-8.874 -11.016,-16.133 -16.966,-16.133 -9.996,0 -29.631,-14.042 -87.975,-62.9 -12.291,-10.285 -25.585,-18.7 -29.546,-18.7 -3.978,0 -11.22,-5.355 -16.099,-11.9 -4.896,-6.545 -19.601,-17.323 -32.691,-23.953 -26.656,-13.498 -63.138,-38.029 -87.771,-59.007 -9.01,-7.667 -20.842,-13.94 -26.316,-13.94 -5.457,0 -20.366,-9.18 -33.15,-20.4 -12.784,-11.22 -27.37,-20.4 -32.419,-20.4 -5.049,0 -14.195,-7.65 -20.315,-17 -6.137,-9.35 -16.779,-17 -23.647,-17 -6.885,0 -24.055,-9.18 -38.182,-20.4 -14.127,-11.22 -29.427,-20.4 -34,-20.4 -4.573,0 -19.873,-9.18 -34,-20.4 -14.127,-11.22 -30.821,-20.4 -37.111,-20.4 -6.29,0 -17.816,-7.344 -25.619,-16.32 -7.82,-8.976 -23.273,-18.309 -34.374,-20.757 -11.101,-2.431 -27.234,-11.917 -35.819,-21.08 -8.602,-9.146 -20.808,-16.643 -27.132,-16.643 -6.307,0 -23.018,-9.18 -37.145,-20.4 -14.127,-11.22 -29.716,-20.4 -34.663,-20.4 -4.947,0 -15.997,-7.276 -24.565,-16.15 -8.568,-8.891 -24.242,-18.19 -34.85,-20.672 -10.608,-2.499 -26.248,-12.053 -34.782,-21.25 -8.517,-9.197 -21.352,-16.728 -28.509,-16.728 -7.14,0 -23.052,-9.18 -35.343,-20.4 -12.274,-11.22 -27.727,-20.4 -34.323,-20.4 -6.596,0 -18.87,-7.31 -27.251,-16.252 -8.398,-8.925 -24.14,-18.02 -34.986,-20.179 -10.829,-2.176 -26.265,-10.506 -34.272,-18.513 -8.007,-8.007 -24.956,-17.442 -37.655,-20.944 -12.699,-3.502 -28.424,-12.053 -34.952,-18.989 -6.511,-6.936 -24.803,-16.065 -40.63,-20.298 -15.827,-4.233 -31.79,-13.294 -35.462,-20.162 -3.672,-6.851 -15.538,-14.246 -26.3671,-16.405 -10.829,-2.159 -28.968,-11.747 -40.324,-21.301 -11.339,-9.537 -25.075,-17.357 -30.532,-17.357 -5.44,0 -23.358,-9.129 -39.814,-20.281 -16.456,-11.152 -34.799,-20.332 -40.766,-20.4 -5.967,-0.068 -15.963,-5.763 -22.202,-12.665 -6.239,-6.902 -23.766,-16.643 -38.947,-21.641 -15.164,-5.015 -31.195,-13.906 -35.598,-19.771 -4.403,-5.865 -20.247,-14.841 -35.207,-19.958 -14.96,-5.117 -33.32,-14.671 -40.8,-21.199 -7.48,-6.545 -21.777,-13.838 -31.773,-16.184 -9.996,-2.363 -26.826,-11.475 -37.4,-20.264 -10.574,-8.789 -27.727,-18.037 -38.097,-20.57 -10.387,-2.533 -24.837,-10.574 -32.13,-17.867 -7.293,-7.293 -21.743,-15.266 -32.13,-17.714 -10.37,-2.465 -25.126,-10.132 -32.759,-17.034 -7.65,-6.919 -24.48,-16.184 -37.4,-20.604 -12.937,-4.403 -32.164,-15.181 -42.738,-23.936 -10.574,-8.755 -23.341,-15.912 -28.373,-15.912 -5.032,0 -17.799,-7.157 -28.373,-15.912 -10.574,-8.755 -29.648,-19.465 -42.398,-23.817 -12.75,-4.352 -27.081,-13.481 -31.841,-20.281 -4.76,-6.8 -21.097,-16.082 -36.329,-20.655 -15.215,-4.556 -27.659,-11.322 -27.659,-15.045 0,-3.723 -13.838,-12.699 -30.736,-19.958 -16.915,-7.242 -32.436,-17.544 -34.476,-22.882 -2.057,-5.338 -14.229,-11.679 -27.064,-14.093 -12.852,-2.414 -30.226,-11.526 -38.641,-20.281 -8.398,-8.738 -26.979,-19.618 -41.259,-24.174 -14.28,-4.556 -27.557,-12.41 -29.495,-17.459 -1.938,-5.049 -13.957,-12.631 -26.707,-16.83 -12.75,-4.216 -27.013,-13.039 -31.705,-19.635 -4.675,-6.596 -17.204,-14.127 -27.795,-16.762 -10.608,-2.618 -26.418,-11.9 -35.139,-20.604 -8.704,-8.721 -23.239,-17.714 -32.283,-19.975 -9.044,-2.278 -28.084,-13.379 -42.313,-24.684 -14.212,-11.305 -29.92,-20.553 -34.884,-20.553 -4.964,0 -12.189,-5.916 -16.065,-13.141 -3.859,-7.225 -13.906,-15.3 -22.338,-17.952 -8.415,-2.652 -25.942,-13.583 -38.947,-24.276 -13.005,-10.676 -27.37,-19.431 -31.909,-19.431 -4.556,0 -12.274,-5.406 -17.153,-12.002 -4.896,-6.613 -17.748,-15.929 -28.594,-20.706 -19.703,-8.721 -39.066,-22.304 -81.753,-57.392 -12.495,-10.285 -25.738,-18.7 -29.41,-18.7 -3.672,0 -18.207,-9.18 -32.334,-20.4 -14.127,-11.22 -29.767,-20.4 -34.782,-20.4 -4.998,0 -13.923,-7.361 -19.822,-16.354 -5.882,-8.993 -18.003,-18.173 -26.894,-20.417 -8.908,-2.227 -18.139,-10.166 -20.502,-17.646 -2.38,-7.463 -8.517,-13.583 -13.651,-13.583 -9.435,0 -60.299,-39.321 -92.004,-71.094 -9.486,-9.52 -20.859,-17.306 -25.262,-17.306 -4.403,0 -11.356,-6.273 -15.453,-13.923 -4.097,-7.667 -15.215,-16.881 -24.701,-20.485 -9.486,-3.604 -18.768,-12.376 -20.638,-19.499 -1.853,-7.123 -10.217,-14.654 -18.564,-16.762 -8.364,-2.091 -18.717,-11.526 -23.018,-20.961 -4.301,-9.452 -12.546,-17.17 -18.309,-17.17 -5.763,0 -13.957,-7.599 -18.173,-16.864 -4.233,-9.282 -13.532,-18.734 -20.672,-20.995 -7.14,-2.261 -16.354,-11.509 -20.468,-20.536 -4.097,-9.027 -11.628,-16.405 -16.728,-16.405 -5.083,0 -12.716,-7.599 -16.949,-16.898 -4.233,-9.299 -14.892,-21.607 -23.664,-27.37 -8.772,-5.746 -15.946,-14.62 -15.946,-19.703 0,-5.1 -7.65,-14.28 -17,-20.4 -9.35,-6.137 -17,-15.096 -17,-19.907 0,-4.828 -9.18,-17.578 -20.4,-28.322 -11.22,-10.744 -20.4,-24.616 -20.4,-30.838 0,-6.205 -6.511,-18.632 -14.467,-27.625 -7.956,-8.976 -18.479,-25.755 -23.409,-37.281 -4.913,-11.509 -13.328,-24.582 -18.683,-29.019 -5.355,-4.454 -13.702,-22.576 -18.547,-40.273 -4.845,-17.68 -14.144,-39.1341 -20.689,-47.6681 -6.52802,-8.517 -13.99102,-28.407 -16.55802,-44.2 -2.584,-15.776 -10.829,-38.794 -18.32601,-51.119 -9.673,-15.912 -15.164,-41.548 -18.938,-88.4 -2.907,-36.295 -9.01,-90.95 -13.532,-121.465 -6.341,-42.738 -6.426,-71.655 -0.374,-125.8 4.335,-38.675 10.557,-95.285 13.821,-125.817 3.264,-30.532 10.455,-64.243 15.963,-74.885 5.508,-10.659 13.87201,-38.964 18.58101,-62.9 4.709,-23.936 13.634,-48.586 19.83902,-54.791 6.188,-6.188 15.232,-25.432 20.077,-42.755 4.845,-17.306 14.586,-36.703 21.624,-43.078 7.055,-6.375 12.818,-18.156 12.818,-26.18 0,-15.215 47.09,-93.33 69.003,-114.478 6.919,-6.681 12.597,-15.742 12.597,-20.145 0,-4.386 7.616,-15.742 16.932,-25.228 34.714,-35.36 50.133,-54.58699 54.298,-67.71099 5.423,-17.085 158.066,-163.353 178.619,-171.173 8.449,-3.213 15.351,-10.438 15.351,-16.065 0,-5.644 7.497,-12.121 16.643,-14.416 9.146,-2.312 21.284,-11.271 26.962,-19.941 5.695,-8.67 19.227,-17.71401 30.107,-20.11101 10.88,-2.397 26.826,-11.832 35.411,-20.995 8.602,-9.146 20.689,-16.643 26.843,-16.643 6.154,0 21.284,-9.01 33.626,-20.043 12.359,-11.016 31.263,-21.964 42.024,-24.344 10.778,-2.363 19.584,-7.259 19.584,-10.897 0,-8.619 42.585,-26.316 63.325,-26.316 8.891,0 21.437,-5.831 27.897,-12.954 6.8,-7.531 30.039,-16.592 55.454,-21.641 24.038,-4.794 43.724,-10.863 43.724,-13.532 0,-7.242 18.139,-13.498 78.2,-26.996 29.92,-6.715 71.128,-17.051 91.579,-22.95 20.451,-5.899 54.111,-10.744 74.8,-10.778 20.689,-0.034 71.281,-4.573 112.421,-10.081 87.006,-11.645 220.269,-13.192 278.8,-3.264 22.44,3.808 87.244,9.673 144.007,13.005 70.941,4.182 110.585,9.588 126.786,17.272 12.954,6.154 48.229,15.13 78.353,19.958 30.141,4.828 61.982,13.481 70.754,19.227 8.772,5.746 36.754,13.685 62.186,17.646 25.432,3.961 53.839,12.172 63.121,18.258 9.282,6.086 34.136,15.555 55.216,21.046 21.08,5.491 43.894,15.963 50.711,23.273 7.497,8.058 21.318,13.311 34.986,13.311 12.988,0 33.422,7.361 48.11,17.323 14.0421,9.537 35.1221,19.21 46.8521,21.505 11.73,2.278 30.498,10.965 41.718,19.278 11.22,8.313 28.05,17.357 37.4,20.094 9.35,2.72 23.12,10.35301 30.6,16.94901 7.48,6.579 25.058,15.64 39.083,20.128 14.008,4.488 29.308,13.549 34,20.145 4.675,6.596 17.51,14.212 28.509,16.932 19.176,4.743 40.8,19.771 86.615,60.146 11.662,10.285 25.381,18.7 30.464,18.7 5.083,0 18.853,9.18 30.6,20.4 11.747,11.22 25.415,20.4 30.379,20.4 4.964,0 14.042,7.65 20.179,17 6.12,9.35 15.402,17 20.621,17 5.202,0 18.292,8.415 29.053,18.7 10.761,10.285 49.64,46.23999 86.394,79.89999 110.534,101.218 179.503,177.361 179.503,198.135 0,5.1 4.488,9.265 9.962,9.265 5.474,0 13.583,6.885 18.003,15.3 4.42,8.415 22.899,32.572 41.072,53.669 18.173,21.114 37.655,49.419 43.299,62.9 5.627,13.498 13.43,24.531 17.306,24.531 3.876,0 11.781,11.475 17.561,25.5 5.78,14.025 15.98,31.62 22.661,39.1 6.698,7.48 14.467,21.25 17.289,30.6 2.805,9.35 12.087,25.347 20.604,35.53 8.517,10.2 17.646,28.373 20.281,40.375 2.652,12.019 10.557,26.622 17.595,32.47 7.055,5.848 15.402,24.803 18.564,42.143 3.162,17.323 11.951,40.273 19.533,51 7.582,10.71 15.98,30.192 18.666,43.282 2.686,13.09 11.917,34.51 20.502,47.6 8.602,13.09 17.748,36.04 20.332,51 2.601,14.96 8.619,31.79 13.379,37.4 12.019,14.144 24.191,52.53 24.191,76.228 0,10.897 7.48,35.683 16.609,55.097 9.129,19.397 18.7,52.1051 21.25,72.6751 2.55,20.57 10.489,47.141 17.663,59.041 8.007,13.328 15.861,46.002 20.4,85 4.046,34.85 11.934,72.284 17.493,83.215 5.576,10.914 14.195,52.836 19.176,93.16 5.27,42.568 13.753,80.495 20.264,90.423 7.837,11.951 12.206,38.131 14.552,87.023 5.746,119.578 7.004,120.938 111.69,120.938 83.232,0 74.392,163.965 72.42,-1343.5271 l -1.717,-1311.873018 h -88.4 -88.4 l -3.893,45.253998 c -2.142,24.888 -8.755,52.66601 -14.688,61.72701 -5.933,9.061 -15.64,32.81 -21.573,52.785 -5.933,19.958 -14.994,41.14 -20.162,47.073 -5.151,5.916 -13.26,23.001 -18.003,37.961 -4.76,14.96 -15.776,36.38 -24.497,47.6 -32.351,41.65 -74.137,85.00001 -81.906,85.00001 -4.42,0 -16.949,7.497 -27.846,16.677 -13.005,10.948 -34.527,19.04 -62.628,23.562 -23.562,3.791 -48.008,11.594 -54.349,17.323 -15.419,13.957 -120.326,14.722 -139.876,1.02 -7.395,-5.185 -36.38,-12.92 -64.413,-17.187 -29.869,-4.556 -58.786,-13.464 -69.853,-21.522 -10.387,-7.565 -34.867,-15.47 -54.4,-17.578 -19.533,-2.108 -46.223,-10.65901 -59.313,-19.00601 -13.09,-8.33 -39.882,-19.006 -59.551,-23.715 -19.652,-4.709 -38.318,-13.141 -41.446,-18.751 -3.145,-5.593 -20.536,-12.954 -38.658,-16.337 -18.122,-3.4 -39.253,-12.019 -46.954,-19.176 -7.684,-7.157 -26.231,-15.113 -41.191,-17.697 -14.96,-2.584 -37.91,-11.798 -51,-20.485 -13.09,-8.67 -36.04,-17.816 -51,-20.298 -14.96,-2.465 -34.85,-9.809 -44.2,-16.32 -9.35,-6.494 -36.261,-15.555 -59.789,-20.162 -23.528,-4.59 -52.598,-13.957 -64.6,-20.825 -12.002,-6.851 -35.683,-14.416 -52.632,-16.796 -16.949,-2.38 -41.3611,-10.727 -54.2301,-18.547 -13.141,-8.007 -44.098,-16.83 -70.652,-20.162 -25.976,-3.264 -60.248,-12.24 -76.143,-19.924 -16.949,-8.211 -49.487,-15.58901 -78.727,-17.83301 -28.645,-2.21 -65.722,-10.506 -87.227,-19.516 -29.155,-12.24 -59.126,-17.169996 -136,-22.371997 -63.58,-4.301 -109.463,-10.914 -129.2,-18.615 -29.597,-11.560001 -451.928,-20.961001 -540.6,-12.053001"
           stroke="none"
           fill="#f7f7f7"
           fill-rule="evenodd"
           style="fill:#273a6d;fill-opacity:1;stroke-width:17" />
        <path
           id="path847"
           d="m 1483.5001,4944.4127 c -10.642,10.625 -22.644,31.654 -26.707,46.716 -4.063,15.062 -13.226,34.833 -20.383,43.928 -7.174,9.0951 -15.147,27.8971 -17.748,41.7521 -2.601,13.855 -10.064,32.045 -16.575,40.426 -6.511,8.398 -15.742,27.489 -20.485,42.449 -4.76,14.96 -12.546,31.79 -17.289,37.4 -4.743,5.61 -13.753,25.5 -20.026,44.2 -6.273,18.7 -15.453,38.59 -20.4,44.2 -4.947,5.61 -13.906,24.837 -19.907,42.738 -6.001,17.901 -15.198,39.321 -20.451,47.6 -5.236,8.279 -11.713,25.772 -14.382,38.862 -2.652,13.09 -12.529,42.16 -21.913,64.6 -19.21,45.917 -18.955,131.852 0.595,194.021 5.338,16.966 13.43,59.585 18.003,94.741 4.573,35.156 12.733,76.364 18.156,91.579 5.406,15.215 14.399,53.669 19.992,85.459 5.576,31.79 14.484,64.413 19.771,72.488 5.287,8.075 12.563,32.997 16.184,55.386 3.604,22.406 12.818,55.573 20.468,73.729 7.667,18.139 17.238,48.297 21.267,66.997 4.046,18.7 11.662,40.596 16.915,48.671 5.27,8.058 13.192,29.478 17.629,47.6 4.437,18.105 15.249,45.441 24.055,60.724 8.806,15.283 16.014,32.113 16.031,37.4 0,5.287 9.18,27.965 20.366,50.405 11.186,22.44 20.366,45.118 20.366,50.405 0.017,5.287 7.276,22.117 16.116,37.4 8.84,15.283 19.839,39.423 24.446,53.652 13.005,40.239 24.191,27.37 23.239,-26.724 -0.561,-31.348 -5.474,-57.29 -14.671,-77.52 -8.704,-19.125 -16.66,-58.837 -21.454,-106.981 -4.199,-42.126 -10.965,-84.966 -15.045,-95.2 -15.725,-39.559 -19.482,-71.281 -26.367,-222.309 -7.956,-174.437 0.459,-360.383 18.462,-408.323 5.627,-14.96 15.759,-56.695 22.508,-92.735 6.766,-36.057 16.949,-72.777 22.661,-81.6 5.695,-8.84 13.702,-40.409 17.782,-70.142 4.063,-29.75 12.223,-61.438 18.122,-70.431 5.882,-8.993 14.926,-42.449 20.094,-74.341 5.151,-31.892 14.042,-65.11 19.754,-73.814 5.695,-8.704 13.311,-36.601 16.915,-61.982 3.621,-25.381 10.064,-56.151 14.331,-68.374 11.254,-32.2321 3.23,-54.4511 -24.446,-67.6431 -12.988,-6.188 -23.613,-13.906 -23.613,-17.136 0,-3.247 -9.945,-10.115 -22.1,-15.283 -12.155,-5.151 -32.64,-17.238 -45.526,-26.843 -29.24,-21.828 -31.144,-21.76 -54.74,1.853 m 539.869,-0.034 c -10.829,10.608 -38.063,40.409 -60.503,66.215 -22.44,25.823 -49.215,55.0801 -59.5,65.0421 -10.285,9.962 -18.7,20.791 -18.7,24.055 0,3.281 -8.415,14.076 -18.7,24.004 -10.285,9.928 -26.877,28.203 -36.873,40.613 -9.996,12.41 -45.951,55.182 -79.9,95.013 -33.949,39.848 -61.727,75.429 -61.727,79.067 0,3.655 -4.913,10.71 -10.914,15.691 -16.779,13.923 -21.981,33.66 -29.767,113.084 -3.944,40.324 -12.002,104.941 -17.918,143.582 -13.583,88.91 -17.408,485.537 -4.93,511.666 4.318,9.061 12.988,48.603 19.244,87.873 20.859,130.696 29.155,125.97 36.975,-21.097 3.876,-72.811 9.095,-112.982 17.136,-131.903 6.358,-14.96 15.98,-54.23 21.386,-87.278 5.406,-33.031 14.246,-68.612 19.635,-79.033 5.406,-10.438 13.141,-40.018 17.204,-65.739 4.063,-25.704 14.892,-65.637 24.055,-88.706 9.18,-23.086 16.694,-47.056 16.694,-53.261 0,-11.356 33.286,-93.874 50.813,-126.004 5.168,-9.469 14.195,-37.91 20.06,-63.206 5.882,-25.296 16.354,-57.324 23.273,-71.179 48.348,-96.577 61.489,-117.436 94.554,-149.906 20.332,-19.975 47.022,-40.511 59.313,-45.645 62.084,-25.942 78.421,-133.994 36.941,-244.4431 -24.463,-65.144 -28.135,-67.592 -57.851,-38.505 m 480.097,120.1051 c -12.665,9.35 -25.874,17 -29.325,17 -3.451,0 -16.184,8.415 -28.271,18.7 -22.134,18.819 -48.467,35.751 -89.964,57.851 -12.342,6.579 -22.44,14.62 -22.44,17.884 0,3.247 -9.282,9.758 -20.621,14.45 -11.339,4.709 -31.637,17.306 -45.135,28.033 -13.481,10.71 -28.203,19.482 -32.725,19.482 -4.522,0 -13.6,5.95 -20.162,13.209 -6.579,7.276 -20.553,15.113 -31.025,17.408 -10.489,2.295 -29.444,14.246 -42.109,26.554 -12.665,12.291 -25.959,23.596 -29.563,25.092 -12.903,5.389 -75.82,84.762 -84.388,106.437 -4.794,12.155 -11.084,22.1 -13.957,22.1 -2.89,0 -7.327,8.415 -9.877,18.7 -2.567,10.285 -13.6,41.123 -24.548,68.51 -10.931,27.404 -19.924,56.474 -19.958,64.6 -0.034,8.143 -7.82,31.467 -17.323,51.85 -9.486,20.383 -19.091,50.983 -21.352,68 -2.261,17.017 -10.897,46.24 -19.193,64.94 -8.313,18.7 -16.983,46.563 -19.295,61.914 -2.312,15.334 -11.577,44.404 -20.587,64.6 -9.503,21.284 -18.292,57.46 -20.91,86.173 -2.499,27.217 -10.455,66.708 -17.697,87.771 -13.838,40.222 -18.836,144.942 -6.902,144.942 3.451,0 10.047,-11.458 14.671,-25.466 4.624,-14.008 15.572,-38.947 24.327,-55.42 8.772,-16.456 15.929,-34.493 15.929,-40.069 0,-10.727 42.075,-97.376 74.987,-154.445 10.778,-18.7 24.361,-44.71 30.158,-57.8 5.814,-13.09 15.079,-31.45 20.587,-40.8 5.508,-9.35 14.994,-27.71 21.063,-40.8 6.069,-13.09 27.557,-41.174 47.719,-62.39 20.179,-21.233 36.686,-43.384 36.686,-49.249 0,-9.554 32.963,-59.143 56.882,-85.561 5.083,-5.61 12.784,-17.017 17.136,-25.347 4.352,-8.33 14.705,-22.389 23.035,-31.229 8.33,-8.84 28.917,-35.683 45.747,-59.653 40.069,-57.069 126.99,-144.296 156.706,-157.267 45.526,-19.873 78.285,-31.841 115.294,-42.109 72.165,-20.009 106.879,-94.537 70.686,-151.725 -5.253,-8.313 -13.974,-32.062 -19.38,-52.768 -15.419,-59.194 -24.446,-63.9541 -64.906,-34.102 m -1578.00803,48.671 c -3.553,9.367 -9.962,31.314 -14.212,48.773 -4.25,17.476 -10.2,36.635 -13.226,42.585 -3.009,5.95 -10.37,66.793 -16.337,135.201 -5.967,68.408 -14.892,145.741 -19.839,171.87 -6.205,32.81 -6.987,55.148 -2.55,72.199 3.536,13.583 11.781,51.17 18.309,83.504 6.545,32.351 16.949,63.852 23.103,70.006 6.154,6.154 14.637,23.97 18.836,39.559 4.199,15.589 12.954,35.122 19.465,43.384 6.511,8.279 17.17,29.036 23.698,46.155 6.545,17.102 14.56901,31.093 17.85001,31.093 3.281,0 9.673,13.005 14.195,28.9 4.522,15.895 13.44702,35.02 19.83902,42.5 6.375,7.48 15.419,25.84 20.077,40.8 4.658,14.96 13.872,33.32 20.451,40.8 6.596,7.48 14.246,21.25 17.017,30.6 2.788,9.35 13.838,29.07 24.582,43.843 10.761,14.756 19.55,30.294 19.55,34.51 0,4.216 7.65,14.858 17,23.647 9.35,8.789 17,19.618 17,24.072 0,4.454 5.797,15.453 12.869,24.446 7.072,9.01 18.547,25.789 25.5,37.298 13.277,22.015 23.834,38.386 61.217,94.877 12.546,18.972 22.814,37.774 22.814,41.769 0,4.012 4.573,9.044 10.166,11.186 5.593,2.142 15.096,16.235 21.131,31.331 6.103,15.215 15.589,27.421 21.335,27.421 15.878,0 6.698,-49.963 -13.6,-74.103 -9.18,-10.914 -18.666,-32.198 -21.08,-47.328 -2.431,-15.113 -10.268,-37.57 -17.459,-49.929 -7.174,-12.342 -15.181,-37.74 -17.799,-56.44 -2.618,-18.7 -11.73,-49.3 -20.23,-68 -8.5,-18.7 -17.51,-48.586 -19.992,-66.419 -2.499,-17.833 -10.642,-46.223 -18.122,-63.104 -7.463,-16.881 -16.575,-49.368 -20.264,-72.199 -3.672,-22.814 -11.322,-50.473 -17,-61.455 -5.678,-10.982 -14.688,-42.789 -20.026,-70.669 -5.338,-27.897 -14.263,-59.551 -19.839,-70.329 -33.779,-65.331 -30.311,-268.209 5.763,-336.804 15.028,-28.577 21.981,-225.692 9.486,-268.821 -7.463,-25.738 -43.503,-45.679 -92.327,-51.085 -23.562,-2.601 -58.15702,-8.772 -76.85703,-13.702 -33.609,-8.874 -34.102,-8.772 -40.494,8.058 m 1956.58103,199.325 c -21.811,6.97 -44.761,17.255 -51,22.882 -6.256,5.61 -35.173,13.498 -64.243,17.527 -29.087,4.012 -59.806,11.849 -68.255,17.391 -8.466,5.542 -38.233,14.535 -66.13,19.992 -27.914,5.457 -62.985,15.844 -77.945,23.069 -14.96,7.242 -38.777,15.249 -52.904,17.799 -39.015,7.038 -86.717,43.384 -122.91,93.653 -6.222,8.636 -21.93,29.461 -34.918,46.291 -12.971,16.83 -28.679,39.78 -34.884,51 -6.205,11.22 -17.221,26.52 -24.48,34 -17.714,18.275 -43.809,56.576 -55.692,81.736 -5.321,11.305 -16.065,26.299 -23.851,33.354 -7.786,7.055 -14.161,16.558 -14.161,21.131 0,4.573 -4.828,12.325 -10.727,17.221 -5.899,4.896 -18.19,23.63 -27.319,41.633 -9.112,18.003 -19.074,32.725 -22.117,32.725 -3.043,0 -9.741,8.415 -14.875,18.7 -5.134,10.285 -14.348,24.82 -20.451,32.3 -6.103,7.48 -15.232,24.31 -20.247,37.4 -5.032,13.09 -14.263,30.549 -20.536,38.777 -6.256,8.245 -15.266,28.832 -20.009,45.781 -4.743,16.932 -12.818,34.272 -17.969,38.539 -10.472,8.704 -12.852,40.103 -3.026,40.103 3.485,0 7.31,-6.885 8.5,-15.3 1.377,-9.724 7.633,-16.082 17.153,-17.425 8.296,-1.19 17.051,-8.772 19.618,-17 2.55,-8.177 13.413,-24.922 24.123,-37.213 10.71,-12.291 19.482,-24.837 19.482,-27.897 0,-5.27 16.388,-24.956 61.268,-73.576 11.084,-11.985 26.061,-24.973 33.303,-28.849 7.242,-3.876 17.238,-10.999 22.202,-15.827 4.964,-4.811 19.737,-16.099 32.827,-25.058 13.09,-8.976 28.39,-20.349 34,-25.296 5.61,-4.947 23.97,-19.907 40.8,-33.235 16.83,-13.328 45.9,-37.621 64.6,-53.975 33.932,-29.682 83.997,-68.68 104.669,-81.549 6.018,-3.74 19.091,-14.45 29.053,-23.8 9.962,-9.35 29.393,-26.18 43.18,-37.4 13.77,-11.22 30.294,-24.99 36.72,-30.6 61.149,-53.482 125.732,-81.379 189.193,-81.753 155.533,-0.884 200.447,-35.768 171.258,-133.008 -25.772,-85.884 -22.797,-83.572 -83.3,-64.243 m -69.173,313.905 c -51.153,6.409 -107.168,26.826 -129.285,47.09 -7.531,6.919 -25.126,17.34 -39.1,23.171 -13.974,5.848 -25.415,13.702 -25.415,17.476 0,3.774 -8.415,10.489 -18.7,14.943 -10.285,4.437 -28.696,16.575 -40.919,26.945 -12.223,10.387 -29.716,20.757 -38.862,23.052 -9.146,2.295 -18.479,9.996 -20.74,17.102 -2.244,7.106 -6.817,12.92 -10.166,12.92 -7.905,0 -138.567,125.732 -245.565,236.3 l -14.807,15.3 h 27.455 c 17.119,0 30.906,-4.182 36.669,-11.135 5.083,-6.12 21.522,-16.932 36.533,-24.038 15.011,-7.089 45.662,-23.477 68.102,-36.414 22.44,-12.92 50.218,-27.948 61.744,-33.371 11.509,-5.423 24.769,-14.467 29.444,-20.094 4.675,-5.644 19.72,-13.957 33.422,-18.479 13.702,-4.522 38.403,-15.385 54.876,-24.14 16.456,-8.772 34.833,-16.031 40.834,-16.15 5.984,-0.102 29.155,-9.282 51.51,-20.4 22.338,-11.101 46.461,-20.179 53.601,-20.179 7.123,0 22.933,-6.154 35.122,-13.685 12.189,-7.531 40.086,-16.83 61.999,-20.638 21.913,-3.825 52.088,-13.736 67.048,-22.015 30.447,-16.864 116.263,-19.805 251.804,-8.653 l 68.1871,5.61 8.313,-18.241 c 4.556,-10.013 8.364,-28.016 8.466,-40.001 0.085,-11.968 3.315,-35.462 7.174,-52.19 11.05,-47.991 11.305,-47.923 -193.9361,-46.92 -97.461,0.459 -198.628,3.536 -224.808,6.834 m -2271.20004,30.583 c -169.59201,10.625 -174.81101,19.873 -139.723,247.316 8.092,52.53 18.649,192.151 24.157,319.6 2.176,50.49 8.262,119.34 13.515,153 5.253,33.66 12.903,122.4 17,197.2 7.735,141.321 15.555,235.977 26.741,323 3.587,28.05 9.962,118.32 14.161,200.6 4.182,82.28 12.036,180.149 17.442,217.464 5.389,37.332 12.801,124.542 16.473,193.8 9.503,180.047 13.243,226.508 24.157,299.506 5.321,35.632 12.869,130.492 16.779,210.8001 3.91,80.325 8.891,155.975 11.084,168.13 l 3.961,22.1 h 41.769 c 22.984,0 52.46201,-3.06 65.53501,-6.817 13.056,-3.757 49.759,-9.979 81.549,-13.855 78.047,-9.486 79.781,-10.251 96.169,-42.721 16.643,-32.963 20.179,-37.4 66.028,-82.807 51.62901,-51.136 66.67403,-60.5541 137.00303,-85.6971 l 64.6,-23.103 598.4,-0.391 c 589.22,-0.374 626.705,-1.581 665.465,-21.403 10.71,-5.474 35.19,-14.127 54.4,-19.227 19.21,-5.1 47.056,-15.555 61.88,-23.239 14.807,-7.667 33.473,-13.94 41.48,-13.94 8.007,0 28.628,-7.48 45.815,-16.626 17.204,-9.146 42.908,-18.768 57.12,-21.369 14.212,-2.601 39.61,-11.696 56.44,-20.196 16.83,-8.517 43.52,-17.51 59.296,-20.009 15.793,-2.482 36.21,-10.421 45.373,-17.646 9.163,-7.208 32.606,-16.133 52.088,-19.822 19.465,-3.689 44.965,-12.512 56.627,-19.584 11.662,-7.072 37.927,-16.371 58.344,-20.638 20.417,-4.284 42.296,-12.461 48.62,-18.19 6.324,-5.729 30.821,-14.926 54.434,-20.434 23.613,-5.491 47.668,-14.297 53.482,-19.567 5.797,-5.253 25.806,-12.869 44.438,-16.915 90.9501,-19.754 58.8371,-29.427 -115.702,-34.884 -90.1,-2.805 -174.165,-9.537 -227.8,-18.224 -46.75,-7.582 -115.6,-17.119 -153,-21.199 -37.4,-4.08 -81.464,-12.172 -97.92,-17.969 -16.456,-5.814 -54.434,-13.634 -84.405,-17.391 -29.954,-3.757 -60.197,-9.894 -67.167,-13.634 -6.987,-3.74 -40.8,-12.92 -75.157,-20.417 -34.357,-7.497 -65.841,-16.439 -69.972,-19.873 -4.131,-3.417 -31.773,-12.121 -61.438,-19.312 -29.665,-7.191 -63.121,-17.969 -74.341,-23.953 -11.22,-5.967 -25.075,-10.88 -30.77,-10.914 -5.712,-0.017 -28.662,-9.112 -51,-20.213 -22.355,-11.118 -46.75,-20.417 -54.23,-20.672 -7.48,-0.272 -30.43,-9.554 -51,-20.621 -20.57,-11.067 -42.177,-20.128 -48.025,-20.128 -5.831,0 -17.374,-6.307 -25.653,-14.008 -8.262,-7.701 -24.905,-17.374 -36.975,-21.505 -12.07,-4.131 -32.606,-14.654 -45.628,-23.392 -13.022,-8.738 -27.319,-15.895 -31.773,-15.895 -4.454,0 -16.745,-7.004 -27.319,-15.572 -10.574,-8.551 -28.084,-19.397 -38.93,-24.106 -19.669,-8.534 -38.828,-21.947 -81.753,-57.222 -12.495,-10.285 -25.993,-18.7 -29.954,-18.7 -3.978,0 -11.22,-5.406 -16.099,-12.019 -4.896,-6.613 -16.541,-16.949 -25.891,-22.967 -9.35,-6.035 -25.177,-18.224 -35.173,-27.081 -9.996,-8.874 -29.393,-25.313 -43.095,-36.533 -13.702,-11.22 -72.845,-68.493 -131.427,-127.262 -93.908,-94.231 -130.815,-135.031 -176.069,-194.582 -6.613,-8.721 -21.998,-28.611 -34.187,-44.2 -31.263,-40.018 -26.163,-32.623 -92.055,-133.756 -6.103,-9.35 -24.888,-36.89 -41.752,-61.2 -16.864,-24.31 -30.75302,-49.079 -30.85502,-55.046 -0.102,-5.967 -6.188,-16.286 -13.532,-22.916 -7.34401,-6.647 -16.96601,-23.188 -21.38601,-36.754 -4.42,-13.583 -14.994,-33.031 -23.477,-43.214 -8.5,-10.2 -17.408,-27.472 -19.805,-38.403 -2.397,-10.914 -10.319,-25.245 -17.595,-31.841 -7.293,-6.596 -16.575,-24.497 -20.655,-39.814 -4.063,-15.3 -11.917,-32.878 -17.442,-39.066 -5.525,-6.188 -14.297,-25.415 -19.516,-42.738 -5.202,-17.306 -13.957,-35.955 -19.448,-41.446 -5.474,-5.474 -14.79,-26.554 -20.672,-46.801 -5.899,-20.264 -14.008,-37.944 -18.054,-39.287 -4.029,-1.343 -11.798,-21.794 -17.255,-45.424 -5.457,-23.647 -15.64,-51.102 -22.61,-61.013 -6.97,-9.928 -14.722,-30.005 -17.221,-44.659 -2.499,-14.637 -11.713,-40.647 -20.468,-57.8 -8.755,-17.136 -17.884,-43.418 -20.281,-58.378 -13.31101,-82.841 -38.69201,-100.436 -136.17001,-94.316 m 2371.19404,224.009 c -38.505,8.806 -77.469,21.879 -86.598,29.053 -9.146,7.191 -33.167,15.13 -53.414,17.663 -22.984,2.873 -41.208,9.452 -48.518,17.544 -6.443,7.106 -22.814,16.49 -36.38,20.825 -13.583,4.352 -30.804,13.345 -38.284,20.009 -7.48,6.664 -26.605,15.963 -42.5,20.638 -15.895,4.692 -28.9,11.135 -28.9,14.331 0,3.196 -16.065,13.583 -35.7,23.069 -47.923,23.171 -81.634,41.599 -91.086,49.827 -4.301,3.723 -18.071,12.291 -30.6,19.057 -12.546,6.766 -30.464,17.833 -39.814,24.582 -9.35,6.749 -37.009,25.143 -61.472,40.885 -24.463,15.759 -48.943,32.385 -54.4,36.975 -35.802,30.124 -69.666,56.083 -73.474,56.321 -13.838,0.867 -60.877,53.499 -63.716,71.264 -1.785,11.152 -1.955,16.439 -0.391,11.764 1.564,-4.675 9.826,-8.5 18.343,-8.5 22.967,0 60.112,-13.974 73.287,-27.574 6.358,-6.579 23.188,-15.691 37.4,-20.247 14.195,-4.573 30.413,-12.24 36.023,-17.068 5.61,-4.811 30.09,-13.872 54.4,-20.111 24.31,-6.239 49.249,-15.878 55.437,-21.42 6.171,-5.542 29.971,-14.45 52.87,-19.788 22.916,-5.355 49.028,-14.552 58.038,-20.451 9.01,-5.899 38.76,-13.736 66.113,-17.425 27.353,-3.672 61.982,-12.988 76.942,-20.706 23.12,-11.9 46.053,-14.807 153,-19.38 72.93,-3.111 134.368,-8.959 146.2,-13.889 13.651,-5.712 82.297,-9.996 207.4,-12.971 102.8501,-2.448 191.5901,-6.613 197.2001,-9.248 25.568,-12.07 56.287,-81.821 49.946,-113.458 -4.114,-20.57 -7.99,-22.797 -53.023,-30.43 -14.79,-2.516 -38.063,-10.268 -51.714,-17.238 -13.668,-6.97 -41.344,-14.756 -61.523,-17.306 -20.179,-2.55 -51.9861,-11.56 -70.6861,-20.026 -18.7,-8.466 -59.296,-19.159 -90.219,-23.783 -30.923,-4.607 -57.885,-11.067 -59.908,-14.331 -5.542,-8.976 -33.065,-6.086 -110.279,11.543 m -1334.194,784.499 c 0,10.999 2.839,21.76 6.307,23.902 8.296,5.134 15.589,-18.479 10.115,-32.742 -6.885,-17.969 -16.422,-12.835 -16.422,8.84"
           stroke="none"
           fill="#00919e"
           fill-rule="evenodd"
           style="fill:#00919e;fill-opacity:1;stroke-width:17" />
      </g>
    </g>
  </g>
  <metadata
     id="metadata10">
    <rdf:RDF>
      <cc:Work
         rdf:about="">
        <dc:format>image/svg+xml</dc:format>
        <dc:type
           rdf:resource="http://purl.org/dc/dcmitype/StillImage" />
        <dc:title></dc:title>
      </cc:Work>
    </rdf:RDF>
  </metadata>
  <defs
     id="defs8" />
  <sodipodi:namedview
     inkscape:current-layer="svg"
     inkscape:cy="269.96439"
     inkscape:cx="188.44114"
     inkscape:zoom="0.99447171"
     showgrid="false"
     id="namedview6"
     inkscape:window-height="480"
     inkscape:window-width="640"
     inkscape:pageshadow="2"
     inkscape:pageopacity="0"
     guidetolerance="10"
     gridtolerance="10"
     objecttolerance="10"
     borderopacity="1"
     bordercolor="#666666"
     pagecolor="#ffffff"
     inkscape:document-rotation="0" />
  <g
     transform="matrix(0.05837836,0,0,0.05838896,-24.413837,26.76102)"
     id="svgg">
    <path
       fill-rule="evenodd"
       fill="#f7f7f7"
       stroke="none"
       d="m 162.2,57.465 c -0.88,0.088 -3.04,0.504 -4.8,0.922 -1.76,0.419 -5.17,0.89 -7.578,1.047 -3.048,0.199 -5.054,0.556 -6.6,1.173 -1.222,0.489 -3.435,1.007 -4.917,1.151 -1.496,0.146 -3.276,0.604 -4,1.03 -0.718,0.422 -2.393,0.941 -3.722,1.154 -1.329,0.213 -3.039,0.75 -3.8,1.193 -0.761,0.444 -2.103,0.931 -2.983,1.084 -0.88,0.153 -2.14,0.599 -2.8,0.991 -0.66,0.392 -2.01,0.95 -3,1.239 -0.99,0.289 -2.147,0.844 -2.57,1.234 -0.424,0.389 -1.363,0.818 -2.087,0.954 -0.725,0.136 -1.712,0.589 -2.193,1.007 -0.482,0.417 -1.539,0.938 -2.349,1.156 -0.811,0.218 -1.794,0.751 -2.186,1.183 -0.391,0.433 -1.365,1.001 -2.163,1.263 -0.799,0.262 -1.687,0.809 -1.975,1.215 -0.287,0.407 -0.757,0.739 -1.045,0.739 -0.287,0 -1.186,0.528 -1.998,1.173 -0.811,0.645 -2.006,1.289 -2.655,1.432 -0.648,0.142 -1.179,0.496 -1.179,0.787 0,0.291 -0.63,0.901 -1.4,1.355 -0.77,0.454 -1.4,1 -1.4,1.213 0,0.212 -0.356,0.499 -0.791,0.637 -0.435,0.138 -1.532,0.87 -2.438,1.627 -0.906,0.757 -1.888,1.376 -2.182,1.376 -0.294,0 -0.649,0.36 -0.789,0.8 -0.14,0.44 -0.424,0.8 -0.632,0.8 -0.41,0 -3.53,2.899 -8.088,7.517 -5.425,5.495 -6.942,7.146 -7.213,7.852 -0.149,0.389 -0.63,0.801 -1.069,0.916 -0.439,0.114 -0.798,0.44 -0.798,0.724 0,0.283 -0.63,1.269 -1.4,2.191 -0.77,0.922 -1.4,1.858 -1.4,2.08 0,0.223 -0.45,0.759 -1,1.191 -0.55,0.433 -1,1.031 -1,1.329 0,0.298 -0.412,0.87 -0.915,1.271 -0.504,0.401 -1.17,1.359 -1.48,2.129 -0.311,0.77 -0.875,1.625 -1.253,1.9 -0.379,0.276 -0.804,1.028 -0.946,1.673 -0.142,0.644 -0.54,1.407 -0.886,1.694 -0.346,0.287 -0.96,1.293 -1.364,2.236 -0.404,0.943 -1.001,1.816 -1.326,1.941 -0.334,0.128 -0.709,1.008 -0.861,2.023 -0.148,0.987 -0.617,2.119 -1.043,2.516 -0.425,0.396 -1.028,1.686 -1.339,2.866 -0.311,1.181 -0.843,2.349 -1.18,2.596 -0.338,0.247 -0.803,1.508 -1.033,2.802 -0.231,1.294 -0.769,2.84 -1.196,3.435 -0.441,0.616 -0.952,2.327 -1.185,3.966 -0.225,1.586 -0.739,3.438 -1.144,4.117 -0.499,0.839 -0.873,2.716 -1.166,5.845 -0.238,2.536 -0.758,5.506 -1.157,6.6 -1.073,2.941 -1.097,25.886 -0.03,28.489 0.385,0.939 0.899,3.893 1.148,6.6 0.32,3.469 0.673,5.267 1.208,6.155 0.416,0.689 0.934,2.657 1.151,4.373 0.275,2.165 0.64,3.38 1.194,3.969 0.438,0.467 0.913,1.695 1.055,2.728 0.141,1.034 0.591,2.265 1,2.736 0.733,0.845 1.541,3.136 1.546,4.382 10e-4,0.352 0.444,1.118 0.984,1.701 0.54,0.583 1.101,1.694 1.247,2.469 0.145,0.775 0.589,1.583 0.985,1.796 0.397,0.212 0.842,0.935 0.989,1.607 0.148,0.671 0.691,1.677 1.208,2.235 0.517,0.557 1.052,1.526 1.189,2.152 0.138,0.627 0.689,1.427 1.225,1.778 0.536,0.351 0.975,0.906 0.975,1.233 0,0.327 0.54,1.159 1.2,1.85 0.66,0.691 1.2,1.517 1.2,1.836 0,0.319 0.495,1.081 1.1,1.692 0.605,0.612 1.64,1.87 2.3,2.795 1.277,1.79 3.127,3.965 4.787,5.629 0.557,0.558 1.013,1.213 1.013,1.454 0,0.241 0.436,0.725 0.97,1.074 0.533,0.35 1.085,1 1.227,1.446 0.141,0.446 0.519,0.811 0.839,0.811 0.319,0 0.786,0.45 1.037,1 0.25,0.55 0.606,1 0.789,1 0.184,0 1.871,1.53 3.749,3.4 1.879,1.87 3.594,3.4 3.811,3.4 0.217,0 0.591,0.43 0.831,0.956 0.239,0.526 0.82,1.155 1.291,1.397 0.471,0.243 1.936,1.348 3.256,2.456 1.32,1.108 2.707,2.118 3.081,2.245 0.375,0.126 0.964,0.661 1.31,1.188 0.345,0.527 0.883,0.958 1.196,0.958 0.312,0 0.803,0.333 1.09,0.74 0.288,0.408 1.063,1.021 1.723,1.363 0.66,0.342 1.74,1.088 2.4,1.659 0.66,0.57 1.415,1.037 1.677,1.038 0.263,0 0.713,0.315 1,0.7 0.288,0.385 1.198,1.043 2.023,1.463 0.825,0.42 1.5,0.893 1.5,1.051 0,0.159 0.522,0.505 1.16,0.77 0.639,0.264 1.57,0.916 2.07,1.448 0.5,0.532 1.105,0.968 1.344,0.968 0.239,0 0.919,0.45 1.513,1 0.593,0.55 1.26,1 1.482,1 0.222,0 1.004,0.528 1.739,1.173 0.734,0.645 1.804,1.29 2.376,1.434 0.572,0.143 1.449,0.695 1.948,1.227 0.499,0.531 1.237,0.966 1.64,0.966 0.403,0 1.117,0.441 1.586,0.98 0.468,0.539 1.345,1.089 1.947,1.221 0.602,0.132 1.509,0.681 2.014,1.22 0.506,0.538 1.132,0.979 1.391,0.979 0.258,0 1.215,0.54 2.127,1.2 0.911,0.66 1.846,1.2 2.078,1.2 0.232,0 0.848,0.427 1.37,0.948 0.521,0.522 1.383,1.058 1.915,1.191 0.532,0.134 1.652,0.787 2.489,1.452 0.836,0.665 1.756,1.209 2.043,1.209 0.288,0 0.758,0.332 1.045,0.739 0.288,0.406 1.197,0.96 2.022,1.23 0.824,0.271 1.724,0.811 2,1.2 0.275,0.39 1.154,0.923 1.953,1.185 0.798,0.262 1.756,0.813 2.129,1.225 0.373,0.412 1.148,0.867 1.722,1.011 0.574,0.144 1.546,0.685 2.161,1.202 0.614,0.517 1.683,1.065 2.375,1.217 0.718,0.157 1.339,0.585 1.446,0.996 0.117,0.446 0.724,0.82 1.597,0.984 0.774,0.145 1.829,0.686 2.345,1.202 0.516,0.516 1.493,1.06 2.172,1.209 0.679,0.149 1.632,0.683 2.118,1.186 0.486,0.503 1.423,1.041 2.083,1.195 0.66,0.155 1.533,0.582 1.94,0.95 0.731,0.66 2.345,1.571 5.86,3.305 0.99,0.489 1.98,1.109 2.2,1.378 0.22,0.27 0.881,0.602 1.469,0.738 0.588,0.136 1.578,0.67 2.2,1.187 0.622,0.517 1.612,1.057 2.2,1.2 0.588,0.143 1.604,0.711 2.258,1.261 0.654,0.55 1.433,1.005 1.731,1.011 0.298,0.006 1.249,0.546 2.113,1.2 0.864,0.654 1.868,1.189 2.231,1.189 0.362,0 1.065,0.433 1.562,0.962 0.497,0.529 1.523,1.078 2.279,1.22 0.756,0.142 1.596,0.613 1.866,1.048 0.27,0.435 1.164,0.972 1.987,1.195 0.823,0.222 1.94,0.847 2.482,1.389 0.542,0.542 1.329,0.986 1.749,0.986 0.42,0 1.442,0.54 2.273,1.2 0.831,0.66 1.729,1.2 1.997,1.2 0.267,0 0.954,0.434 1.527,0.964 0.572,0.531 1.61,1.09 2.307,1.243 0.696,0.153 1.346,0.583 1.443,0.956 0.103,0.391 0.933,0.901 1.963,1.205 0.982,0.29 1.959,0.851 2.171,1.247 0.212,0.396 0.914,0.836 1.561,0.978 0.647,0.142 1.411,0.541 1.698,0.887 0.287,0.346 1.293,0.96 2.236,1.364 0.943,0.404 1.815,0.999 1.939,1.321 0.124,0.322 0.741,0.7 1.373,0.838 0.631,0.139 1.625,0.628 2.21,1.088 1.097,0.863 3.156,2.052 6.032,3.484 0.912,0.453 1.754,1.078 1.873,1.387 0.119,0.309 0.774,0.685 1.456,0.835 0.682,0.15 1.815,0.797 2.516,1.438 0.702,0.641 1.505,1.165 1.784,1.165 0.279,0 0.732,0.36 1.007,0.8 0.275,0.44 0.686,0.8 0.914,0.8 0.433,0 4.167,2.653 5.649,4.014 0.471,0.432 1.016,0.786 1.211,0.786 0.195,0 0.826,0.495 1.402,1.1 0.575,0.605 1.708,1.64 2.518,2.3 0.809,0.66 1.863,1.584 2.342,2.052 0.479,0.469 1.842,1.702 3.029,2.74 1.187,1.038 3.487,3.445 5.112,5.348 1.625,1.903 3.399,3.912 3.942,4.464 0.543,0.553 0.988,1.207 0.988,1.454 0,0.248 0.45,0.745 1,1.105 0.55,0.361 1,0.895 1,1.187 0,0.292 0.54,1.096 1.2,1.787 0.66,0.691 1.2,1.536 1.2,1.878 0,0.343 0.423,1.02 0.941,1.504 0.517,0.485 1.156,1.54 1.419,2.346 0.263,0.805 0.736,1.563 1.049,1.683 0.314,0.121 0.781,1.052 1.037,2.07 0.256,1.017 0.694,1.938 0.973,2.045 0.536,0.205 1.146,1.563 1.573,3.505 0.142,0.643 0.592,1.593 1,2.112 0.408,0.519 0.869,1.696 1.024,2.615 0.155,0.919 0.694,2.308 1.198,3.088 0.503,0.779 1.041,2.386 1.195,3.57 0.155,1.184 0.626,2.739 1.049,3.455 0.596,1.011 0.859,2.63 1.177,7.247 0.224,3.27 0.549,7.083 0.72,8.474 0.216,1.745 0.147,3.167 -0.221,4.587 -0.294,1.132 -0.536,3.144 -0.538,4.471 -0.007,3.35 -0.373,5.238 -1.188,6.112 -0.383,0.411 -0.897,1.891 -1.143,3.289 -0.246,1.398 -0.79,2.918 -1.207,3.377 -0.418,0.459 -0.881,1.52 -1.031,2.357 -0.153,0.86 -0.697,1.892 -1.249,2.372 -0.538,0.468 -0.978,1.243 -0.978,1.723 0,0.48 -0.54,1.552 -1.2,2.383 -0.66,0.831 -1.2,1.776 -1.2,2.102 0,0.326 -0.54,1.207 -1.2,1.959 -0.66,0.752 -1.2,1.629 -1.2,1.95 0,0.32 -0.373,0.809 -0.829,1.086 -0.456,0.276 -1.077,1.088 -1.379,1.803 -0.303,0.715 -0.808,1.3 -1.122,1.3 -0.313,0 -0.675,0.525 -0.803,1.167 -0.219,1.095 -1.049,2.224 -3.5,4.763 -0.569,0.588 -1.25,1.475 -1.515,1.97 -0.264,0.495 -0.699,0.901 -0.966,0.903 -0.267,10e-4 -0.793,0.541 -1.167,1.2 -0.375,0.658 -0.931,1.197 -1.236,1.197 -0.305,0 -0.76,0.45 -1.01,1 -0.251,0.55 -0.633,1 -0.85,1 -0.49,0 -11.63,11.141 -12.562,12.562 -0.374,0.571 -0.933,1.038 -1.243,1.038 -0.31,0 -0.678,0.36 -0.818,0.8 -0.14,0.441 -0.644,1.009 -1.119,1.264 -0.476,0.255 -1.197,0.884 -1.602,1.4 -0.406,0.515 -0.925,0.936 -1.155,0.936 -0.23,0 -1.033,0.54 -1.785,1.2 -0.752,0.66 -1.722,1.2 -2.156,1.2 -0.433,0 -1.172,0.441 -1.641,0.98 -0.468,0.539 -1.412,1.103 -2.097,1.253 -0.685,0.149 -1.63,0.686 -2.102,1.193 -0.471,0.507 -1.551,1.051 -2.4,1.209 -0.848,0.158 -1.778,0.619 -2.065,1.025 -0.287,0.405 -1.249,0.854 -2.137,0.996 -0.888,0.142 -2.102,0.667 -2.696,1.168 -0.594,0.5 -1.793,1.036 -2.663,1.192 -0.87,0.156 -1.966,0.632 -2.435,1.059 -0.535,0.487 -1.914,0.934 -3.695,1.198 -2.891,0.429 -3.354,0.851 -1.36,1.24 2.494,0.486 21.983,-0.339 22.964,-0.972 1.329,-0.858 2.446,-1.121 6.482,-1.529 2.248,-0.227 3.794,-0.589 4.241,-0.993 0.387,-0.35 1.873,-0.881 3.304,-1.18 1.43,-0.3 3.032,-0.824 3.559,-1.166 0.527,-0.341 1.858,-0.836 2.958,-1.098 1.1,-0.262 2.18,-0.695 2.4,-0.962 0.22,-0.267 1.345,-0.798 2.5,-1.181 1.155,-0.383 2.1,-0.838 2.1,-1.011 0,-0.173 0.855,-0.699 1.9,-1.17 1.823,-0.821 3.099,-1.628 6.064,-3.835 0.751,-0.559 1.573,-1.016 1.828,-1.016 0.255,0 0.855,-0.45 1.333,-1 0.478,-0.55 1.142,-1 1.475,-1 0.333,0 0.985,-0.437 1.449,-0.971 0.465,-0.534 1.364,-1.186 1.998,-1.448 0.634,-0.263 1.153,-0.714 1.153,-1.003 0,-0.288 0.338,-0.631 0.75,-0.762 0.665,-0.211 2.064,-1.348 4.664,-3.79 0.448,-0.421 1.301,-0.986 1.895,-1.257 0.594,-0.271 1.356,-0.915 1.695,-1.431 0.338,-0.516 0.86,-0.938 1.159,-0.938 0.3,0 0.831,-0.436 1.18,-0.97 0.35,-0.533 0.981,-1.079 1.403,-1.213 0.422,-0.134 0.86,-0.595 0.972,-1.025 0.113,-0.43 0.657,-0.954 1.209,-1.164 0.553,-0.21 1.122,-0.752 1.266,-1.205 0.143,-0.453 0.422,-0.823 0.619,-0.823 0.197,0 1.452,-1.08 2.788,-2.4 1.336,-1.32 2.591,-2.4 2.788,-2.4 0.197,0 0.464,-0.333 0.593,-0.739 0.129,-0.407 0.681,-0.943 1.227,-1.192 0.545,-0.248 0.992,-0.67 0.992,-0.937 0,-0.267 0.99,-1.43 2.2,-2.583 1.21,-1.153 2.2,-2.227 2.2,-2.387 0,-0.159 0.9,-1.166 2,-2.237 1.1,-1.072 2,-2.047 2,-2.168 0,-0.121 1.125,-1.546 2.5,-3.167 1.375,-1.621 3.04,-3.693 3.7,-4.605 0.66,-0.912 1.56,-2.047 2,-2.521 0.44,-0.475 1.143,-1.539 1.563,-2.364 0.42,-0.825 0.91,-1.5 1.09,-1.5 0.179,0 0.628,-0.585 0.996,-1.3 0.369,-0.715 1.003,-1.535 1.411,-1.823 0.407,-0.287 0.74,-0.756 0.74,-1.041 0,-0.286 0.433,-0.986 0.962,-1.558 0.53,-0.571 1.166,-1.655 1.415,-2.41 0.249,-0.754 0.789,-1.675 1.198,-2.046 0.41,-0.371 0.861,-1.287 1.001,-2.037 0.141,-0.749 0.589,-1.595 0.996,-1.88 0.407,-0.285 0.972,-1.291 1.254,-2.235 0.283,-0.945 0.827,-1.884 1.208,-2.088 0.405,-0.217 0.808,-1.083 0.967,-2.077 0.15,-0.938 0.693,-2.335 1.206,-3.105 0.514,-0.77 1.058,-2.257 1.21,-3.305 0.151,-1.047 0.607,-2.326 1.012,-2.841 0.467,-0.594 0.957,-2.416 1.343,-4.992 0.339,-2.269 0.919,-4.535 1.317,-5.142 1.018,-1.555 1.058,-20.031 0.048,-21.92 -0.742,-1.387 -0.997,-2.824 -1.51,-8.538 -0.262,-2.909 -0.572,-4.36 -1.045,-4.882 -0.41,-0.453 -0.85,-2.062 -1.127,-4.122 -0.287,-2.13 -0.713,-3.663 -1.155,-4.149 -0.384,-0.424 -0.905,-1.837 -1.157,-3.14 -0.251,-1.303 -0.806,-2.756 -1.233,-3.23 -0.427,-0.473 -0.879,-1.643 -1.005,-2.6 -0.126,-0.956 -0.628,-2.279 -1.115,-2.939 -0.487,-0.66 -1.008,-1.72 -1.159,-2.355 -0.15,-0.635 -0.714,-1.732 -1.252,-2.437 -0.539,-0.706 -0.979,-1.639 -0.979,-2.075 0,-0.435 -0.535,-1.498 -1.189,-2.362 -0.654,-0.864 -1.194,-1.858 -1.2,-2.209 -0.006,-0.351 -0.396,-0.981 -0.866,-1.4 -0.471,-0.419 -1.108,-1.302 -1.418,-1.962 -0.614,-1.312 -2.127,-3.609 -3.08,-4.679 -0.332,-0.373 -0.91,-1.273 -1.283,-2 -0.373,-0.726 -1.103,-1.717 -1.621,-2.202 -0.519,-0.484 -0.943,-1.147 -0.943,-1.473 0,-0.326 -0.36,-0.706 -0.8,-0.846 -0.44,-0.14 -0.8,-0.419 -0.8,-0.62 0,-0.201 -0.495,-0.924 -1.1,-1.605 -0.605,-0.682 -1.91,-2.155 -2.9,-3.273 -3.441,-3.887 -13.012,-13.102 -13.609,-13.102 -0.185,0 -0.451,-0.36 -0.591,-0.799 -0.139,-0.44 -0.704,-0.912 -1.256,-1.051 -0.551,-0.138 -1.165,-0.679 -1.363,-1.201 -0.199,-0.522 -0.648,-0.949 -0.998,-0.949 -0.588,0 -1.743,-0.826 -5.175,-3.7 -0.723,-0.605 -1.505,-1.1 -1.738,-1.1 -0.234,0 -0.66,-0.315 -0.947,-0.7 -0.288,-0.385 -1.153,-1.019 -1.923,-1.409 -1.568,-0.794 -3.714,-2.237 -5.163,-3.471 -0.53,-0.451 -1.226,-0.82 -1.548,-0.82 -0.321,0 -1.198,-0.54 -1.95,-1.2 -0.752,-0.66 -1.61,-1.2 -1.907,-1.2 -0.297,0 -0.835,-0.45 -1.195,-1 -0.361,-0.55 -0.987,-1 -1.391,-1 -0.405,0 -1.415,-0.54 -2.246,-1.2 -0.831,-0.66 -1.731,-1.2 -2,-1.2 -0.269,0 -1.169,-0.54 -2,-1.2 -0.831,-0.66 -1.813,-1.2 -2.183,-1.2 -0.37,0 -1.048,-0.432 -1.507,-0.96 -0.46,-0.528 -1.369,-1.077 -2.022,-1.221 -0.653,-0.143 -1.602,-0.701 -2.107,-1.24 -0.506,-0.538 -1.224,-0.979 -1.596,-0.979 -0.371,0 -1.354,-0.54 -2.185,-1.2 -0.831,-0.66 -1.748,-1.2 -2.039,-1.2 -0.291,0 -0.941,-0.428 -1.445,-0.95 -0.504,-0.523 -1.426,-1.07 -2.05,-1.216 -0.624,-0.147 -1.544,-0.709 -2.046,-1.25 -0.501,-0.541 -1.256,-0.984 -1.677,-0.984 -0.42,0 -1.356,-0.54 -2.079,-1.2 -0.722,-0.66 -1.631,-1.2 -2.019,-1.2 -0.388,0 -1.11,-0.43 -1.603,-0.956 -0.494,-0.525 -1.42,-1.06 -2.058,-1.187 -0.637,-0.128 -1.545,-0.618 -2.016,-1.089 -0.471,-0.471 -1.468,-1.026 -2.215,-1.232 -0.747,-0.206 -1.672,-0.709 -2.056,-1.117 -0.383,-0.408 -1.459,-0.945 -2.39,-1.194 -0.931,-0.249 -1.87,-0.782 -2.086,-1.186 -0.216,-0.403 -0.914,-0.838 -1.551,-0.965 -0.637,-0.127 -1.704,-0.691 -2.372,-1.253 -0.667,-0.561 -1.475,-1.021 -1.796,-1.021 -0.32,0 -1.374,-0.537 -2.342,-1.193 -0.968,-0.656 -2.047,-1.196 -2.398,-1.2 -0.351,-0.004 -0.939,-0.339 -1.306,-0.745 -0.367,-0.406 -1.398,-0.979 -2.291,-1.273 -0.892,-0.295 -1.835,-0.818 -2.094,-1.163 -0.259,-0.345 -1.191,-0.873 -2.071,-1.174 -0.88,-0.301 -1.96,-0.863 -2.4,-1.247 -0.44,-0.385 -1.281,-0.814 -1.869,-0.952 -0.588,-0.139 -1.578,-0.675 -2.2,-1.192 -0.622,-0.517 -1.631,-1.061 -2.241,-1.21 -0.611,-0.149 -1.461,-0.622 -1.89,-1.051 -0.429,-0.429 -1.279,-0.898 -1.89,-1.042 -0.61,-0.145 -1.478,-0.596 -1.927,-1.002 -0.45,-0.407 -1.44,-0.952 -2.2,-1.212 -0.761,-0.259 -1.892,-0.893 -2.514,-1.408 -0.622,-0.515 -1.373,-0.936 -1.669,-0.936 -0.296,0 -1.047,-0.421 -1.669,-0.936 -0.622,-0.515 -1.744,-1.145 -2.494,-1.401 -0.75,-0.256 -1.593,-0.793 -1.873,-1.193 -0.28,-0.4 -1.241,-0.946 -2.137,-1.215 -0.895,-0.268 -1.627,-0.666 -1.627,-0.885 0,-0.219 -0.814,-0.747 -1.808,-1.174 -0.995,-0.426 -1.908,-1.032 -2.028,-1.346 -0.121,-0.314 -0.837,-0.687 -1.592,-0.829 -0.756,-0.142 -1.778,-0.678 -2.273,-1.193 -0.494,-0.514 -1.587,-1.154 -2.427,-1.422 -0.84,-0.268 -1.621,-0.73 -1.735,-1.027 -0.114,-0.297 -0.821,-0.743 -1.571,-0.99 -0.75,-0.248 -1.589,-0.767 -1.865,-1.155 -0.275,-0.388 -1.012,-0.831 -1.635,-0.986 -0.624,-0.154 -1.554,-0.7 -2.067,-1.212 -0.512,-0.513 -1.367,-1.042 -1.899,-1.175 -0.532,-0.134 -1.652,-0.787 -2.489,-1.452 -0.836,-0.665 -1.76,-1.209 -2.052,-1.209 -0.292,0 -0.717,-0.348 -0.945,-0.773 -0.227,-0.425 -0.818,-0.9 -1.314,-1.056 -0.495,-0.156 -1.526,-0.799 -2.291,-1.428 -0.765,-0.628 -1.61,-1.143 -1.877,-1.143 -0.268,0 -0.722,-0.318 -1.009,-0.706 -0.288,-0.389 -1.044,-0.937 -1.682,-1.218 -1.159,-0.513 -2.298,-1.312 -4.809,-3.376 -0.735,-0.605 -1.514,-1.1 -1.73,-1.1 -0.216,0 -1.071,-0.54 -1.902,-1.2 -0.831,-0.66 -1.751,-1.2 -2.046,-1.2 -0.294,0 -0.819,-0.433 -1.166,-0.962 -0.346,-0.529 -1.059,-1.069 -1.582,-1.201 -0.524,-0.131 -1.067,-0.598 -1.206,-1.038 -0.14,-0.439 -0.501,-0.799 -0.803,-0.799 -0.555,0 -3.547,-2.313 -5.412,-4.182 -0.558,-0.56 -1.227,-1.018 -1.486,-1.018 -0.259,0 -0.668,-0.369 -0.909,-0.819 -0.241,-0.451 -0.895,-0.993 -1.453,-1.205 -0.558,-0.212 -1.104,-0.728 -1.214,-1.147 -0.109,-0.419 -0.601,-0.862 -1.092,-0.986 -0.492,-0.123 -1.101,-0.678 -1.354,-1.233 -0.253,-0.556 -0.738,-1.01 -1.077,-1.01 -0.339,0 -0.821,-0.447 -1.069,-0.992 -0.249,-0.546 -0.796,-1.102 -1.216,-1.235 -0.42,-0.133 -0.962,-0.677 -1.204,-1.208 -0.241,-0.531 -0.684,-0.965 -0.984,-0.965 -0.299,0 -0.748,-0.447 -0.997,-0.994 -0.249,-0.547 -0.876,-1.271 -1.392,-1.61 -0.516,-0.338 -0.938,-0.86 -0.938,-1.159 0,-0.3 -0.45,-0.84 -1,-1.2 -0.55,-0.361 -1,-0.888 -1,-1.171 0,-0.284 -0.54,-1.034 -1.2,-1.666 -0.66,-0.632 -1.2,-1.448 -1.2,-1.814 0,-0.365 -0.383,-1.096 -0.851,-1.625 -0.468,-0.528 -1.087,-1.515 -1.377,-2.193 -0.289,-0.677 -0.784,-1.446 -1.099,-1.707 -0.315,-0.262 -0.806,-1.328 -1.091,-2.369 -0.285,-1.04 -0.832,-2.302 -1.217,-2.804 -0.384,-0.501 -0.823,-1.671 -0.974,-2.6 -0.152,-0.928 -0.637,-2.282 -1.078,-3.007 -0.569,-0.936 -0.892,-2.444 -1.114,-5.2 -0.171,-2.135 -0.53,-5.35 -0.796,-7.145 -0.373,-2.514 -0.378,-4.215 -0.022,-7.4 0.255,-2.275 0.621,-5.605 0.813,-7.401 0.192,-1.796 0.615,-3.779 0.939,-4.405 0.324,-0.627 0.816,-2.292 1.093,-3.7 0.277,-1.408 0.802,-2.858 1.167,-3.223 0.364,-0.364 0.896,-1.496 1.181,-2.515 0.285,-1.018 0.858,-2.159 1.272,-2.534 0.415,-0.375 0.754,-1.068 0.754,-1.54 0,-0.895 2.77,-5.49 4.059,-6.734 0.407,-0.393 0.741,-0.926 0.741,-1.185 0,-0.258 0.448,-0.926 0.996,-1.484 2.042,-2.08 2.949,-3.211 3.194,-3.983 0.319,-1.005 9.298,-9.609 10.507,-10.069 0.497,-0.189 0.903,-0.614 0.903,-0.945 0,-0.332 0.441,-0.713 0.979,-0.848 0.538,-0.136 1.252,-0.663 1.586,-1.173 0.335,-0.51 1.131,-1.042 1.771,-1.183 0.64,-0.141 1.578,-0.696 2.083,-1.235 0.506,-0.538 1.217,-0.979 1.579,-0.979 0.362,0 1.252,-0.53 1.978,-1.179 0.727,-0.648 1.839,-1.292 2.472,-1.432 0.634,-0.139 1.152,-0.427 1.152,-0.641 0,-0.507 2.505,-1.548 3.725,-1.548 0.523,0 1.261,-0.343 1.641,-0.762 0.4,-0.443 1.767,-0.976 3.262,-1.273 1.414,-0.282 2.572,-0.639 2.572,-0.796 0,-0.426 1.067,-0.794 4.6,-1.588 1.76,-0.395 4.184,-1.003 5.387,-1.35 1.203,-0.347 3.183,-0.632 4.4,-0.634 1.217,-0.002 4.193,-0.269 6.613,-0.593 5.118,-0.685 12.957,-0.776 16.4,-0.192 1.32,0.224 5.132,0.569 8.471,0.765 4.173,0.246 6.505,0.564 7.458,1.016 0.762,0.362 2.837,0.89 4.609,1.174 1.773,0.284 3.646,0.793 4.162,1.131 0.516,0.338 2.162,0.805 3.658,1.038 1.496,0.233 3.167,0.716 3.713,1.074 0.546,0.358 2.008,0.915 3.248,1.238 1.24,0.323 2.582,0.939 2.983,1.369 0.441,0.474 1.254,0.783 2.058,0.783 0.764,0 1.966,0.433 2.83,1.019 0.826,0.561 2.066,1.13 2.756,1.265 0.69,0.134 1.794,0.645 2.454,1.134 0.66,0.489 1.65,1.021 2.2,1.182 0.55,0.16 1.36,0.609 1.8,0.997 0.44,0.387 1.474,0.92 2.299,1.184 0.824,0.264 1.724,0.797 2,1.185 0.275,0.388 1.03,0.836 1.677,0.996 1.128,0.279 2.4,1.163 5.095,3.538 0.686,0.605 1.493,1.1 1.792,1.1 0.299,0 1.109,0.54 1.8,1.2 0.691,0.66 1.495,1.2 1.787,1.2 0.292,0 0.826,0.45 1.187,1 0.36,0.55 0.906,1 1.213,1 0.306,0 1.076,0.495 1.709,1.1 0.633,0.605 2.92,2.72 5.082,4.7 6.502,5.954 10.559,10.433 10.559,11.655 0,0.3 0.264,0.545 0.586,0.545 0.322,0 0.799,0.405 1.059,0.9 0.26,0.495 1.347,1.916 2.416,3.157 1.069,1.242 2.215,2.907 2.547,3.7 0.331,0.794 0.79,1.443 1.018,1.443 0.228,0 0.693,0.675 1.033,1.5 0.34,0.825 0.94,1.86 1.333,2.3 0.394,0.44 0.851,1.25 1.017,1.8 0.165,0.55 0.711,1.491 1.212,2.09 0.501,0.6 1.038,1.669 1.193,2.375 0.156,0.707 0.621,1.566 1.035,1.91 0.415,0.344 0.906,1.459 1.092,2.479 0.186,1.019 0.703,2.369 1.149,3 0.446,0.63 0.94,1.776 1.098,2.546 0.158,0.77 0.701,2.03 1.206,2.8 0.506,0.77 1.044,2.12 1.196,3 0.153,0.88 0.507,1.87 0.787,2.2 0.707,0.832 1.423,3.09 1.423,4.484 0,0.641 0.44,2.099 0.977,3.241 0.537,1.141 1.1,3.065 1.25,4.275 0.15,1.21 0.617,2.773 1.039,3.473 0.471,0.784 0.933,2.706 1.2,5 0.238,2.05 0.702,4.252 1.029,4.895 0.328,0.642 0.835,3.108 1.128,5.48 0.31,2.504 0.809,4.735 1.192,5.319 0.461,0.703 0.718,2.243 0.856,5.119 0.338,7.034 0.412,7.114 6.57,7.114 4.896,0 4.376,9.645 4.26,-79.031 L 316.2,57.4 h -5.2 -5.2 l -0.229,2.662 c -0.126,1.464 -0.515,3.098 -0.864,3.631 -0.349,0.533 -0.92,1.93 -1.269,3.105 -0.349,1.174 -0.882,2.42 -1.186,2.769 -0.303,0.348 -0.78,1.353 -1.059,2.233 -0.28,0.88 -0.928,2.14 -1.441,2.8 -1.903,2.45 -4.361,5 -4.818,5 -0.26,0 -0.997,0.441 -1.638,0.981 -0.765,0.644 -2.031,1.12 -3.684,1.386 -1.386,0.223 -2.824,0.682 -3.197,1.019 -0.907,0.821 -7.078,0.866 -8.228,0.06 -0.435,-0.305 -2.14,-0.76 -3.789,-1.011 -1.757,-0.268 -3.458,-0.792 -4.109,-1.266 -0.611,-0.445 -2.051,-0.91 -3.2,-1.034 -1.149,-0.124 -2.719,-0.627 -3.489,-1.118 -0.77,-0.49 -2.346,-1.118 -3.503,-1.395 -1.156,-0.277 -2.254,-0.773 -2.438,-1.103 -0.185,-0.329 -1.208,-0.762 -2.274,-0.961 -1.066,-0.2 -2.309,-0.707 -2.762,-1.128 -0.452,-0.421 -1.543,-0.889 -2.423,-1.041 -0.88,-0.152 -2.23,-0.694 -3,-1.205 -0.77,-0.51 -2.12,-1.048 -3,-1.194 -0.88,-0.145 -2.05,-0.577 -2.6,-0.96 -0.55,-0.382 -2.133,-0.915 -3.517,-1.186 -1.384,-0.27 -3.094,-0.821 -3.8,-1.225 -0.706,-0.403 -2.099,-0.848 -3.096,-0.988 -0.997,-0.14 -2.433,-0.631 -3.19,-1.091 -0.773,-0.471 -2.594,-0.99 -4.156,-1.186 -1.528,-0.192 -3.544,-0.72 -4.479,-1.172 -0.997,-0.483 -2.911,-0.917 -4.631,-1.049 -1.685,-0.13 -3.866,-0.618 -5.131,-1.148 -1.715,-0.72 -3.478,-1.01 -8,-1.316 -3.74,-0.253 -6.439,-0.642 -7.6,-1.095 -1.741,-0.68 -26.584,-1.233 -31.8,-0.709"
       id="path0" />
    <path
       fill-rule="evenodd"
       fill="#00919e"
       stroke="none"
       d="m 128.402,344.737 c -0.626,0.625 -1.332,1.862 -1.571,2.748 -0.239,0.886 -0.778,2.049 -1.199,2.584 -0.422,0.535 -0.891,1.641 -1.044,2.456 -0.153,0.815 -0.592,1.885 -0.975,2.378 -0.383,0.494 -0.926,1.617 -1.205,2.497 -0.28,0.88 -0.738,1.87 -1.017,2.2 -0.279,0.33 -0.809,1.5 -1.178,2.6 -0.369,1.1 -0.909,2.27 -1.2,2.6 -0.291,0.33 -0.818,1.461 -1.171,2.514 -0.353,1.053 -0.894,2.313 -1.203,2.8 -0.308,0.487 -0.689,1.516 -0.846,2.286 -0.156,0.77 -0.737,2.48 -1.289,3.8 -1.13,2.701 -1.115,7.756 0.035,11.413 0.314,0.998 0.79,3.505 1.059,5.573 0.269,2.068 0.749,4.492 1.068,5.387 0.318,0.895 0.847,3.157 1.176,5.027 0.328,1.87 0.852,3.789 1.163,4.264 0.311,0.475 0.739,1.941 0.952,3.258 0.212,1.318 0.754,3.269 1.204,4.337 0.451,1.067 1.014,2.841 1.251,3.941 0.238,1.1 0.686,2.388 0.995,2.863 0.31,0.474 0.776,1.734 1.037,2.8 0.261,1.065 0.897,2.673 1.415,3.572 0.518,0.899 0.942,1.889 0.943,2.2 0,0.311 0.54,1.645 1.198,2.965 0.658,1.32 1.198,2.654 1.198,2.965 0.001,0.311 0.428,1.301 0.948,2.2 0.52,0.899 1.167,2.319 1.438,3.156 0.765,2.367 1.423,1.61 1.367,-1.572 -0.033,-1.844 -0.322,-3.37 -0.863,-4.56 -0.512,-1.125 -0.98,-3.461 -1.262,-6.293 -0.247,-2.478 -0.645,-4.998 -0.885,-5.6 -0.925,-2.327 -1.146,-4.193 -1.551,-13.077 -0.468,-10.261 0.027,-21.199 1.086,-24.019 0.331,-0.88 0.927,-3.335 1.324,-5.455 0.398,-2.121 0.997,-4.281 1.333,-4.8 0.335,-0.52 0.806,-2.377 1.046,-4.126 0.239,-1.75 0.719,-3.614 1.066,-4.143 0.346,-0.529 0.878,-2.497 1.182,-4.373 0.303,-1.876 0.826,-3.83 1.162,-4.342 0.335,-0.512 0.783,-2.153 0.995,-3.646 0.213,-1.493 0.592,-3.303 0.843,-4.022 0.662,-1.896 0.19,-3.203 -1.438,-3.979 -0.764,-0.364 -1.389,-0.818 -1.389,-1.008 0,-0.191 -0.585,-0.595 -1.3,-0.899 -0.715,-0.303 -1.92,-1.014 -2.678,-1.579 -1.72,-1.284 -1.832,-1.28 -3.22,0.109 m 31.757,-0.002 c -0.637,0.624 -2.239,2.377 -3.559,3.895 -1.32,1.519 -2.895,3.24 -3.5,3.826 -0.605,0.586 -1.1,1.223 -1.1,1.415 0,0.193 -0.495,0.828 -1.1,1.412 -0.605,0.584 -1.581,1.659 -2.169,2.389 -0.588,0.73 -2.703,3.246 -4.7,5.589 -1.997,2.344 -3.631,4.437 -3.631,4.651 0,0.215 -0.289,0.63 -0.642,0.923 -0.987,0.819 -1.293,1.98 -1.751,6.652 -0.232,2.372 -0.706,6.173 -1.054,8.446 -0.799,5.23 -1.024,28.561 -0.29,30.098 0.254,0.533 0.764,2.859 1.132,5.169 1.227,7.688 1.715,7.41 2.175,-1.241 0.228,-4.283 0.535,-6.646 1.008,-7.759 0.374,-0.88 0.94,-3.19 1.258,-5.134 0.318,-1.943 0.838,-4.036 1.155,-4.649 0.318,-0.614 0.773,-2.354 1.012,-3.867 0.239,-1.512 0.876,-3.861 1.415,-5.218 0.54,-1.358 0.982,-2.768 0.982,-3.133 0,-0.668 1.958,-5.522 2.989,-7.412 0.304,-0.557 0.835,-2.23 1.18,-3.718 0.346,-1.488 0.962,-3.372 1.369,-4.187 2.844,-5.681 3.617,-6.908 5.562,-8.818 1.196,-1.175 2.766,-2.383 3.489,-2.685 3.652,-1.526 4.613,-7.882 2.173,-14.379 -1.439,-3.832 -1.655,-3.976 -3.403,-2.265 M 188.4,351.8 c -0.745,0.55 -1.522,1 -1.725,1 -0.203,0 -0.952,0.495 -1.663,1.1 -1.302,1.107 -2.851,2.103 -5.292,3.403 -0.726,0.387 -1.32,0.86 -1.32,1.052 0,0.191 -0.546,0.574 -1.213,0.85 -0.667,0.277 -1.861,1.018 -2.655,1.649 -0.793,0.63 -1.659,1.146 -1.925,1.146 -0.266,0 -0.8,0.35 -1.186,0.777 -0.387,0.428 -1.209,0.889 -1.825,1.024 -0.617,0.135 -1.732,0.838 -2.477,1.562 -0.745,0.723 -1.527,1.388 -1.739,1.476 -0.759,0.317 -4.46,4.986 -4.964,6.261 -0.282,0.715 -0.652,1.3 -0.821,1.3 -0.17,0 -0.431,0.495 -0.581,1.1 -0.151,0.605 -0.8,2.419 -1.444,4.03 -0.643,1.612 -1.172,3.322 -1.174,3.8 -0.002,0.479 -0.46,1.851 -1.019,3.05 -0.558,1.199 -1.123,2.999 -1.256,4 -0.133,1.001 -0.641,2.72 -1.129,3.82 -0.489,1.1 -0.999,2.739 -1.135,3.642 -0.136,0.902 -0.681,2.612 -1.211,3.8 -0.559,1.252 -1.076,3.38 -1.23,5.069 -0.147,1.601 -0.615,3.924 -1.041,5.163 -0.814,2.366 -1.108,8.526 -0.406,8.526 0.203,0 0.591,-0.674 0.863,-1.498 0.272,-0.824 0.916,-2.291 1.431,-3.26 0.516,-0.968 0.937,-2.029 0.937,-2.357 0,-0.631 2.475,-5.728 4.411,-9.085 0.634,-1.1 1.433,-2.63 1.774,-3.4 0.342,-0.77 0.887,-1.85 1.211,-2.4 0.324,-0.55 0.882,-1.63 1.239,-2.4 0.357,-0.77 1.621,-2.422 2.807,-3.67 1.187,-1.249 2.158,-2.552 2.158,-2.897 0,-0.562 1.939,-3.479 3.346,-5.033 0.299,-0.33 0.752,-1.001 1.008,-1.491 0.256,-0.49 0.865,-1.317 1.355,-1.837 0.49,-0.52 1.701,-2.099 2.691,-3.509 2.357,-3.357 7.47,-8.488 9.218,-9.251 2.678,-1.169 4.605,-1.873 6.782,-2.477 4.245,-1.177 6.287,-5.561 4.158,-8.925 -0.309,-0.489 -0.822,-1.886 -1.14,-3.104 -0.907,-3.482 -1.438,-3.762 -3.818,-2.006 m -92.824,2.863 c -0.209,0.551 -0.586,1.842 -0.836,2.869 -0.25,1.028 -0.6,2.155 -0.778,2.505 -0.177,0.35 -0.61,3.929 -0.961,7.953 -0.351,4.024 -0.876,8.573 -1.167,10.11 -0.365,1.93 -0.411,3.244 -0.15,4.247 0.208,0.799 0.693,3.01 1.077,4.912 0.385,1.903 0.997,3.756 1.359,4.118 0.362,0.362 0.861,1.41 1.108,2.327 0.247,0.917 0.762,2.066 1.145,2.552 0.383,0.487 1.01,1.708 1.394,2.715 0.385,1.006 0.857,1.829 1.05,1.829 0.193,0 0.569,0.765 0.835,1.7 0.266,0.935 0.791,2.06 1.167,2.5 0.375,0.44 0.907,1.52 1.181,2.4 0.274,0.88 0.816,1.96 1.203,2.4 0.388,0.44 0.838,1.25 1.001,1.8 0.164,0.55 0.814,1.71 1.446,2.579 0.633,0.868 1.15,1.782 1.15,2.03 0,0.248 0.45,0.874 1,1.391 0.55,0.517 1,1.154 1,1.416 0,0.262 0.341,0.909 0.757,1.438 0.416,0.53 1.091,1.517 1.5,2.194 0.781,1.295 1.402,2.258 3.601,5.581 0.738,1.116 1.342,2.222 1.342,2.457 0,0.236 0.269,0.532 0.598,0.658 0.329,0.126 0.888,0.955 1.243,1.843 0.359,0.895 0.917,1.613 1.255,1.613 0.934,0 0.394,-2.939 -0.8,-4.359 -0.54,-0.642 -1.098,-1.894 -1.24,-2.784 -0.143,-0.889 -0.604,-2.21 -1.027,-2.937 -0.422,-0.726 -0.893,-2.22 -1.047,-3.32 -0.154,-1.1 -0.69,-2.9 -1.19,-4 -0.5,-1.1 -1.03,-2.858 -1.176,-3.907 -0.147,-1.049 -0.626,-2.719 -1.066,-3.712 -0.439,-0.993 -0.975,-2.904 -1.192,-4.247 -0.216,-1.342 -0.666,-2.969 -1,-3.615 -0.334,-0.646 -0.864,-2.517 -1.178,-4.157 -0.314,-1.641 -0.839,-3.503 -1.167,-4.137 -1.987,-3.843 -1.783,-15.777 0.339,-19.812 0.884,-1.681 1.293,-13.276 0.558,-15.813 -0.439,-1.514 -2.559,-2.687 -5.431,-3.005 -1.386,-0.153 -3.421,-0.516 -4.521,-0.806 -1.977,-0.522 -2.006,-0.516 -2.382,0.474 m 115.093,11.725 c -1.283,0.41 -2.633,1.015 -3,1.346 -0.368,0.33 -2.069,0.794 -3.779,1.031 -1.711,0.236 -3.518,0.697 -4.015,1.023 -0.498,0.326 -2.249,0.855 -3.89,1.176 -1.642,0.321 -3.705,0.932 -4.585,1.357 -0.88,0.426 -2.281,0.897 -3.112,1.047 -2.295,0.414 -5.101,2.552 -7.23,5.509 -0.366,0.508 -1.29,1.733 -2.054,2.723 -0.763,0.99 -1.687,2.34 -2.052,3 -0.365,0.66 -1.013,1.56 -1.44,2 -1.042,1.075 -2.577,3.328 -3.276,4.808 -0.313,0.665 -0.945,1.547 -1.403,1.962 -0.458,0.415 -0.833,0.974 -0.833,1.243 0,0.269 -0.284,0.725 -0.631,1.013 -0.347,0.288 -1.07,1.39 -1.607,2.449 -0.536,1.059 -1.122,1.925 -1.301,1.925 -0.179,0 -0.573,0.495 -0.875,1.1 -0.302,0.605 -0.844,1.46 -1.203,1.9 -0.359,0.44 -0.896,1.43 -1.191,2.2 -0.296,0.77 -0.839,1.797 -1.208,2.281 -0.368,0.485 -0.898,1.696 -1.177,2.693 -0.279,0.996 -0.754,2.016 -1.057,2.267 -0.616,0.512 -0.756,2.359 -0.178,2.359 0.205,0 0.43,-0.405 0.5,-0.9 0.081,-0.572 0.449,-0.946 1.009,-1.025 0.488,-0.07 1.003,-0.516 1.154,-1 0.15,-0.481 0.789,-1.466 1.419,-2.189 0.63,-0.723 1.146,-1.461 1.146,-1.641 0,-0.31 0.964,-1.468 3.604,-4.328 0.652,-0.705 1.533,-1.469 1.959,-1.697 0.426,-0.228 1.014,-0.647 1.306,-0.931 0.292,-0.283 1.161,-0.947 1.931,-1.474 0.77,-0.528 1.67,-1.197 2,-1.488 0.33,-0.291 1.41,-1.171 2.4,-1.955 0.99,-0.784 2.7,-2.213 3.8,-3.175 1.996,-1.746 4.941,-4.04 6.157,-4.797 0.354,-0.22 1.123,-0.85 1.709,-1.4 0.586,-0.55 1.729,-1.54 2.54,-2.2 0.81,-0.66 1.782,-1.47 2.16,-1.8 3.597,-3.146 7.396,-4.787 11.129,-4.809 9.149,-0.052 11.791,-2.104 10.074,-7.824 -1.516,-5.052 -1.341,-4.916 -4.9,-3.779 m -4.069,18.465 c -3.009,0.377 -6.304,1.578 -7.605,2.77 -0.443,0.407 -1.478,1.02 -2.3,1.363 -0.822,0.344 -1.495,0.806 -1.495,1.028 0,0.222 -0.495,0.617 -1.1,0.879 -0.605,0.261 -1.688,0.975 -2.407,1.585 -0.719,0.611 -1.748,1.221 -2.286,1.356 -0.538,0.135 -1.087,0.588 -1.22,1.006 -0.132,0.418 -0.401,0.76 -0.598,0.76 -0.465,0 -8.151,7.396 -14.445,13.9 l -0.871,0.9 h 1.615 c 1.007,0 1.818,-0.246 2.157,-0.655 0.299,-0.36 1.266,-0.996 2.149,-1.414 0.883,-0.417 2.686,-1.381 4.006,-2.142 1.32,-0.76 2.954,-1.644 3.632,-1.963 0.677,-0.319 1.457,-0.851 1.732,-1.182 0.275,-0.332 1.16,-0.821 1.966,-1.087 0.806,-0.266 2.259,-0.905 3.228,-1.42 0.968,-0.516 2.049,-0.943 2.402,-0.95 0.352,-0.006 1.715,-0.546 3.03,-1.2 1.314,-0.653 2.733,-1.187 3.153,-1.187 0.419,0 1.349,-0.362 2.066,-0.805 0.717,-0.443 2.358,-0.99 3.647,-1.214 1.289,-0.225 3.064,-0.808 3.944,-1.295 1.791,-0.992 6.839,-1.165 14.812,-0.509 l 4.011,0.33 0.489,-1.073 c 0.268,-0.589 0.492,-1.648 0.498,-2.353 0.005,-0.704 0.195,-2.086 0.422,-3.07 0.65,-2.823 0.665,-2.819 -11.408,-2.76 -5.733,0.027 -11.684,0.208 -13.224,0.402 M 73,386.652 c -9.976,0.625 -10.283,1.169 -8.219,14.548 0.476,3.09 1.097,11.303 1.421,18.8 0.128,2.97 0.486,7.02 0.795,9 0.309,1.98 0.759,7.2 1,11.6 0.455,8.313 0.915,13.881 1.573,19 0.211,1.65 0.586,6.96 0.833,11.8 0.246,4.84 0.708,10.597 1.026,12.792 0.317,2.196 0.753,7.326 0.969,11.4 0.559,10.591 0.779,13.324 1.421,17.618 0.313,2.096 0.757,7.676 0.987,12.4 0.23,4.725 0.523,9.175 0.652,9.89 l 0.233,1.3 h 2.457 c 1.352,0 3.086,-0.18 3.855,-0.401 0.768,-0.221 2.927,-0.587 4.797,-0.815 4.591,-0.558 4.693,-0.603 5.657,-2.513 0.979,-1.939 1.187,-2.2 3.884,-4.871 3.037,-3.008 3.922,-3.562 8.059,-5.041 l 3.8,-1.359 35.2,-0.023 c 34.66,-0.022 36.865,-0.093 39.145,-1.259 0.63,-0.322 2.07,-0.831 3.2,-1.131 1.13,-0.3 2.768,-0.915 3.64,-1.367 0.871,-0.451 1.969,-0.82 2.44,-0.82 0.471,0 1.684,-0.44 2.695,-0.978 1.012,-0.538 2.524,-1.104 3.36,-1.257 0.836,-0.153 2.33,-0.688 3.32,-1.188 0.99,-0.501 2.56,-1.03 3.488,-1.177 0.929,-0.146 2.13,-0.613 2.669,-1.038 0.539,-0.424 1.918,-0.949 3.064,-1.166 1.145,-0.217 2.645,-0.736 3.331,-1.152 0.686,-0.416 2.231,-0.963 3.432,-1.214 1.201,-0.252 2.488,-0.733 2.86,-1.07 0.372,-0.337 1.813,-0.878 3.202,-1.202 1.389,-0.323 2.804,-0.841 3.146,-1.151 0.341,-0.309 1.518,-0.757 2.614,-0.995 5.35,-1.162 3.461,-1.731 -6.806,-2.052 -5.3,-0.165 -10.245,-0.561 -13.4,-1.072 -2.75,-0.446 -6.8,-1.007 -9,-1.247 -2.2,-0.24 -4.792,-0.716 -5.76,-1.057 -0.968,-0.342 -3.202,-0.802 -4.965,-1.023 -1.762,-0.221 -3.541,-0.582 -3.951,-0.802 -0.411,-0.22 -2.4,-0.76 -4.421,-1.201 -2.021,-0.441 -3.873,-0.967 -4.116,-1.169 -0.243,-0.201 -1.869,-0.713 -3.614,-1.136 -1.745,-0.423 -3.713,-1.057 -4.373,-1.409 -0.66,-0.351 -1.475,-0.64 -1.81,-0.642 -0.336,-0.001 -1.686,-0.536 -3,-1.189 -1.315,-0.654 -2.75,-1.201 -3.19,-1.216 -0.44,-0.016 -1.79,-0.562 -3,-1.213 -1.21,-0.651 -2.481,-1.184 -2.825,-1.184 -0.343,0 -1.022,-0.371 -1.509,-0.824 -0.486,-0.453 -1.465,-1.022 -2.175,-1.265 -0.71,-0.243 -1.918,-0.862 -2.684,-1.376 -0.766,-0.514 -1.607,-0.935 -1.869,-0.935 -0.262,0 -0.985,-0.412 -1.607,-0.916 -0.622,-0.503 -1.652,-1.141 -2.29,-1.418 -1.157,-0.502 -2.284,-1.291 -4.809,-3.366 -0.735,-0.605 -1.529,-1.1 -1.762,-1.1 -0.234,0 -0.66,-0.318 -0.947,-0.707 -0.288,-0.389 -0.973,-0.997 -1.523,-1.351 -0.55,-0.355 -1.481,-1.072 -2.069,-1.593 -0.588,-0.522 -1.729,-1.489 -2.535,-2.149 -0.806,-0.66 -4.285,-4.029 -7.731,-7.486 -5.524,-5.543 -7.695,-7.943 -10.357,-11.446 -0.389,-0.513 -1.294,-1.683 -2.011,-2.6 -1.839,-2.354 -1.539,-1.919 -5.415,-7.868 -0.359,-0.55 -1.464,-2.17 -2.456,-3.6 -0.992,-1.43 -1.809,-2.887 -1.815,-3.238 -0.006,-0.351 -0.364,-0.958 -0.796,-1.348 -0.432,-0.391 -0.998,-1.364 -1.258,-2.162 -0.26,-0.799 -0.882,-1.943 -1.381,-2.542 -0.5,-0.6 -1.024,-1.616 -1.165,-2.259 -0.141,-0.642 -0.607,-1.485 -1.035,-1.873 -0.429,-0.388 -0.975,-1.441 -1.215,-2.342 -0.239,-0.9 -0.701,-1.934 -1.026,-2.298 -0.325,-0.364 -0.841,-1.495 -1.148,-2.514 -0.306,-1.018 -0.821,-2.115 -1.144,-2.438 -0.322,-0.322 -0.87,-1.562 -1.216,-2.753 -0.347,-1.192 -0.824,-2.232 -1.062,-2.311 -0.237,-0.079 -0.694,-1.282 -1.015,-2.672 -0.321,-1.391 -0.92,-3.006 -1.33,-3.589 -0.41,-0.584 -0.866,-1.765 -1.013,-2.627 -0.147,-0.861 -0.689,-2.391 -1.204,-3.4 -0.515,-1.008 -1.052,-2.554 -1.193,-3.434 -0.783,-4.873 -2.276,-5.908 -8.01,-5.548 m 139.482,13.177 c -2.265,0.518 -4.557,1.287 -5.094,1.709 -0.538,0.423 -1.951,0.89 -3.142,1.039 -1.352,0.169 -2.424,0.556 -2.854,1.032 -0.379,0.418 -1.342,0.97 -2.14,1.225 -0.799,0.256 -1.812,0.785 -2.252,1.177 -0.44,0.392 -1.565,0.939 -2.5,1.214 -0.935,0.276 -1.7,0.655 -1.7,0.843 0,0.188 -0.945,0.799 -2.1,1.357 -2.819,1.363 -4.802,2.447 -5.358,2.931 -0.253,0.219 -1.063,0.723 -1.8,1.121 -0.738,0.398 -1.792,1.049 -2.342,1.446 -0.55,0.397 -2.177,1.479 -3.616,2.405 -1.439,0.927 -2.879,1.905 -3.2,2.175 -2.106,1.772 -4.098,3.299 -4.322,3.313 -0.814,0.051 -3.581,3.147 -3.748,4.192 -0.105,0.656 -0.115,0.967 -0.023,0.692 0.092,-0.275 0.578,-0.5 1.079,-0.5 1.351,0 3.536,-0.822 4.311,-1.622 0.374,-0.387 1.364,-0.923 2.2,-1.191 0.835,-0.269 1.789,-0.72 2.119,-1.004 0.33,-0.283 1.77,-0.816 3.2,-1.183 1.43,-0.367 2.897,-0.934 3.261,-1.26 0.363,-0.326 1.763,-0.85 3.11,-1.164 1.348,-0.315 2.884,-0.856 3.414,-1.203 0.53,-0.347 2.28,-0.808 3.889,-1.025 1.609,-0.216 3.646,-0.764 4.526,-1.218 1.36,-0.7 2.709,-0.871 9,-1.14 4.29,-0.183 7.904,-0.527 8.6,-0.817 0.803,-0.336 4.841,-0.588 12.2,-0.763 6.05,-0.144 11.27,-0.389 11.6,-0.544 1.504,-0.71 3.311,-4.813 2.938,-6.674 -0.242,-1.21 -0.47,-1.341 -3.119,-1.79 -0.87,-0.148 -2.239,-0.604 -3.042,-1.014 -0.804,-0.41 -2.432,-0.868 -3.619,-1.018 -1.187,-0.15 -3.058,-0.68 -4.158,-1.178 -1.1,-0.498 -3.488,-1.127 -5.307,-1.399 -1.819,-0.271 -3.405,-0.651 -3.524,-0.843 -0.326,-0.528 -1.945,-0.358 -6.487,0.679 M 134,445.976 c 0,0.647 0.167,1.28 0.371,1.406 0.488,0.302 0.917,-1.087 0.595,-1.926 -0.405,-1.057 -0.966,-0.755 -0.966,0.52"
       id="path1" />
  </g>
</svg>
