<?xml version="1.0" encoding="UTF-8" standalone="no"?>
<svg
   xmlns:dc="http://purl.org/dc/elements/1.1/"
   xmlns:cc="http://creativecommons.org/ns#"
   xmlns:rdf="http://www.w3.org/1999/02/22-rdf-syntax-ns#"
   xmlns:svg="http://www.w3.org/2000/svg"
   xmlns="http://www.w3.org/2000/svg"
   xmlns:sodipodi="http://sodipodi.sourceforge.net/DTD/sodipodi-0.dtd"
   xmlns:inkscape="http://www.inkscape.org/namespaces/inkscape"
   inkscape:version="1.0 (6e3e5246a0, 2020-05-07)"
   sodipodi:docname="logohero.inline.svg"
   viewBox="0, 0, 400,86.95652173913044"
   height="86.95652173913044"
   width="400"
   version="1.1"
   id="svg">
  <metadata
     id="metadata10">
    <rdf:RDF>
      <cc:Work
         rdf:about="">
        <dc:format>image/svg+xml</dc:format>
        <dc:type
           rdf:resource="http://purl.org/dc/dcmitype/StillImage" />
        <dc:title></dc:title>
      </cc:Work>
    </rdf:RDF>
  </metadata>
  <defs
     id="defs8" />
  <sodipodi:namedview
     inkscape:current-layer="svgg"
     inkscape:cy="43.47826"
     inkscape:cx="200"
     inkscape:zoom="3.08"
     showgrid="false"
     id="namedview6"
     inkscape:window-height="480"
     inkscape:window-width="640"
     inkscape:pageshadow="2"
     inkscape:pageopacity="0"
     guidetolerance="10"
     gridtolerance="10"
     objecttolerance="10"
     borderopacity="1"
     bordercolor="#666666"
     pagecolor="#ffffff" />
  <g
     id="svgg">
    <path
       fill-rule="evenodd"
       fill="#f7f7f7"
       stroke="none"
       d="M28.167 10.670 C 27.479 10.848,26.594 10.996,26.199 10.997 C 25.805 10.999,25.167 11.142,24.783 11.315 C 24.398 11.488,23.769 11.681,23.385 11.744 C 23.000 11.808,22.403 12.003,22.058 12.180 C 21.712 12.356,21.337 12.500,21.224 12.500 C 21.110 12.500,20.665 12.688,20.234 12.917 C 19.803 13.146,19.349 13.333,19.225 13.333 C 19.101 13.333,19.000 13.399,19.000 13.480 C 19.000 13.560,18.756 13.726,18.458 13.849 C 17.926 14.067,17.142 14.552,16.661 14.960 C 16.527 15.074,15.993 15.507,15.476 15.923 C 14.195 16.952,12.029 19.614,11.751 20.503 C 11.679 20.731,11.481 21.096,11.310 21.314 C 11.140 21.533,11.000 21.841,11.000 22.000 C 11.000 22.159,10.861 22.467,10.690 22.686 C 10.520 22.904,10.325 23.457,10.257 23.914 C 10.190 24.372,10.011 24.972,9.861 25.248 C 9.451 26.003,9.456 31.818,9.868 32.677 C 10.025 33.004,10.203 33.604,10.265 34.011 C 10.327 34.417,10.471 34.862,10.584 35.000 C 10.698 35.137,10.881 35.530,10.991 35.873 C 11.101 36.215,11.265 36.541,11.356 36.597 C 11.446 36.653,11.593 36.861,11.681 37.058 C 11.855 37.446,12.490 38.375,12.959 38.926 C 13.119 39.115,13.438 39.490,13.669 39.759 C 14.654 40.915,17.300 42.810,19.200 43.722 C 19.906 44.061,20.525 44.405,20.576 44.488 C 20.627 44.570,20.987 44.689,21.376 44.752 C 21.765 44.814,22.250 44.971,22.454 45.100 C 22.657 45.229,23.219 45.420,23.702 45.523 C 24.185 45.627,24.731 45.807,24.915 45.923 C 25.099 46.039,25.586 46.189,25.996 46.255 C 26.407 46.321,26.899 46.478,27.091 46.603 C 27.282 46.729,27.808 46.880,28.261 46.939 C 28.713 46.998,29.280 47.146,29.521 47.267 C 29.761 47.388,30.464 47.568,31.083 47.667 C 31.702 47.766,32.405 47.946,32.646 48.067 C 32.887 48.188,33.521 48.336,34.056 48.397 C 34.591 48.457,35.229 48.610,35.475 48.737 C 35.720 48.864,36.295 49.022,36.752 49.088 C 37.209 49.154,37.829 49.308,38.130 49.431 C 38.431 49.553,39.135 49.737,39.695 49.839 C 40.255 49.940,40.872 50.123,41.065 50.244 C 41.259 50.365,41.847 50.515,42.372 50.577 C 42.898 50.639,43.369 50.757,43.419 50.838 C 43.470 50.919,43.957 51.111,44.503 51.264 C 45.048 51.417,45.580 51.645,45.684 51.771 C 45.789 51.897,46.042 52.000,46.248 52.000 C 46.454 52.000,46.812 52.150,47.045 52.333 C 47.279 52.517,47.532 52.668,47.610 52.669 C 47.773 52.672,48.986 53.500,50.027 54.319 C 50.819 54.943,52.333 56.693,52.333 56.985 C 52.333 57.085,52.483 57.448,52.667 57.790 C 52.850 58.132,53.000 58.535,53.000 58.685 C 53.000 58.835,53.117 59.286,53.260 59.687 C 53.557 60.521,53.622 63.236,53.353 63.560 C 53.258 63.674,53.131 64.100,53.069 64.508 C 53.008 64.916,52.817 65.484,52.645 65.770 C 52.474 66.055,52.332 66.393,52.330 66.520 C 52.322 67.153,49.588 70.330,49.050 70.333 C 48.940 70.333,48.790 70.428,48.717 70.543 C 48.507 70.871,47.460 71.606,47.000 71.746 C 46.771 71.816,46.471 71.969,46.333 72.088 C 46.196 72.206,45.753 72.390,45.348 72.498 C 44.944 72.606,44.457 72.796,44.265 72.920 C 44.073 73.045,43.504 73.198,43.000 73.262 C 42.496 73.325,41.824 73.482,41.508 73.611 C 40.075 74.194,30.891 74.193,29.500 73.610 C 29.179 73.475,28.542 73.312,28.083 73.248 C 27.625 73.183,27.100 73.038,26.917 72.926 C 26.733 72.813,26.208 72.628,25.750 72.515 C 25.292 72.401,24.804 72.210,24.667 72.089 C 24.529 71.969,24.173 71.819,23.875 71.755 C 23.577 71.692,23.333 71.572,23.333 71.489 C 23.333 71.406,23.090 71.220,22.792 71.077 C 21.870 70.632,21.150 70.206,20.861 69.934 C 20.577 69.667,19.907 69.075,19.167 68.438 C 18.320 67.709,16.500 65.261,16.500 64.851 C 16.500 64.733,16.350 64.445,16.167 64.212 C 15.983 63.979,15.833 63.613,15.833 63.399 C 15.833 63.185,15.690 62.727,15.514 62.380 C 15.339 62.034,15.142 61.413,15.078 61.000 C 15.013 60.587,14.857 60.047,14.730 59.800 C 14.604 59.552,14.500 59.130,14.500 58.862 C 14.500 58.074,14.215 57.962,12.725 58.163 C 12.005 58.260,10.704 58.418,9.833 58.514 C 6.473 58.886,6.833 58.768,6.833 59.499 C 6.833 59.854,6.906 60.336,6.995 60.570 C 7.084 60.804,7.237 61.641,7.335 62.431 C 7.433 63.220,7.616 64.027,7.741 64.224 C 7.866 64.422,8.021 64.921,8.085 65.333 C 8.150 65.746,8.298 66.196,8.414 66.333 C 8.530 66.471,8.713 66.859,8.821 67.195 C 8.929 67.531,9.118 67.890,9.241 67.993 C 9.364 68.095,9.514 68.438,9.573 68.756 C 9.633 69.074,9.755 69.333,9.845 69.333 C 9.935 69.333,10.074 69.507,10.155 69.719 C 10.786 71.379,15.920 76.667,16.901 76.667 C 17.019 76.667,17.251 76.817,17.417 77.000 C 17.583 77.183,17.809 77.333,17.920 77.333 C 18.031 77.333,18.301 77.473,18.519 77.644 C 18.738 77.814,19.104 78.011,19.333 78.080 C 19.563 78.149,19.862 78.303,20.000 78.421 C 20.137 78.539,20.587 78.725,21.000 78.834 C 21.412 78.943,21.833 79.101,21.935 79.184 C 22.037 79.268,22.555 79.417,23.087 79.515 C 23.618 79.613,24.209 79.794,24.401 79.916 C 24.593 80.039,25.272 80.193,25.910 80.259 C 26.548 80.326,27.333 80.489,27.653 80.623 C 29.222 81.279,41.272 81.282,42.838 80.627 C 43.162 80.492,43.869 80.326,44.410 80.258 C 44.951 80.190,45.554 80.030,45.750 79.902 C 45.946 79.773,46.439 79.599,46.845 79.515 C 47.629 79.353,49.328 78.679,49.696 78.384 C 49.818 78.287,50.103 78.150,50.330 78.080 C 50.558 78.010,50.933 77.825,51.163 77.669 C 52.284 76.912,52.944 76.500,53.037 76.500 C 53.280 76.500,57.167 72.828,57.167 72.598 C 57.167 72.544,57.298 72.362,57.458 72.193 C 57.619 72.024,57.900 71.633,58.083 71.324 C 58.267 71.015,58.547 70.572,58.706 70.339 C 59.024 69.875,59.333 69.220,59.333 69.012 C 59.333 68.938,59.474 68.699,59.645 68.481 C 59.816 68.262,60.011 67.821,60.078 67.500 C 60.145 67.179,60.301 66.756,60.426 66.559 C 60.550 66.362,60.726 65.609,60.817 64.885 C 60.908 64.161,61.061 63.361,61.158 63.107 C 61.383 62.513,61.386 59.328,61.162 58.737 C 61.067 58.488,60.912 57.715,60.816 57.018 C 60.721 56.320,60.545 55.599,60.427 55.414 C 60.308 55.230,60.155 54.817,60.087 54.498 C 60.019 54.178,59.868 53.804,59.753 53.667 C 59.637 53.529,59.454 53.142,59.346 52.806 C 59.239 52.471,59.042 52.154,58.909 52.103 C 58.776 52.052,58.667 51.905,58.667 51.776 C 58.667 51.453,57.272 49.743,56.167 48.711 C 54.928 47.554,54.848 47.488,53.994 46.929 C 53.585 46.661,52.983 46.268,52.658 46.054 C 52.332 45.841,51.987 45.667,51.892 45.667 C 51.796 45.667,51.583 45.517,51.417 45.333 C 51.251 45.150,50.987 45.000,50.830 45.000 C 50.673 45.000,50.366 44.861,50.147 44.691 C 49.929 44.521,49.476 44.331,49.142 44.270 C 48.807 44.208,48.447 44.053,48.340 43.925 C 48.234 43.797,47.833 43.641,47.449 43.578 C 47.064 43.515,46.435 43.321,46.051 43.148 C 45.666 42.975,45.138 42.833,44.878 42.833 C 44.617 42.833,44.130 42.694,43.795 42.523 C 43.459 42.352,42.798 42.161,42.324 42.098 C 41.851 42.035,41.303 41.881,41.107 41.755 C 40.910 41.629,40.375 41.473,39.917 41.407 C 39.458 41.342,38.724 41.149,38.285 40.978 C 37.847 40.807,37.209 40.663,36.869 40.659 C 36.528 40.655,35.950 40.536,35.583 40.394 C 35.217 40.252,34.429 40.066,33.833 39.981 C 33.237 39.896,32.487 39.717,32.167 39.585 C 31.846 39.453,31.142 39.268,30.602 39.174 C 30.062 39.080,29.526 38.924,29.410 38.828 C 29.295 38.732,28.725 38.577,28.144 38.483 C 27.563 38.390,26.968 38.205,26.822 38.073 C 26.676 37.941,26.373 37.833,26.147 37.833 C 25.922 37.833,25.451 37.688,25.102 37.510 C 24.753 37.332,24.231 37.134,23.942 37.071 C 23.653 37.008,23.238 36.816,23.019 36.645 C 22.801 36.474,22.508 36.333,22.370 36.333 C 21.701 36.333,19.158 34.209,18.581 33.168 C 16.484 29.384,16.891 25.472,19.734 22.067 C 20.201 21.508,20.771 20.931,21.000 20.786 C 21.229 20.640,21.727 20.299,22.105 20.028 C 22.484 19.757,22.971 19.481,23.189 19.414 C 23.406 19.348,23.697 19.195,23.836 19.073 C 23.975 18.952,24.387 18.778,24.752 18.686 C 25.118 18.594,25.754 18.410,26.167 18.278 C 28.871 17.409,35.348 17.013,37.750 17.570 C 38.300 17.698,39.308 17.887,39.991 17.991 C 40.673 18.095,41.330 18.262,41.451 18.362 C 41.571 18.462,42.020 18.609,42.447 18.689 C 42.875 18.769,43.343 18.938,43.487 19.064 C 43.632 19.190,43.926 19.348,44.141 19.413 C 44.897 19.644,47.557 21.694,47.901 22.312 C 47.984 22.461,48.331 22.921,48.670 23.333 C 49.010 23.746,49.346 24.271,49.417 24.500 C 49.488 24.729,49.686 25.096,49.856 25.314 C 50.027 25.533,50.167 25.835,50.167 25.985 C 50.167 26.136,50.285 26.428,50.430 26.635 C 50.575 26.842,50.756 27.440,50.831 27.964 C 50.907 28.488,51.123 29.271,51.310 29.704 L 51.651 30.492 54.367 30.406 C 55.861 30.359,57.552 30.280,58.125 30.230 L 59.167 30.140 59.167 29.331 C 59.167 28.886,59.084 28.311,58.983 28.053 C 58.883 27.794,58.734 27.073,58.654 26.450 C 58.573 25.826,58.393 25.153,58.254 24.954 C 58.114 24.755,58.000 24.436,58.000 24.246 C 58.000 24.055,57.824 23.528,57.609 23.074 C 57.395 22.621,57.133 22.063,57.027 21.833 C 56.835 21.414,56.772 21.306,56.009 20.083 C 54.525 17.703,51.535 14.933,49.369 13.932 C 49.068 13.793,48.706 13.564,48.566 13.423 C 48.425 13.282,48.175 13.167,48.011 13.167 C 47.846 13.167,47.533 13.028,47.314 12.857 C 47.096 12.687,46.624 12.494,46.267 12.429 C 45.910 12.363,45.460 12.209,45.267 12.087 C 45.074 11.965,44.589 11.813,44.189 11.748 C 43.789 11.684,43.151 11.498,42.772 11.335 C 42.393 11.173,41.498 10.994,40.783 10.938 C 40.068 10.882,39.318 10.743,39.117 10.628 C 38.432 10.240,29.694 10.273,28.167 10.670 M110.448 20.441 C 110.385 20.504,110.333 34.307,110.333 51.114 L 110.333 81.673 114.125 81.628 L 117.917 81.583 117.917 51.000 L 117.917 20.417 114.239 20.372 C 112.217 20.347,110.510 20.379,110.448 20.441 M84.398 37.009 C 83.104 37.073,81.791 37.208,81.481 37.308 C 81.171 37.409,80.354 37.576,79.667 37.679 C 78.979 37.783,78.102 38.010,77.717 38.184 C 77.333 38.358,76.904 38.500,76.764 38.500 C 76.518 38.500,75.515 38.942,74.667 39.424 C 74.438 39.554,74.006 39.776,73.708 39.916 C 73.410 40.056,73.167 40.236,73.167 40.315 C 73.167 40.395,72.952 40.549,72.689 40.658 C 72.010 40.938,70.425 42.515,69.741 43.588 C 69.567 43.860,69.329 44.143,69.212 44.217 C 69.096 44.290,69.000 44.477,68.999 44.633 C 68.999 44.789,68.849 45.162,68.666 45.462 C 68.483 45.762,68.333 46.101,68.333 46.215 C 68.333 46.329,68.173 46.720,67.976 47.086 C 66.584 49.677,67.061 50.360,70.417 50.582 C 71.333 50.642,72.436 50.794,72.867 50.918 C 73.767 51.178,74.499 50.818,74.502 50.113 C 74.502 49.913,74.688 49.375,74.913 48.917 C 75.138 48.458,75.325 48.030,75.328 47.966 C 75.340 47.697,76.429 46.162,77.171 45.368 C 77.984 44.498,80.085 43.333,80.842 43.333 C 81.096 43.333,81.779 43.184,82.360 43.002 C 83.875 42.527,87.903 42.524,89.678 42.996 C 90.359 43.177,91.077 43.327,91.273 43.329 C 92.903 43.347,96.280 46.078,96.576 47.618 C 96.633 47.912,96.788 48.362,96.922 48.618 C 97.316 49.374,97.268 53.523,96.861 53.891 C 96.517 54.203,94.624 54.751,93.000 55.009 C 92.404 55.104,91.279 55.324,90.500 55.499 C 89.721 55.673,88.530 55.863,87.854 55.920 C 87.178 55.977,86.437 56.096,86.208 56.182 C 85.980 56.269,84.846 56.417,83.688 56.511 C 82.530 56.604,81.126 56.786,80.568 56.915 C 80.009 57.044,78.957 57.224,78.230 57.316 C 77.503 57.407,76.684 57.598,76.412 57.740 C 76.140 57.882,75.739 57.998,75.523 57.999 C 75.306 58.000,74.856 58.139,74.523 58.309 C 74.189 58.478,73.392 58.870,72.750 59.180 C 72.108 59.489,71.484 59.838,71.363 59.954 C 71.242 60.071,71.048 60.167,70.932 60.167 C 70.588 60.167,67.500 63.390,67.500 63.749 C 67.500 63.859,67.350 64.122,67.167 64.333 C 66.983 64.545,66.833 64.805,66.833 64.911 C 66.833 65.017,66.687 65.408,66.507 65.779 C 66.067 66.690,65.604 69.682,65.725 70.833 C 65.956 73.028,66.209 74.251,66.513 74.638 C 66.689 74.862,66.833 75.186,66.833 75.358 C 66.833 76.288,69.819 79.564,71.333 80.296 C 71.563 80.407,71.862 80.569,72.000 80.657 C 72.691 81.097,73.998 81.624,74.658 81.729 C 75.066 81.795,75.493 81.925,75.608 82.020 C 76.246 82.550,84.333 82.627,85.753 82.116 C 86.122 81.984,86.834 81.819,87.337 81.751 C 87.839 81.683,88.528 81.486,88.868 81.314 C 89.208 81.141,89.583 80.998,89.702 80.996 C 89.820 80.994,90.404 80.734,91.000 80.418 C 91.596 80.102,92.346 79.710,92.667 79.547 C 92.987 79.384,93.325 79.192,93.417 79.122 C 93.874 78.770,95.099 78.006,95.208 78.003 C 95.277 78.001,95.476 77.869,95.650 77.708 C 96.601 76.832,96.813 76.678,97.207 76.579 C 97.687 76.459,97.994 76.824,98.007 77.531 C 98.011 77.743,98.130 78.217,98.271 78.583 C 98.412 78.950,98.594 79.617,98.674 80.066 C 98.956 81.633,99.045 81.667,102.932 81.667 C 106.576 81.667,106.896 81.626,106.678 81.194 C 104.963 77.799,104.934 77.467,104.652 58.667 C 104.459 45.745,104.522 46.348,103.030 43.189 C 102.486 42.037,100.719 40.005,100.255 39.997 C 100.096 39.994,98.828 39.211,98.395 38.848 C 98.291 38.761,97.878 38.602,97.478 38.495 C 97.078 38.388,96.655 38.223,96.539 38.128 C 95.577 37.339,89.335 36.764,84.398 37.009 M140.000 37.000 C 137.768 37.121,134.236 37.709,133.417 38.096 C 133.142 38.226,132.654 38.383,132.333 38.444 C 132.012 38.506,131.420 38.731,131.017 38.945 C 130.614 39.158,130.182 39.333,130.059 39.333 C 129.935 39.333,129.833 39.412,129.833 39.508 C 129.833 39.604,129.627 39.774,129.375 39.885 C 127.715 40.617,125.347 42.899,124.564 44.520 C 124.370 44.921,124.014 45.651,123.772 46.140 C 123.531 46.630,123.333 47.119,123.333 47.226 C 123.333 47.334,123.183 47.701,123.000 48.044 C 122.035 49.844,122.505 50.282,125.726 50.588 C 127.023 50.711,128.345 50.892,128.666 50.989 C 129.396 51.212,129.500 51.211,129.500 50.983 C 129.500 50.881,129.679 50.441,129.898 50.005 C 130.118 49.569,130.347 48.982,130.409 48.701 C 130.471 48.420,130.629 48.100,130.761 47.991 C 130.892 47.882,131.000 47.704,131.000 47.596 C 131.000 46.259,134.568 43.525,136.667 43.254 C 137.079 43.201,137.717 43.050,138.083 42.919 C 139.167 42.532,143.615 42.581,145.178 42.996 C 145.859 43.177,146.551 43.327,146.715 43.329 C 147.090 43.334,149.143 44.286,149.457 44.600 C 149.585 44.728,149.751 44.833,149.826 44.833 C 149.900 44.833,150.271 45.143,150.649 45.522 C 152.786 47.658,153.537 53.874,151.705 54.257 C 151.119 54.380,150.312 54.587,149.172 54.909 C 148.671 55.051,148.001 55.167,147.683 55.167 C 147.365 55.167,146.575 55.310,145.927 55.486 C 145.280 55.661,144.114 55.855,143.336 55.917 C 142.559 55.979,141.792 56.100,141.632 56.185 C 141.473 56.270,140.405 56.412,139.260 56.499 C 138.114 56.587,136.432 56.810,135.521 56.996 C 134.610 57.181,133.614 57.334,133.307 57.334 C 133.001 57.335,132.541 57.445,132.285 57.578 C 132.029 57.712,131.541 57.871,131.201 57.932 C 130.312 58.091,127.150 59.535,126.820 59.933 C 126.713 60.061,126.555 60.167,126.468 60.167 C 126.184 60.167,124.676 61.537,123.915 62.487 C 123.506 62.998,123.067 63.529,122.940 63.667 C 122.813 63.804,122.653 64.104,122.585 64.333 C 122.516 64.563,122.361 64.864,122.240 65.003 C 122.118 65.142,121.943 65.592,121.851 66.004 C 121.759 66.416,121.567 67.031,121.425 67.371 C 120.769 68.942,121.316 74.190,122.255 75.333 C 122.368 75.471,122.516 75.771,122.585 76.000 C 122.653 76.229,122.810 76.529,122.934 76.667 C 123.058 76.804,123.483 77.328,123.880 77.832 C 125.148 79.441,128.130 81.343,129.917 81.680 C 130.375 81.767,131.012 81.964,131.333 82.119 C 132.330 82.598,139.796 82.541,141.573 82.040 C 142.301 81.835,143.051 81.666,143.240 81.666 C 143.429 81.665,143.796 81.554,144.056 81.418 C 144.315 81.283,144.840 81.089,145.222 80.987 C 145.604 80.886,146.029 80.706,146.167 80.588 C 146.304 80.469,146.603 80.316,146.830 80.246 C 147.058 80.177,147.433 79.992,147.663 79.836 C 148.804 79.065,149.445 78.667,149.545 78.667 C 149.605 78.667,149.976 78.439,150.369 78.161 C 150.762 77.883,151.270 77.527,151.497 77.370 C 151.725 77.212,152.038 76.958,152.193 76.804 C 152.871 76.133,153.377 76.668,153.719 78.417 C 153.863 79.150,154.130 80.162,154.312 80.667 L 154.643 81.583 158.405 81.628 C 162.568 81.678,162.488 81.701,161.834 80.629 C 161.651 80.329,161.501 79.933,161.500 79.750 C 161.499 79.567,161.375 79.192,161.225 78.917 C 161.074 78.642,160.857 77.854,160.742 77.167 C 160.627 76.479,160.454 75.483,160.357 74.952 C 160.251 74.367,160.140 68.792,160.074 60.785 L 159.966 47.583 159.549 46.000 C 159.319 45.129,159.037 44.304,158.922 44.167 C 158.806 44.029,158.660 43.700,158.597 43.436 C 158.485 42.966,157.877 42.032,157.315 41.468 C 157.160 41.312,157.008 41.120,156.975 41.041 C 156.839 40.704,153.381 38.500,152.989 38.500 C 152.877 38.500,152.478 38.359,152.102 38.186 C 150.639 37.515,144.503 36.686,142.333 36.866 C 142.196 36.878,141.146 36.938,140.000 37.000 M184.500 37.008 C 182.870 37.137,180.257 37.801,179.620 38.247 C 179.421 38.386,179.160 38.500,179.040 38.500 C 178.919 38.500,178.617 38.638,178.368 38.807 C 178.120 38.976,177.579 39.333,177.167 39.599 C 176.754 39.865,176.342 40.161,176.250 40.256 C 174.892 41.659,172.807 43.530,172.710 43.433 C 172.640 43.363,172.546 42.094,172.500 40.612 L 172.417 37.917 169.250 37.917 L 166.083 37.917 166.083 59.750 L 166.083 81.583 169.583 81.583 L 173.083 81.583 173.167 68.500 C 173.230 58.631,173.300 55.329,173.454 55.062 C 173.566 54.866,173.707 53.966,173.767 53.062 C 173.836 52.028,173.993 51.157,174.188 50.717 C 174.360 50.333,174.500 49.920,174.500 49.799 C 174.500 49.252,175.998 46.948,177.098 45.803 C 177.674 45.204,179.303 44.223,180.417 43.806 C 185.996 41.714,191.500 43.822,192.249 48.339 C 192.317 48.749,192.457 49.233,192.561 49.417 C 192.697 49.656,192.774 54.249,192.833 65.667 L 192.917 81.583 196.167 81.631 C 197.954 81.657,199.585 81.636,199.792 81.586 L 200.167 81.494 200.166 68.205 C 200.164 54.294,200.231 52.787,200.939 50.667 C 201.076 50.254,201.252 49.667,201.330 49.363 C 201.407 49.058,201.590 48.677,201.735 48.516 C 201.881 48.355,202.001 48.155,202.003 48.070 C 202.019 47.261,205.600 44.000,206.473 44.000 C 206.589 44.000,206.961 43.855,207.300 43.679 C 207.920 43.356,210.581 42.927,211.667 42.975 C 213.513 43.056,216.667 44.018,216.667 44.499 C 216.667 44.563,216.809 44.683,216.984 44.766 C 217.587 45.052,218.811 46.761,219.016 47.604 C 219.126 48.051,219.298 48.522,219.399 48.651 C 219.529 48.816,219.608 53.661,219.667 65.234 L 219.750 81.583 223.083 81.631 C 224.917 81.657,226.585 81.636,226.792 81.586 L 227.167 81.494 227.169 66.622 C 227.171 51.166,227.022 47.037,226.417 45.750 C 226.288 45.475,226.097 44.913,225.992 44.500 C 225.888 44.087,225.703 43.637,225.581 43.500 C 225.459 43.362,225.306 43.038,225.242 42.778 C 225.177 42.519,225.021 42.267,224.895 42.219 C 224.770 42.170,224.667 42.026,224.667 41.898 C 224.667 41.597,222.247 39.167,221.947 39.167 C 221.821 39.167,221.589 39.023,221.430 38.848 C 221.272 38.673,220.941 38.480,220.696 38.419 C 220.451 38.357,220.137 38.211,220.000 38.093 C 219.862 37.975,219.500 37.832,219.195 37.774 C 218.890 37.717,218.402 37.557,218.112 37.419 C 216.890 36.841,210.504 36.818,209.167 37.387 C 208.846 37.523,208.226 37.688,207.790 37.753 C 207.353 37.819,206.951 37.944,206.896 38.033 C 206.841 38.122,206.486 38.337,206.107 38.512 C 205.727 38.686,205.267 38.922,205.083 39.035 C 203.690 39.898,203.339 40.148,202.750 40.699 C 202.383 41.043,201.818 41.570,201.495 41.870 C 201.171 42.171,200.618 42.773,200.266 43.208 C 199.420 44.255,198.951 44.277,198.490 43.292 C 197.976 42.195,197.610 41.606,197.292 41.367 C 197.131 41.246,197.000 41.040,197.000 40.907 C 197.000 40.775,196.944 40.666,196.875 40.665 C 196.806 40.664,196.460 40.389,196.105 40.053 C 193.984 38.043,189.521 36.585,186.333 36.860 C 186.196 36.872,185.371 36.938,184.500 37.008 M248.526 37.014 C 247.211 37.085,246.011 37.193,245.859 37.254 C 245.708 37.315,244.871 37.500,244.000 37.666 C 242.402 37.971,241.305 38.302,240.083 38.848 C 239.717 39.012,239.229 39.227,239.000 39.326 C 238.771 39.425,238.246 39.729,237.833 40.000 C 237.421 40.271,236.933 40.565,236.750 40.653 C 236.458 40.792,234.406 42.860,233.896 43.529 C 233.526 44.013,232.667 45.756,232.667 46.021 C 232.667 46.170,232.562 46.380,232.433 46.486 C 232.305 46.593,232.151 46.884,232.092 47.132 C 232.033 47.380,231.828 47.969,231.636 48.439 C 230.965 50.088,231.365 50.371,234.667 50.590 C 235.537 50.647,236.620 50.800,237.072 50.930 C 237.524 51.060,237.950 51.167,238.018 51.167 C 238.156 51.167,238.896 49.650,239.075 49.000 C 239.203 48.533,239.969 47.028,240.240 46.709 C 240.337 46.595,240.679 46.175,241.000 45.776 C 241.998 44.535,243.893 43.451,245.365 43.278 C 245.872 43.218,246.557 43.056,246.888 42.918 C 247.835 42.522,252.189 42.573,253.917 43.000 C 254.650 43.181,255.391 43.330,255.564 43.331 C 255.736 43.332,256.111 43.475,256.397 43.648 C 256.683 43.821,257.093 44.016,257.309 44.081 C 258.167 44.342,260.333 46.212,260.333 46.693 C 260.333 46.801,260.440 47.009,260.570 47.154 C 260.911 47.533,261.387 50.001,261.459 51.766 C 261.529 53.454,261.116 54.333,260.253 54.333 C 260.041 54.333,259.372 54.487,258.764 54.674 C 258.157 54.862,257.081 55.082,256.372 55.165 C 255.663 55.247,254.783 55.420,254.417 55.549 C 254.050 55.679,253.087 55.838,252.276 55.902 C 251.466 55.967,250.610 56.093,250.375 56.182 C 250.140 56.272,249.022 56.416,247.892 56.502 C 246.761 56.588,245.359 56.769,244.777 56.904 C 244.195 57.039,243.124 57.224,242.397 57.316 C 241.669 57.407,240.851 57.598,240.579 57.740 C 240.306 57.882,239.891 57.998,239.657 57.999 C 239.422 58.000,239.085 58.111,238.907 58.247 C 238.729 58.383,238.286 58.578,237.923 58.680 C 237.559 58.782,237.080 59.008,236.858 59.183 C 236.637 59.357,236.358 59.500,236.239 59.500 C 236.121 59.500,235.925 59.594,235.804 59.708 C 235.682 59.823,235.257 60.138,234.858 60.409 C 234.155 60.887,232.970 62.035,232.375 62.814 C 232.215 63.025,231.915 63.407,231.708 63.664 C 231.502 63.921,231.333 64.242,231.333 64.377 C 231.333 64.511,231.190 64.804,231.015 65.027 C 230.840 65.249,230.615 65.870,230.516 66.405 C 230.417 66.941,230.242 67.493,230.127 67.631 C 229.854 67.959,229.746 71.353,229.980 72.250 C 230.624 74.730,231.031 75.739,231.794 76.750 C 232.002 77.025,232.228 77.325,232.297 77.417 C 232.928 78.258,233.250 78.592,234.101 79.291 C 234.641 79.734,235.271 80.187,235.500 80.297 C 235.729 80.407,236.029 80.567,236.167 80.652 C 236.875 81.089,238.201 81.667,238.496 81.667 C 238.681 81.667,239.301 81.834,239.874 82.038 C 241.260 82.533,248.703 82.600,250.000 82.130 C 250.412 81.980,251.125 81.805,251.583 81.740 C 252.042 81.676,252.695 81.483,253.035 81.311 C 253.375 81.140,253.750 80.999,253.868 80.998 C 253.987 80.998,254.458 80.812,254.917 80.587 C 255.375 80.362,255.835 80.175,255.938 80.172 C 256.041 80.169,256.221 80.051,256.338 79.911 C 256.528 79.682,257.765 78.912,259.186 78.138 C 259.468 77.985,259.997 77.592,260.362 77.263 C 260.849 76.826,261.179 76.667,261.594 76.667 C 262.203 76.667,262.218 76.692,262.398 78.083 C 262.446 78.450,262.694 79.406,262.951 80.208 L 263.417 81.666 267.115 81.666 C 271.223 81.667,271.176 81.682,270.585 80.571 C 270.355 80.138,270.167 79.645,270.167 79.475 C 270.167 79.305,270.017 78.886,269.833 78.544 C 269.650 78.201,269.500 77.695,269.500 77.419 C 269.500 77.143,269.379 76.279,269.231 75.500 C 269.005 74.309,268.942 71.919,268.836 60.500 C 268.713 47.205,268.703 46.896,268.355 45.962 C 268.160 45.438,268.000 44.887,268.000 44.739 C 268.000 44.591,267.850 44.279,267.667 44.045 C 267.483 43.812,267.333 43.514,267.333 43.383 C 267.333 43.252,267.146 42.899,266.917 42.598 C 266.688 42.298,266.500 41.990,266.500 41.914 C 266.500 41.671,264.596 39.991,264.208 39.893 C 264.002 39.840,263.833 39.728,263.833 39.644 C 263.833 39.560,263.636 39.417,263.395 39.325 C 263.154 39.233,262.748 39.010,262.494 38.829 C 262.240 38.648,261.893 38.500,261.724 38.499 C 261.555 38.498,261.192 38.376,260.917 38.227 C 259.160 37.275,253.661 36.737,248.526 37.014 M293.730 37.014 C 292.710 37.079,291.719 37.216,291.526 37.319 C 291.333 37.423,290.780 37.580,290.296 37.670 C 288.137 38.071,282.500 41.829,282.500 42.868 C 282.500 42.941,282.420 43.000,282.321 43.000 C 282.223 43.000,282.028 43.115,281.887 43.256 C 281.307 43.836,281.167 43.295,281.167 40.480 L 281.167 37.833 278.000 37.833 L 274.833 37.833 274.833 59.753 L 274.833 81.673 278.375 81.628 L 281.917 81.583 282.000 68.333 C 282.046 61.046,282.137 55.001,282.203 54.900 C 282.269 54.798,282.395 53.950,282.483 53.014 C 282.571 52.078,282.719 51.221,282.813 51.108 C 282.906 50.995,283.065 50.539,283.164 50.093 C 283.264 49.648,283.493 49.077,283.673 48.825 C 283.853 48.572,284.000 48.298,284.000 48.217 C 284.000 47.575,286.498 45.194,287.741 44.650 C 287.929 44.568,288.196 44.429,288.333 44.342 C 289.987 43.293,293.983 42.689,296.083 43.172 C 296.450 43.256,296.975 43.329,297.250 43.334 C 298.221 43.353,300.219 44.518,301.379 45.743 C 302.362 46.782,302.918 47.712,303.076 48.583 C 303.142 48.950,303.257 49.325,303.332 49.417 C 303.738 49.917,303.832 53.263,303.833 67.125 L 303.833 81.667 307.236 81.667 C 309.108 81.667,310.758 81.621,310.903 81.566 C 311.141 81.474,311.167 80.059,311.168 67.274 C 311.169 48.977,310.973 46.101,309.591 44.127 C 309.449 43.925,309.333 43.625,309.333 43.461 C 309.333 43.297,309.183 43.035,309.000 42.878 C 308.817 42.721,308.667 42.501,308.667 42.389 C 308.667 42.155,306.559 40.000,306.331 40.000 C 306.248 40.000,306.045 39.861,305.881 39.692 C 305.618 39.420,305.015 39.080,303.250 38.208 C 301.337 37.262,297.463 36.776,293.730 37.014 M332.613 37.011 C 331.621 37.082,330.534 37.250,330.196 37.383 C 329.859 37.517,329.246 37.683,328.834 37.752 C 328.422 37.820,327.823 38.017,327.503 38.188 C 327.183 38.360,326.787 38.500,326.622 38.500 C 326.457 38.500,325.727 38.837,325.000 39.250 C 324.273 39.662,323.617 40.000,323.543 40.000 C 323.468 40.000,323.286 40.131,323.137 40.292 C 322.988 40.452,322.588 40.771,322.249 41.000 C 320.740 42.020,317.500 46.006,317.500 46.842 C 317.500 46.938,317.357 47.295,317.182 47.634 C 316.696 48.573,316.000 50.465,316.000 50.845 C 316.000 51.031,315.887 51.401,315.750 51.668 C 315.612 51.934,315.426 52.849,315.337 53.701 C 315.247 54.553,315.081 55.700,314.966 56.250 C 314.708 57.491,314.720 62.884,314.983 63.553 C 315.084 63.812,315.238 64.830,315.325 65.816 C 315.411 66.801,315.589 67.827,315.721 68.096 C 315.997 68.660,316.430 69.896,316.763 71.067 C 316.890 71.516,317.099 72.004,317.227 72.150 C 317.356 72.297,317.512 72.585,317.575 72.792 C 317.638 72.998,317.751 73.167,317.826 73.167 C 317.902 73.167,318.078 73.452,318.218 73.801 C 318.357 74.150,318.590 74.534,318.736 74.655 C 318.881 74.775,319.000 74.963,319.000 75.070 C 319.000 75.178,319.628 75.901,320.395 76.675 C 321.911 78.204,321.867 78.166,323.083 78.992 C 324.907 80.231,325.664 80.645,326.750 81.000 C 327.117 81.119,327.567 81.311,327.750 81.426 C 327.933 81.541,328.421 81.685,328.833 81.745 C 329.246 81.806,329.958 81.982,330.417 82.136 C 331.792 82.599,338.697 82.523,340.147 82.029 C 340.732 81.830,341.332 81.666,341.480 81.666 C 341.629 81.665,341.949 81.561,342.192 81.434 C 342.435 81.307,342.923 81.109,343.276 80.994 C 343.628 80.879,344.096 80.646,344.314 80.476 C 344.533 80.306,344.773 80.167,344.848 80.167 C 344.924 80.167,345.270 79.978,345.618 79.748 C 347.558 78.461,348.636 77.508,349.666 76.167 C 349.982 75.754,350.284 75.379,350.335 75.333 C 350.387 75.287,350.651 74.902,350.923 74.477 C 351.917 72.920,351.787 73.040,352.077 73.407 C 352.218 73.585,352.333 73.835,352.333 73.964 C 352.333 74.092,352.483 74.388,352.667 74.621 C 352.850 74.854,353.000 75.197,353.000 75.382 C 353.000 75.567,353.188 75.964,353.417 76.265 C 353.646 76.565,353.833 76.854,353.833 76.906 C 353.833 77.319,356.569 79.850,357.500 80.297 C 357.729 80.407,358.029 80.569,358.167 80.657 C 358.858 81.097,360.165 81.624,360.825 81.729 C 361.233 81.795,361.660 81.925,361.774 82.020 C 362.421 82.557,370.457 82.627,372.000 82.110 C 372.412 81.971,373.125 81.805,373.583 81.740 C 374.042 81.676,374.695 81.483,375.035 81.311 C 375.375 81.140,375.750 80.998,375.868 80.996 C 375.987 80.994,376.571 80.734,377.167 80.418 C 377.762 80.102,378.512 79.710,378.833 79.547 C 379.154 79.384,379.492 79.192,379.583 79.122 C 380.041 78.770,381.265 78.006,381.375 78.003 C 381.444 78.001,381.637 77.869,381.804 77.708 C 383.317 76.258,384.147 76.155,384.171 77.417 C 384.177 77.692,384.297 78.217,384.438 78.583 C 384.579 78.950,384.782 79.642,384.889 80.121 C 385.241 81.696,385.161 81.667,389.068 81.667 C 393.420 81.667,393.289 81.742,392.266 79.833 C 392.143 79.604,391.994 79.143,391.934 78.808 C 391.874 78.474,391.713 77.977,391.578 77.705 C 391.173 76.895,390.989 72.583,390.827 60.167 C 390.661 47.509,390.588 46.146,390.008 44.905 C 389.796 44.453,389.431 43.671,389.195 43.167 C 388.959 42.662,388.669 42.190,388.550 42.117 C 388.431 42.043,388.333 41.900,388.333 41.799 C 388.333 41.578,386.655 40.003,386.417 40.000 C 386.325 39.999,385.762 39.661,385.167 39.250 C 384.571 38.839,383.933 38.501,383.750 38.500 C 383.567 38.499,383.192 38.376,382.917 38.227 C 382.369 37.930,380.246 37.423,378.417 37.153 C 376.874 36.925,370.042 36.927,368.667 37.156 C 366.501 37.517,364.398 37.973,363.583 38.259 C 362.596 38.606,361.019 39.281,360.667 39.508 C 360.529 39.597,360.229 39.762,360.000 39.875 C 359.771 39.988,359.438 40.213,359.260 40.374 C 359.083 40.535,358.858 40.667,358.760 40.668 C 358.663 40.668,358.110 41.137,357.532 41.709 C 356.142 43.086,356.000 43.247,356.000 43.452 C 356.000 43.548,355.887 43.720,355.748 43.835 C 355.463 44.072,354.583 45.851,354.413 46.535 C 354.351 46.783,354.199 47.071,354.075 47.173 C 353.951 47.276,353.800 47.689,353.740 48.089 C 353.511 49.621,352.416 49.004,352.058 47.142 C 351.999 46.835,351.812 46.384,351.642 46.141 C 351.472 45.898,351.333 45.590,351.333 45.458 C 351.333 45.326,351.183 45.083,351.000 44.917 C 350.817 44.751,350.667 44.524,350.667 44.412 C 350.667 44.127,349.126 42.231,348.165 41.333 C 346.712 39.976,346.263 39.666,344.580 38.859 C 343.940 38.553,343.271 38.224,343.093 38.130 C 342.915 38.035,342.288 37.857,341.699 37.733 C 341.111 37.610,340.542 37.437,340.435 37.348 C 340.267 37.209,335.364 36.791,334.670 36.857 C 334.530 36.871,333.605 36.940,332.613 37.011 M338.500 43.000 C 338.965 43.183,339.458 43.333,339.596 43.333 C 339.734 43.333,340.050 43.472,340.298 43.641 C 340.547 43.810,341.086 44.166,341.497 44.432 C 342.355 44.989,343.305 45.954,343.944 46.917 C 344.187 47.283,344.524 47.787,344.693 48.035 C 344.862 48.283,345.000 48.583,345.001 48.702 C 345.002 48.820,345.122 49.142,345.269 49.417 C 345.415 49.692,345.626 50.217,345.736 50.583 L 345.937 51.250 347.508 51.216 C 348.372 51.197,349.530 51.072,350.081 50.938 C 352.791 50.278,356.736 50.271,359.034 50.922 C 360.051 51.210,360.578 50.864,360.754 49.791 C 360.817 49.402,360.965 48.971,361.082 48.833 C 361.198 48.696,361.348 48.396,361.414 48.167 C 361.685 47.221,363.246 45.250,364.250 44.586 C 365.344 43.861,366.487 43.381,367.365 43.278 C 367.872 43.218,368.557 43.056,368.888 42.918 C 369.842 42.519,374.237 42.569,375.845 42.996 C 376.526 43.177,377.273 43.327,377.505 43.329 C 377.736 43.332,378.074 43.432,378.255 43.554 C 378.435 43.675,378.846 43.878,379.167 44.006 C 380.418 44.504,382.167 45.999,382.167 46.571 C 382.167 46.696,382.279 46.841,382.417 46.894 C 382.554 46.946,382.667 47.106,382.667 47.249 C 382.667 47.392,382.823 47.938,383.014 48.462 C 383.590 50.043,383.668 53.122,383.146 53.717 C 382.724 54.198,381.244 54.679,379.167 55.009 C 378.571 55.104,377.446 55.324,376.667 55.499 C 375.887 55.673,374.697 55.863,374.020 55.920 C 373.344 55.977,372.604 56.096,372.375 56.182 C 372.146 56.269,371.012 56.417,369.855 56.511 C 368.697 56.604,367.293 56.786,366.735 56.915 C 366.176 57.044,365.124 57.224,364.397 57.316 C 363.669 57.407,362.851 57.598,362.579 57.740 C 362.306 57.882,361.896 57.999,361.667 58.000 C 361.438 58.001,361.004 58.151,360.704 58.334 C 360.404 58.517,360.067 58.667,359.954 58.668 C 359.842 58.668,359.525 58.791,359.250 58.941 C 358.975 59.091,358.459 59.372,358.104 59.565 C 357.749 59.759,357.295 60.007,357.096 60.118 C 356.609 60.389,353.990 63.139,353.630 63.757 C 353.473 64.028,353.257 64.438,353.151 64.667 C 353.045 64.896,352.877 65.259,352.777 65.473 C 352.477 66.114,351.891 66.649,351.560 66.583 C 349.090 66.093,348.274 65.981,347.500 66.028 L 346.583 66.083 346.492 66.833 C 346.442 67.246,346.314 67.743,346.206 67.937 C 346.099 68.132,345.929 68.656,345.829 69.101 C 345.729 69.547,345.545 70.025,345.420 70.164 C 345.295 70.303,345.138 70.642,345.071 70.917 C 345.004 71.192,344.770 71.642,344.551 71.917 C 344.332 72.192,344.024 72.595,343.868 72.814 C 343.157 73.807,341.049 75.500,340.524 75.500 C 340.419 75.500,340.333 75.572,340.333 75.660 C 340.333 75.748,340.015 75.902,339.625 76.002 C 339.235 76.102,338.617 76.299,338.250 76.441 C 337.408 76.765,334.194 76.928,333.083 76.702 C 331.767 76.434,329.966 75.881,329.853 75.710 C 329.796 75.625,329.495 75.467,329.184 75.361 C 327.850 74.904,324.968 72.057,324.577 70.809 C 324.509 70.593,324.314 70.238,324.144 70.019 C 323.973 69.801,323.833 69.501,323.832 69.353 C 323.832 69.204,323.714 68.859,323.571 68.584 C 323.428 68.309,323.209 67.597,323.085 67.001 C 322.960 66.404,322.764 65.579,322.647 65.167 C 322.241 63.724,322.349 55.362,322.795 53.713 C 323.000 52.959,323.169 52.209,323.172 52.046 C 323.175 51.883,323.323 51.450,323.500 51.083 C 323.677 50.717,323.825 50.319,323.828 50.199 C 323.831 50.080,324.021 49.706,324.250 49.369 C 324.479 49.032,324.667 48.672,324.667 48.570 C 324.667 48.468,324.817 48.211,325.000 48.000 C 325.183 47.789,325.333 47.558,325.333 47.487 C 325.333 47.213,327.625 45.058,328.212 44.779 C 328.554 44.617,328.833 44.413,328.833 44.326 C 328.833 44.238,328.935 44.167,329.059 44.167 C 329.182 44.167,329.629 43.983,330.050 43.759 C 330.472 43.535,331.102 43.298,331.450 43.233 C 331.798 43.168,332.308 43.017,332.583 42.897 C 333.444 42.523,337.466 42.593,338.500 43.000 M97.066 59.930 C 97.236 60.376,97.170 65.542,96.984 66.250 C 96.888 66.617,96.709 67.404,96.587 68.000 C 96.157 70.100,94.364 72.746,92.497 74.036 C 92.270 74.194,91.762 74.550,91.369 74.828 C 90.976 75.106,90.586 75.333,90.503 75.333 C 90.419 75.333,89.998 75.521,89.567 75.750 C 89.136 75.979,88.609 76.167,88.395 76.167 C 88.182 76.167,87.724 76.277,87.378 76.412 C 84.793 77.421,76.833 76.856,76.833 75.663 C 76.833 75.586,76.702 75.480,76.542 75.428 C 76.267 75.340,75.558 74.708,75.000 74.054 C 72.501 71.127,73.541 65.792,76.917 64.227 C 77.192 64.099,77.529 63.928,77.667 63.846 C 78.025 63.633,80.739 62.899,81.917 62.697 C 82.467 62.603,83.254 62.448,83.667 62.353 C 84.079 62.259,84.829 62.177,85.333 62.171 C 85.837 62.165,87.037 61.976,88.000 61.750 C 88.962 61.524,89.947 61.338,90.187 61.336 C 90.428 61.335,90.951 61.218,91.350 61.077 C 91.749 60.937,92.571 60.751,93.177 60.665 C 93.782 60.579,94.496 60.395,94.764 60.256 C 95.031 60.116,95.438 60.000,95.667 59.998 C 95.896 59.997,96.196 59.922,96.333 59.833 C 96.698 59.597,96.951 59.631,97.066 59.930 M383.268 59.958 C 383.523 60.294,383.568 63.698,383.336 65.083 C 382.949 67.399,382.615 68.810,382.323 69.366 C 382.145 69.705,382.000 70.065,382.000 70.165 C 382.000 70.489,380.648 72.226,379.729 73.083 C 378.368 74.352,377.003 75.333,376.598 75.333 C 376.477 75.333,376.199 75.472,375.981 75.642 C 375.583 75.951,374.352 76.301,372.000 76.775 C 370.195 77.139,365.954 76.976,364.883 76.502 C 364.466 76.318,364.048 76.167,363.954 76.167 C 363.645 76.167,362.093 75.046,361.500 74.394 C 358.637 71.248,359.447 65.906,363.037 64.258 C 363.337 64.120,363.696 63.941,363.833 63.861 C 364.387 63.539,366.408 62.982,367.553 62.837 C 368.221 62.752,368.976 62.604,369.229 62.508 C 369.483 62.412,370.491 62.260,371.470 62.172 C 372.449 62.083,373.512 61.932,373.833 61.836 C 374.154 61.739,375.070 61.553,375.869 61.422 C 376.668 61.292,377.457 61.112,377.623 61.023 C 377.790 60.934,378.517 60.779,379.240 60.679 C 379.963 60.578,380.639 60.425,380.743 60.339 C 380.847 60.253,381.378 60.075,381.924 59.943 C 382.470 59.811,382.946 59.695,382.982 59.685 C 383.017 59.675,383.146 59.798,383.268 59.958 M152.467 60.033 C 152.886 60.453,152.430 67.521,151.917 68.550 C 151.779 68.825,151.667 69.175,151.667 69.327 C 151.667 69.478,151.479 69.856,151.250 70.167 C 151.021 70.477,150.833 70.800,150.833 70.883 C 150.833 71.429,147.678 74.482,146.838 74.748 C 146.652 74.807,146.500 74.920,146.500 74.998 C 146.500 75.077,146.219 75.231,145.875 75.342 C 145.531 75.453,145.146 75.627,145.019 75.730 C 144.370 76.253,140.685 76.985,138.667 76.992 C 136.846 76.998,134.385 76.747,134.107 76.527 C 134.002 76.444,133.626 76.283,133.271 76.168 C 128.927 74.768,127.477 68.424,130.820 65.443 C 131.042 65.245,131.351 64.962,131.507 64.814 C 132.335 64.023,135.301 62.959,137.226 62.760 C 137.763 62.705,138.337 62.587,138.503 62.498 C 138.669 62.410,139.659 62.262,140.705 62.171 C 141.750 62.079,142.825 61.930,143.094 61.839 C 143.363 61.748,144.221 61.561,145.000 61.424 C 145.779 61.287,146.785 61.060,147.235 60.921 C 147.685 60.781,148.301 60.667,148.604 60.667 C 148.907 60.667,149.516 60.524,149.959 60.349 C 151.260 59.837,152.157 59.724,152.467 60.033 M261.330 60.080 C 261.754 60.591,261.132 67.917,260.594 68.752 C 260.475 68.937,260.325 69.326,260.261 69.616 C 260.197 69.906,260.038 70.233,259.906 70.342 C 259.774 70.451,259.667 70.637,259.667 70.755 C 259.667 71.064,258.014 73.048,257.365 73.517 C 257.062 73.737,256.724 73.994,256.615 74.089 C 256.258 74.400,254.820 75.333,254.698 75.333 C 254.632 75.333,254.304 75.481,253.968 75.661 C 250.798 77.359,242.809 77.376,241.120 75.687 C 241.017 75.584,240.855 75.498,240.758 75.495 C 240.347 75.485,238.339 73.266,238.328 72.809 C 238.325 72.685,238.177 72.283,238.000 71.917 C 237.770 71.440,237.678 70.894,237.678 70.000 C 237.678 69.106,237.770 68.560,238.000 68.083 C 238.177 67.717,238.325 67.316,238.328 67.193 C 238.366 65.660,243.061 62.833,245.567 62.833 C 245.868 62.833,246.482 62.721,246.932 62.584 C 247.382 62.446,248.537 62.260,249.500 62.170 C 250.463 62.080,251.654 61.897,252.147 61.762 C 252.641 61.628,253.466 61.466,253.981 61.403 C 254.495 61.339,255.215 61.182,255.580 61.054 C 255.944 60.926,256.763 60.748,257.400 60.657 C 258.037 60.567,258.644 60.421,258.750 60.333 C 259.273 59.899,261.037 59.726,261.330 60.080 "
       id="path0" />
    <path
       style="fill:#27496d;fill-opacity:1"
       fill-rule="evenodd"
       fill="#00919e"
       stroke="none"
       d="M197.125 1.278 L 196.667 1.355 196.664 4.886 C 196.661 9.230,196.842 8.917,194.339 8.917 L 192.333 8.917 192.333 10.125 L 192.333 11.333 194.300 11.333 C 195.607 11.333,196.334 11.400,196.467 11.533 C 196.617 11.684,196.667 14.005,196.667 20.956 L 196.667 30.179 198.208 30.131 L 199.750 30.083 199.833 20.750 L 199.917 11.417 202.375 11.371 L 204.833 11.324 204.833 10.162 C 204.833 8.818,205.085 8.936,202.333 8.994 C 201.463 9.012,200.548 8.949,200.301 8.854 L 199.852 8.682 199.801 5.105 C 199.773 3.137,199.692 1.469,199.621 1.399 C 199.470 1.248,197.783 1.166,197.125 1.278 M351.772 1.542 C 351.716 1.748,351.670 3.349,351.669 5.099 C 351.666 9.075,351.771 8.911,349.219 8.928 C 347.253 8.942,347.173 8.988,347.169 10.111 C 347.165 11.341,347.151 11.333,349.226 11.336 C 350.248 11.337,351.196 11.410,351.333 11.496 C 351.549 11.633,351.595 12.921,351.667 20.869 L 351.750 30.083 353.000 30.083 L 354.250 30.083 354.333 21.059 C 354.433 10.221,354.116 11.333,357.109 11.333 L 359.167 11.333 359.167 10.104 L 359.167 8.875 357.685 8.960 C 355.930 9.060,355.023 8.922,354.876 8.532 C 354.817 8.377,354.671 8.151,354.551 8.030 C 354.388 7.865,354.333 7.055,354.333 4.810 C 354.333 1.157,354.337 1.167,352.930 1.167 C 351.974 1.167,351.863 1.203,351.772 1.542 M135.098 8.285 C 134.832 8.327,134.457 8.458,134.265 8.577 C 134.073 8.696,133.697 8.845,133.428 8.908 C 132.989 9.010,132.445 9.361,131.641 10.061 C 130.834 10.763,130.167 10.497,130.167 9.472 L 130.167 8.819 128.958 8.868 L 127.750 8.917 127.750 19.500 L 127.750 30.083 129.000 30.083 L 130.250 30.083 130.333 22.917 C 130.408 16.498,130.447 15.698,130.707 15.250 C 130.867 14.975,130.998 14.628,130.999 14.479 C 131.000 14.118,132.841 12.239,133.349 12.080 C 133.569 12.011,133.929 11.814,134.147 11.644 C 134.414 11.435,134.819 11.333,135.379 11.333 C 135.978 11.333,136.276 11.251,136.435 11.042 C 136.732 10.650,136.752 8.334,136.458 8.331 C 136.344 8.330,136.100 8.302,135.917 8.269 C 135.733 8.237,135.365 8.244,135.098 8.285 M279.917 8.321 C 279.642 8.382,279.138 8.560,278.797 8.716 C 278.456 8.872,278.062 9.000,277.922 9.000 C 277.782 9.000,277.667 9.073,277.667 9.163 C 277.667 9.253,277.367 9.480,277.000 9.667 C 276.633 9.854,276.333 10.075,276.333 10.159 C 276.333 10.371,275.768 10.528,275.449 10.406 C 275.279 10.341,275.166 10.056,275.134 9.611 L 275.083 8.917 273.917 8.917 L 272.750 8.917 272.707 19.542 L 272.664 30.167 273.915 30.167 L 275.167 30.167 275.169 23.125 C 275.171 17.289,275.213 16.012,275.413 15.667 C 275.745 15.091,275.792 14.978,275.898 14.489 C 276.021 13.922,277.695 12.208,278.265 12.065 C 278.513 12.003,278.854 11.813,279.024 11.643 C 279.247 11.419,279.579 11.333,280.217 11.333 C 281.259 11.333,281.500 10.951,281.500 9.299 C 281.500 8.169,281.263 8.023,279.917 8.321 M328.932 8.305 C 328.665 8.336,328.290 8.461,328.098 8.585 C 327.907 8.708,327.450 8.862,327.083 8.926 C 326.717 8.991,326.282 9.184,326.119 9.355 C 325.955 9.527,325.687 9.667,325.524 9.667 C 325.360 9.667,325.064 9.854,324.864 10.083 C 324.665 10.313,324.398 10.500,324.272 10.500 C 324.145 10.500,323.947 10.613,323.832 10.752 C 323.540 11.103,323.167 10.768,323.167 10.157 C 323.167 9.061,322.968 8.884,321.757 8.901 L 320.652 8.917 320.655 19.500 L 320.659 30.083 321.954 30.083 L 323.250 30.083 323.354 23.583 C 323.464 16.626,323.612 14.720,324.061 14.469 C 324.211 14.385,324.333 14.222,324.333 14.105 C 324.333 13.989,324.521 13.730,324.750 13.531 C 324.979 13.332,325.167 13.093,325.167 13.001 C 325.167 12.909,325.277 12.833,325.411 12.833 C 325.545 12.833,325.735 12.684,325.832 12.502 C 325.930 12.320,326.195 12.124,326.421 12.067 C 326.648 12.010,326.833 11.909,326.833 11.842 C 326.833 11.253,332.070 11.073,332.619 11.643 C 332.782 11.814,333.127 12.004,333.384 12.065 C 334.055 12.227,335.635 13.912,335.765 14.606 C 335.823 14.914,335.930 15.167,336.002 15.167 C 336.415 15.167,336.500 16.531,336.500 23.192 L 336.500 30.167 337.792 30.164 C 338.502 30.163,339.182 30.099,339.303 30.023 C 339.656 29.798,339.482 17.414,339.108 16.172 C 338.957 15.671,338.833 15.015,338.833 14.714 C 338.833 14.389,338.698 14.031,338.500 13.833 C 338.317 13.650,338.167 13.362,338.167 13.193 C 338.167 12.876,337.347 11.850,336.333 10.900 C 336.012 10.599,335.592 10.198,335.399 10.010 C 335.206 9.821,334.925 9.667,334.774 9.667 C 334.623 9.667,334.361 9.528,334.192 9.359 C 334.023 9.189,333.565 9.000,333.175 8.937 C 332.784 8.875,332.267 8.722,332.024 8.599 C 331.578 8.370,329.821 8.204,328.932 8.305 M151.951 8.571 C 151.786 8.696,151.302 8.850,150.874 8.914 C 150.446 8.978,149.915 9.174,149.692 9.349 C 149.470 9.524,149.190 9.667,149.069 9.667 C 148.949 9.667,148.790 9.771,148.717 9.899 C 148.643 10.026,148.302 10.248,147.958 10.390 C 147.615 10.533,147.333 10.723,147.333 10.814 C 147.333 10.904,147.187 11.024,147.009 11.081 C 146.830 11.137,146.637 11.330,146.581 11.509 C 146.524 11.687,146.379 11.833,146.258 11.833 C 146.138 11.833,145.993 11.965,145.937 12.125 C 145.821 12.455,145.138 13.450,144.755 13.847 C 144.615 13.993,144.500 14.264,144.500 14.450 C 144.500 14.636,144.363 14.967,144.195 15.186 C 143.290 16.364,143.307 22.371,144.219 23.673 C 144.374 23.894,144.500 24.233,144.500 24.428 C 144.500 24.622,144.650 24.917,144.833 25.083 C 145.017 25.249,145.167 25.448,145.167 25.526 C 145.167 25.911,148.169 28.617,149.091 29.063 C 149.637 29.327,150.405 29.702,150.798 29.897 C 151.793 30.389,157.271 30.425,157.804 29.943 C 157.982 29.782,158.416 29.571,158.769 29.473 C 159.122 29.376,159.591 29.154,159.812 28.981 C 160.032 28.808,160.270 28.667,160.342 28.667 C 160.695 28.667,163.234 26.169,163.604 25.458 C 163.735 25.206,163.907 25.000,163.986 25.000 C 164.065 25.000,164.178 24.740,164.238 24.421 C 164.298 24.103,164.467 23.775,164.613 23.693 C 165.167 23.383,164.638 23.167,163.329 23.167 C 162.132 23.167,161.994 23.201,161.815 23.542 C 161.707 23.748,161.516 23.977,161.392 24.050 C 161.268 24.123,161.165 24.273,161.163 24.383 C 161.161 24.493,160.889 24.808,160.558 25.083 C 160.227 25.358,159.802 25.752,159.615 25.958 C 159.427 26.165,159.205 26.333,159.121 26.333 C 159.037 26.333,158.757 26.484,158.498 26.668 C 158.240 26.852,157.778 27.050,157.472 27.108 C 157.167 27.165,156.778 27.333,156.608 27.481 C 156.152 27.877,152.597 27.870,152.000 27.472 C 151.771 27.319,151.273 27.112,150.894 27.012 C 150.516 26.913,150.113 26.719,149.999 26.582 C 149.885 26.445,149.722 26.333,149.635 26.333 C 149.422 26.333,147.667 24.565,147.667 24.350 C 147.667 24.256,147.520 24.100,147.341 24.004 C 147.149 23.901,146.969 23.572,146.904 23.206 C 146.843 22.864,146.652 22.349,146.480 22.064 C 145.466 20.381,145.732 20.333,156.085 20.333 C 166.495 20.333,165.909 20.438,165.411 18.661 C 165.270 18.160,165.091 17.240,165.013 16.617 C 164.934 15.991,164.750 15.351,164.602 15.187 C 164.454 15.024,164.333 14.757,164.333 14.594 C 164.333 14.431,164.146 14.075,163.917 13.803 C 163.688 13.531,163.500 13.202,163.500 13.073 C 163.500 12.574,160.205 9.667,159.640 9.667 C 159.546 9.667,159.290 9.525,159.070 9.353 C 158.850 9.180,158.313 8.986,157.877 8.923 C 157.440 8.859,156.917 8.701,156.714 8.570 C 156.204 8.243,152.383 8.243,151.951 8.571 M177.919 8.495 C 177.864 8.585,177.507 8.742,177.125 8.844 C 176.161 9.104,174.167 10.726,174.167 11.251 C 174.167 11.360,174.017 11.584,173.833 11.750 C 173.337 12.199,173.324 16.310,173.818 16.619 C 173.993 16.728,174.187 17.046,174.248 17.325 C 174.310 17.605,174.458 17.833,174.579 17.833 C 174.699 17.833,174.840 17.943,174.892 18.078 C 174.943 18.213,175.252 18.434,175.578 18.571 C 175.905 18.707,176.216 18.934,176.270 19.076 C 176.328 19.226,176.570 19.333,176.851 19.333 C 177.116 19.333,177.472 19.472,177.642 19.642 C 177.816 19.816,178.294 19.990,178.732 20.039 C 179.162 20.088,179.642 20.240,179.798 20.378 C 179.955 20.517,180.331 20.682,180.633 20.746 C 180.935 20.811,181.272 21.007,181.381 21.182 C 181.491 21.357,181.677 21.500,181.795 21.500 C 181.914 21.500,182.056 21.631,182.113 21.792 C 182.169 21.952,182.369 22.208,182.558 22.360 C 183.613 23.209,182.958 25.918,181.380 27.234 C 179.796 28.556,175.833 27.290,175.833 25.463 C 175.833 25.221,175.665 24.752,175.458 24.421 L 175.083 23.819 174.014 23.917 C 173.425 23.971,172.874 24.058,172.788 24.111 C 172.559 24.253,172.822 26.391,173.087 26.543 C 173.208 26.612,173.354 26.880,173.410 27.138 C 173.541 27.734,175.011 29.288,175.578 29.430 C 175.815 29.490,176.118 29.695,176.253 29.888 C 176.549 30.310,181.039 30.420,181.833 30.024 C 182.831 29.527,183.154 29.300,183.847 28.608 C 184.988 27.471,185.131 27.283,185.264 26.749 C 185.333 26.474,185.525 25.950,185.691 25.583 C 186.102 24.676,186.103 22.939,185.692 22.164 C 185.523 21.845,185.333 21.375,185.271 21.120 C 185.133 20.557,183.896 19.302,183.191 19.010 C 182.909 18.893,182.591 18.693,182.485 18.565 C 182.379 18.438,182.114 18.333,181.896 18.333 C 181.678 18.333,181.350 18.183,181.167 18.000 C 180.983 17.817,180.636 17.667,180.395 17.667 C 180.153 17.667,179.722 17.524,179.436 17.349 C 179.151 17.174,178.606 16.948,178.225 16.847 C 177.845 16.746,177.491 16.551,177.439 16.415 C 177.387 16.278,177.234 16.167,177.101 16.167 C 176.392 16.167,175.779 13.639,176.333 13.000 C 176.517 12.789,176.667 12.540,176.667 12.448 C 176.667 11.968,177.738 11.333,178.572 11.319 C 181.163 11.273,182.167 11.728,182.167 12.946 C 182.167 13.816,182.739 14.167,184.159 14.167 L 185.379 14.167 185.267 13.215 C 185.206 12.692,185.054 12.148,184.931 12.007 C 184.807 11.866,184.650 11.568,184.582 11.345 C 184.431 10.852,183.361 9.667,183.066 9.667 C 182.948 9.667,182.752 9.523,182.629 9.348 C 182.506 9.172,182.129 8.977,181.792 8.914 C 181.455 8.850,181.092 8.694,180.986 8.566 C 180.759 8.292,178.083 8.231,177.919 8.495 M220.272 8.620 C 220.009 8.757,219.484 8.911,219.105 8.961 C 218.708 9.014,218.325 9.182,218.199 9.360 C 218.079 9.528,217.798 9.667,217.575 9.667 C 217.350 9.667,217.077 9.815,216.961 10.000 C 216.847 10.183,216.671 10.333,216.570 10.333 C 216.246 10.333,214.000 12.385,214.000 12.681 C 214.000 12.752,213.877 12.933,213.726 13.083 C 213.248 13.562,212.667 14.504,212.667 14.802 C 212.667 14.960,212.465 15.386,212.218 15.749 C 211.523 16.773,211.525 22.384,212.222 23.398 C 212.466 23.755,212.667 24.175,212.667 24.331 C 212.667 24.488,212.817 24.789,213.000 25.000 C 213.183 25.211,213.333 25.452,213.333 25.534 C 213.333 25.825,216.213 28.515,216.776 28.750 C 217.089 28.881,217.460 29.103,217.601 29.244 C 217.742 29.385,218.073 29.500,218.337 29.500 C 218.611 29.500,218.883 29.619,218.972 29.778 C 219.357 30.466,226.041 30.467,226.800 29.780 C 226.970 29.626,227.206 29.500,227.325 29.500 C 227.628 29.500,228.871 28.698,229.709 27.961 C 231.019 26.808,231.500 27.093,231.500 29.021 L 231.500 30.181 232.708 30.132 L 233.917 30.083 233.960 19.542 C 233.983 13.744,233.946 8.993,233.876 8.984 C 233.807 8.976,233.244 8.950,232.625 8.927 L 231.500 8.885 231.500 10.083 C 231.500 12.189,231.186 12.229,229.220 10.375 C 228.775 9.955,228.310 9.667,228.077 9.667 C 227.862 9.667,227.588 9.528,227.468 9.358 C 227.338 9.174,226.939 9.003,226.481 8.934 C 226.058 8.871,225.570 8.713,225.398 8.582 C 224.944 8.238,220.942 8.268,220.272 8.620 M296.939 8.620 C 296.676 8.757,296.154 8.912,295.778 8.962 C 295.403 9.012,294.947 9.191,294.766 9.360 C 294.585 9.529,294.331 9.667,294.201 9.667 C 294.071 9.667,293.742 9.854,293.470 10.083 C 293.197 10.313,292.830 10.500,292.654 10.500 C 292.478 10.500,292.333 10.612,292.333 10.750 C 292.333 10.887,292.261 11.000,292.172 11.000 C 291.987 11.000,290.997 11.935,290.750 12.343 C 290.285 13.113,289.661 13.984,289.507 14.079 C 289.411 14.138,289.333 14.358,289.333 14.567 C 289.333 14.777,289.183 15.084,289.000 15.250 C 288.760 15.467,288.666 15.767,288.663 16.317 C 288.661 16.739,288.511 17.410,288.330 17.810 C 287.910 18.734,287.886 20.388,288.281 21.179 C 288.436 21.489,288.596 22.148,288.637 22.644 C 288.685 23.223,288.823 23.656,289.023 23.856 C 289.193 24.027,289.333 24.306,289.333 24.476 C 289.333 24.646,289.502 24.977,289.708 25.213 C 289.915 25.448,290.271 25.915,290.500 26.249 C 291.057 27.062,291.644 27.633,292.250 27.951 C 292.525 28.095,292.789 28.273,292.837 28.347 C 293.033 28.647,294.168 29.307,294.684 29.420 C 294.988 29.487,295.427 29.680,295.660 29.849 C 296.530 30.482,302.998 30.427,303.357 29.785 C 303.433 29.649,303.763 29.488,304.090 29.426 C 304.714 29.309,304.817 29.238,306.057 28.061 C 307.218 26.960,308.000 27.108,308.000 28.429 C 308.000 28.812,308.047 29.359,308.104 29.646 L 308.208 30.167 309.439 30.167 L 310.669 30.167 310.626 19.542 L 310.583 8.917 309.424 8.917 C 308.100 8.917,308.048 8.979,308.017 10.607 C 307.993 11.813,307.332 11.880,306.245 10.788 C 305.517 10.057,304.967 9.667,304.662 9.667 C 304.492 9.667,304.254 9.528,304.134 9.358 C 303.999 9.166,303.601 9.003,303.083 8.928 C 302.625 8.862,302.084 8.701,301.881 8.570 C 301.354 8.232,297.606 8.269,296.939 8.620 M375.000 8.579 C 374.771 8.708,374.283 8.862,373.917 8.922 C 373.550 8.983,373.063 9.155,372.833 9.306 C 372.002 9.852,371.739 10.000,371.125 10.273 C 370.781 10.426,370.500 10.652,370.500 10.775 C 370.500 10.899,370.432 11.000,370.350 11.000 C 369.880 11.000,367.794 13.686,367.569 14.581 C 367.513 14.804,367.362 15.074,367.234 15.180 C 367.105 15.287,367.000 15.629,367.000 15.941 C 367.000 16.253,366.850 16.935,366.667 17.457 C 366.224 18.717,366.222 20.385,366.663 21.357 C 366.844 21.756,366.994 22.402,366.996 22.792 C 366.999 23.274,367.106 23.606,367.333 23.833 C 367.517 24.017,367.667 24.352,367.667 24.577 C 367.667 24.818,367.805 25.062,368.000 25.167 C 368.183 25.265,368.333 25.449,368.333 25.576 C 368.333 25.993,370.873 28.403,371.717 28.788 C 371.965 28.901,372.167 29.061,372.167 29.145 C 372.167 29.228,372.445 29.349,372.786 29.412 C 373.127 29.476,373.633 29.691,373.911 29.889 C 374.693 30.447,380.450 30.429,381.048 29.866 C 381.263 29.665,381.587 29.500,381.770 29.500 C 381.953 29.500,382.356 29.312,382.667 29.083 C 382.977 28.854,383.327 28.667,383.445 28.667 C 384.268 28.667,387.954 23.933,387.590 23.344 C 387.269 22.824,385.221 23.147,384.744 23.792 C 384.292 24.402,383.805 24.962,383.363 25.377 C 383.243 25.490,382.985 25.752,382.792 25.958 C 382.598 26.165,382.283 26.333,382.090 26.333 C 381.898 26.333,381.614 26.481,381.459 26.662 C 381.304 26.843,380.969 27.035,380.714 27.090 C 380.459 27.144,380.025 27.315,379.750 27.469 C 379.032 27.872,375.603 27.874,375.000 27.472 C 374.771 27.319,374.272 27.112,373.892 27.012 C 373.512 26.912,373.158 26.718,373.106 26.582 C 373.053 26.445,372.909 26.333,372.785 26.333 C 372.661 26.333,372.397 26.146,372.198 25.917 C 371.999 25.687,371.760 25.500,371.668 25.500 C 371.575 25.500,371.500 25.430,371.500 25.345 C 371.500 25.260,371.162 24.838,370.750 24.408 C 370.232 23.867,370.000 23.483,370.000 23.166 C 370.000 22.914,369.889 22.616,369.754 22.504 C 369.302 22.128,369.245 21.181,369.650 20.776 C 370.007 20.419,370.065 20.416,379.130 20.333 L 388.250 20.250 388.207 18.259 C 388.169 16.522,388.111 16.161,387.749 15.434 C 387.520 14.976,387.333 14.466,387.333 14.301 C 387.333 14.135,387.255 14.000,387.158 14.000 C 387.062 14.000,386.875 13.743,386.744 13.428 C 386.613 13.113,386.424 12.806,386.326 12.745 C 386.227 12.684,386.078 12.454,385.994 12.234 C 385.910 12.014,385.732 11.833,385.599 11.833 C 385.465 11.833,385.309 11.687,385.253 11.509 C 385.196 11.330,385.003 11.137,384.825 11.081 C 384.646 11.024,384.500 10.870,384.500 10.739 C 384.500 10.607,384.393 10.500,384.263 10.500 C 384.132 10.500,383.803 10.313,383.530 10.083 C 383.258 9.854,382.925 9.667,382.790 9.667 C 382.655 9.667,382.366 9.527,382.147 9.357 C 381.929 9.186,381.404 8.996,380.981 8.933 C 380.558 8.871,380.070 8.713,379.898 8.582 C 379.457 8.248,375.593 8.246,375.000 8.579 M243.830 8.976 C 243.671 13.816,243.884 22.876,244.170 23.468 C 244.352 23.843,244.500 24.443,244.500 24.799 C 244.500 25.237,244.609 25.547,244.833 25.750 C 245.017 25.916,245.167 26.134,245.167 26.234 C 245.167 26.692,248.196 29.500,248.690 29.500 C 248.847 29.500,249.103 29.627,249.258 29.782 C 250.050 30.574,255.893 30.597,256.604 29.811 C 256.758 29.640,257.016 29.500,257.177 29.500 C 257.338 29.500,257.820 29.159,258.248 28.743 C 259.342 27.680,260.109 27.901,260.200 29.305 L 260.250 30.083 261.543 30.132 L 262.836 30.181 262.793 19.549 L 262.750 8.917 261.250 8.921 L 259.750 8.925 259.667 16.088 C 259.591 22.558,259.555 23.290,259.292 23.662 C 259.131 23.889,259.000 24.189,258.999 24.329 C 258.998 24.711,257.211 26.638,256.521 27.002 C 254.920 27.845,254.841 27.863,252.989 27.806 C 251.645 27.764,251.124 27.683,250.892 27.482 C 250.722 27.334,250.326 27.128,250.013 27.022 C 249.699 26.917,249.300 26.700,249.128 26.540 C 248.215 25.698,247.819 25.211,247.664 24.742 C 247.570 24.456,247.344 23.932,247.163 23.576 C 246.850 22.962,246.833 22.574,246.833 15.923 L 246.833 8.917 245.333 8.893 C 244.508 8.880,243.832 8.917,243.830 8.976 M155.583 11.167 C 155.640 11.258,156.038 11.334,156.468 11.336 C 156.898 11.337,157.438 11.447,157.667 11.579 C 157.896 11.712,158.196 11.874,158.333 11.941 C 159.235 12.375,161.167 14.139,161.167 14.528 C 161.167 14.689,161.317 14.902,161.500 15.000 C 161.683 15.098,161.833 15.315,161.833 15.483 C 161.833 15.650,162.025 16.069,162.258 16.413 C 162.661 17.006,162.668 17.055,162.399 17.353 C 161.964 17.834,147.085 17.841,146.492 17.360 L 146.113 17.054 146.473 16.693 C 146.671 16.495,146.833 16.150,146.833 15.925 C 146.833 15.701,147.021 15.315,147.250 15.068 C 147.479 14.820,147.667 14.550,147.667 14.466 C 147.667 14.166,150.042 12.000,150.371 12.000 C 150.467 12.000,150.639 11.874,150.751 11.721 C 150.891 11.529,151.278 11.418,151.980 11.367 C 152.544 11.326,153.046 11.227,153.096 11.146 C 153.221 10.943,155.457 10.962,155.583 11.167 M379.613 11.286 C 380.179 11.363,380.779 11.547,380.946 11.694 C 381.113 11.840,381.419 12.012,381.625 12.075 C 381.832 12.138,382.078 12.334,382.173 12.511 C 382.268 12.688,382.425 12.833,382.522 12.833 C 382.676 12.833,383.488 13.642,384.653 14.956 C 384.835 15.162,385.033 15.590,385.093 15.909 C 385.153 16.227,385.306 16.575,385.434 16.681 C 385.761 16.952,385.723 17.291,385.344 17.494 C 384.855 17.756,369.796 17.730,369.533 17.467 C 369.248 17.181,369.291 16.813,369.667 16.333 C 369.846 16.104,369.994 15.785,369.996 15.623 C 369.998 15.462,370.150 15.202,370.333 15.045 C 370.517 14.888,370.667 14.661,370.667 14.540 C 370.667 14.246,372.476 12.480,373.092 12.171 C 373.362 12.036,373.762 11.792,373.981 11.629 C 374.245 11.433,374.676 11.333,375.263 11.333 C 375.749 11.333,376.197 11.252,376.258 11.154 C 376.373 10.968,377.656 11.018,379.613 11.286 M225.442 11.429 C 225.730 11.473,226.058 11.619,226.170 11.754 C 226.282 11.889,226.509 12.000,226.674 12.000 C 226.839 12.000,227.186 12.175,227.446 12.388 C 227.705 12.602,228.048 12.825,228.208 12.883 C 228.369 12.942,228.500 13.104,228.500 13.245 C 228.500 13.385,228.564 13.500,228.642 13.500 C 228.873 13.500,229.770 14.423,230.039 14.939 C 230.176 15.202,230.410 15.642,230.560 15.917 C 230.709 16.192,230.832 16.569,230.832 16.755 C 230.833 16.940,230.965 17.278,231.125 17.505 C 231.535 18.084,231.549 20.983,231.143 21.441 C 230.993 21.611,230.817 22.073,230.752 22.467 C 230.682 22.896,230.507 23.263,230.317 23.382 C 230.143 23.491,230.000 23.712,230.000 23.874 C 230.000 24.233,227.872 26.333,227.508 26.333 C 227.364 26.333,227.158 26.476,227.049 26.651 C 226.935 26.832,226.566 27.016,226.185 27.080 C 225.819 27.142,225.237 27.337,224.891 27.513 C 223.992 27.972,221.662 27.965,220.753 27.501 C 220.395 27.319,219.849 27.122,219.539 27.064 C 219.230 27.006,218.889 26.818,218.782 26.646 C 218.674 26.474,218.473 26.332,218.335 26.331 C 218.012 26.329,216.333 24.709,216.333 24.401 C 216.333 24.272,216.271 24.167,216.195 24.167 C 215.887 24.167,215.000 22.523,215.000 21.953 C 215.000 21.632,214.852 21.043,214.670 20.643 C 214.237 19.689,214.236 18.427,214.667 17.623 C 214.850 17.281,215.000 16.780,215.000 16.510 C 215.000 16.223,215.128 15.928,215.306 15.801 C 215.475 15.681,215.660 15.396,215.717 15.167 C 215.834 14.694,217.354 13.037,217.994 12.683 C 218.226 12.554,218.664 12.317,218.966 12.155 C 219.268 11.994,219.633 11.764,219.777 11.644 C 220.207 11.288,223.651 11.157,225.442 11.429 M302.750 11.720 C 304.891 12.829,306.129 13.894,306.682 15.103 C 306.855 15.480,307.109 15.883,307.248 15.998 C 307.407 16.131,307.500 16.495,307.500 16.989 C 307.500 17.418,307.610 17.915,307.745 18.093 C 308.076 18.531,308.076 20.469,307.745 20.907 C 307.610 21.085,307.500 21.542,307.500 21.923 C 307.500 22.403,307.398 22.707,307.167 22.917 C 306.983 23.083,306.833 23.313,306.833 23.428 C 306.833 23.544,306.665 23.838,306.458 24.081 C 305.604 25.089,305.035 25.667,304.895 25.667 C 304.814 25.667,304.653 25.817,304.539 26.000 C 304.424 26.183,304.227 26.333,304.100 26.333 C 303.973 26.333,303.827 26.442,303.776 26.575 C 303.725 26.707,303.361 26.897,302.967 26.996 C 302.573 27.095,302.025 27.305,301.750 27.463 C 301.044 27.868,297.684 27.880,297.226 27.479 C 297.056 27.331,296.646 27.160,296.315 27.101 C 295.983 27.042,295.578 26.845,295.414 26.663 C 295.249 26.482,294.981 26.333,294.818 26.333 C 294.431 26.333,292.687 24.539,292.551 24.000 C 292.493 23.771,292.308 23.485,292.140 23.366 C 291.963 23.240,291.833 22.944,291.833 22.667 C 291.833 22.402,291.667 21.905,291.465 21.561 C 290.866 20.546,290.822 18.133,291.384 17.058 C 291.616 16.614,291.847 16.059,291.898 15.825 C 291.948 15.591,292.286 15.079,292.649 14.686 C 293.012 14.293,293.349 13.865,293.399 13.736 C 293.449 13.606,293.604 13.500,293.745 13.500 C 293.885 13.500,294.000 13.385,294.000 13.245 C 294.000 13.104,294.131 12.942,294.292 12.883 C 294.452 12.825,294.795 12.602,295.054 12.388 C 295.314 12.175,295.645 12.000,295.791 12.000 C 295.937 12.000,296.198 11.872,296.371 11.716 C 297.035 11.115,301.588 11.117,302.750 11.720 "
       id="path1" />
  </g>
</svg>
