<svg id="svg" version="1.1" xmlns="http://www.w3.org/2000/svg" xmlns:xlink="http://www.w3.org/1999/xlink" width="400" height="583.0508474576271" viewBox="0, 0, 400,583.0508474576271"><g id="svgg"><path id="path0" d="M162.200 57.465 C 161.320 57.553,159.160 57.969,157.400 58.387 C 155.640 58.806,152.230 59.277,149.822 59.434 C 146.774 59.633,144.768 59.990,143.222 60.607 C 142.000 61.096,139.787 61.614,138.305 61.758 C 136.809 61.904,135.029 62.362,134.305 62.788 C 133.587 63.210,131.912 63.729,130.583 63.942 C 129.254 64.155,127.544 64.692,126.783 65.135 C 126.022 65.579,124.680 66.066,123.800 66.219 C 122.920 66.372,121.660 66.818,121.000 67.210 C 120.340 67.602,118.990 68.160,118.000 68.449 C 117.010 68.738,115.853 69.293,115.430 69.683 C 115.006 70.072,114.067 70.501,113.343 70.637 C 112.618 70.773,111.631 71.226,111.150 71.644 C 110.668 72.061,109.611 72.582,108.801 72.800 C 107.990 73.018,107.007 73.551,106.615 73.983 C 106.224 74.416,105.250 74.984,104.452 75.246 C 103.653 75.508,102.765 76.055,102.477 76.461 C 102.190 76.868,101.720 77.200,101.432 77.200 C 101.145 77.200,100.246 77.728,99.434 78.373 C 98.623 79.018,97.428 79.662,96.779 79.805 C 96.131 79.947,95.600 80.301,95.600 80.592 C 95.600 80.883,94.970 81.493,94.200 81.947 C 93.430 82.401,92.800 82.947,92.800 83.160 C 92.800 83.372,92.444 83.659,92.009 83.797 C 91.574 83.935,90.477 84.667,89.571 85.424 C 88.665 86.181,87.683 86.800,87.389 86.800 C 87.095 86.800,86.740 87.160,86.600 87.600 C 86.460 88.040,86.176 88.400,85.968 88.400 C 85.558 88.400,82.438 91.299,77.880 95.917 C 72.455 101.412,70.938 103.063,70.667 103.769 C 70.518 104.158,70.037 104.570,69.598 104.685 C 69.159 104.799,68.800 105.125,68.800 105.409 C 68.800 105.692,68.170 106.678,67.400 107.600 C 66.630 108.522,66.000 109.458,66.000 109.680 C 66.000 109.903,65.550 110.439,65.000 110.871 C 64.450 111.304,64.000 111.902,64.000 112.200 C 64.000 112.498,63.588 113.070,63.085 113.471 C 62.581 113.872,61.915 114.830,61.605 115.600 C 61.294 116.370,60.730 117.225,60.352 117.500 C 59.973 117.776,59.548 118.528,59.406 119.173 C 59.264 119.817,58.866 120.580,58.520 120.867 C 58.174 121.154,57.560 122.160,57.156 123.103 C 56.752 124.046,56.155 124.919,55.830 125.044 C 55.496 125.172,55.121 126.052,54.969 127.067 C 54.821 128.054,54.352 129.186,53.926 129.583 C 53.501 129.979,52.898 131.269,52.587 132.449 C 52.276 133.630,51.744 134.798,51.407 135.045 C 51.069 135.292,50.604 136.553,50.374 137.847 C 50.143 139.141,49.605 140.687,49.178 141.282 C 48.737 141.898,48.226 143.609,47.993 145.248 C 47.768 146.834,47.254 148.686,46.849 149.365 C 46.350 150.204,45.976 152.081,45.683 155.210 C 45.445 157.746,44.925 160.716,44.526 161.810 C 43.453 164.751,43.429 187.696,44.496 190.299 C 44.881 191.238,45.395 194.192,45.644 196.899 C 45.964 200.368,46.317 202.166,46.852 203.054 C 47.268 203.743,47.786 205.711,48.003 207.427 C 48.278 209.592,48.643 210.807,49.197 211.396 C 49.635 211.863,50.110 213.091,50.252 214.124 C 50.393 215.158,50.843 216.389,51.252 216.860 C 51.985 217.705,52.793 219.996,52.798 221.242 C 52.799 221.594,53.242 222.360,53.782 222.943 C 54.322 223.526,54.883 224.637,55.029 225.412 C 55.174 226.187,55.618 226.995,56.014 227.208 C 56.411 227.420,56.856 228.143,57.003 228.815 C 57.151 229.486,57.694 230.492,58.211 231.050 C 58.728 231.607,59.263 232.576,59.400 233.202 C 59.538 233.829,60.089 234.629,60.625 234.980 C 61.161 235.331,61.600 235.886,61.600 236.213 C 61.600 236.540,62.140 237.372,62.800 238.063 C 63.460 238.754,64.000 239.580,64.000 239.899 C 64.000 240.218,64.495 240.980,65.100 241.591 C 65.705 242.203,66.740 243.461,67.400 244.386 C 68.677 246.176,70.527 248.351,72.187 250.015 C 72.744 250.573,73.200 251.228,73.200 251.469 C 73.200 251.710,73.636 252.194,74.170 252.543 C 74.703 252.893,75.255 253.543,75.397 253.989 C 75.538 254.435,75.916 254.800,76.236 254.800 C 76.555 254.800,77.022 255.250,77.273 255.800 C 77.523 256.350,77.879 256.800,78.062 256.800 C 78.246 256.800,79.933 258.330,81.811 260.200 C 83.690 262.070,85.405 263.600,85.622 263.600 C 85.839 263.600,86.213 264.030,86.453 264.556 C 86.692 265.082,87.273 265.711,87.744 265.953 C 88.215 266.196,89.680 267.301,91.000 268.409 C 92.320 269.517,93.707 270.527,94.081 270.654 C 94.456 270.780,95.045 271.315,95.391 271.842 C 95.736 272.369,96.274 272.800,96.587 272.800 C 96.899 272.800,97.390 273.133,97.677 273.540 C 97.965 273.948,98.740 274.561,99.400 274.903 C 100.060 275.245,101.140 275.991,101.800 276.562 C 102.460 277.132,103.215 277.599,103.477 277.600 C 103.740 277.600,104.190 277.915,104.477 278.300 C 104.765 278.685,105.675 279.343,106.500 279.763 C 107.325 280.183,108.000 280.656,108.000 280.814 C 108.000 280.973,108.522 281.319,109.160 281.584 C 109.799 281.848,110.730 282.500,111.230 283.032 C 111.730 283.564,112.335 284.000,112.574 284.000 C 112.813 284.000,113.493 284.450,114.087 285.000 C 114.680 285.550,115.347 286.000,115.569 286.000 C 115.791 286.000,116.573 286.528,117.308 287.173 C 118.042 287.818,119.112 288.463,119.684 288.607 C 120.256 288.750,121.133 289.302,121.632 289.834 C 122.131 290.365,122.869 290.800,123.272 290.800 C 123.675 290.800,124.389 291.241,124.858 291.780 C 125.326 292.319,126.203 292.869,126.805 293.001 C 127.407 293.133,128.314 293.682,128.819 294.221 C 129.325 294.759,129.951 295.200,130.210 295.200 C 130.468 295.200,131.425 295.740,132.337 296.400 C 133.248 297.060,134.183 297.600,134.415 297.600 C 134.647 297.600,135.263 298.027,135.785 298.548 C 136.306 299.070,137.168 299.606,137.700 299.739 C 138.232 299.873,139.352 300.526,140.189 301.191 C 141.025 301.856,141.945 302.400,142.232 302.400 C 142.520 302.400,142.990 302.732,143.277 303.139 C 143.565 303.545,144.474 304.099,145.299 304.369 C 146.123 304.640,147.023 305.180,147.299 305.569 C 147.574 305.959,148.453 306.492,149.252 306.754 C 150.050 307.016,151.008 307.567,151.381 307.979 C 151.754 308.391,152.529 308.846,153.103 308.990 C 153.677 309.134,154.649 309.675,155.264 310.192 C 155.878 310.709,156.947 311.257,157.639 311.409 C 158.357 311.566,158.978 311.994,159.085 312.405 C 159.202 312.851,159.809 313.225,160.682 313.389 C 161.456 313.534,162.511 314.075,163.027 314.591 C 163.543 315.107,164.520 315.651,165.199 315.800 C 165.878 315.949,166.831 316.483,167.317 316.986 C 167.803 317.489,168.740 318.027,169.400 318.181 C 170.060 318.336,170.933 318.763,171.340 319.131 C 172.071 319.791,173.685 320.702,177.200 322.436 C 178.190 322.925,179.180 323.545,179.400 323.814 C 179.620 324.084,180.281 324.416,180.869 324.552 C 181.457 324.688,182.447 325.222,183.069 325.739 C 183.691 326.256,184.681 326.796,185.269 326.939 C 185.857 327.082,186.873 327.650,187.527 328.200 C 188.181 328.750,188.960 329.205,189.258 329.211 C 189.556 329.217,190.507 329.757,191.371 330.411 C 192.235 331.065,193.239 331.600,193.602 331.600 C 193.964 331.600,194.667 332.033,195.164 332.562 C 195.661 333.091,196.687 333.640,197.443 333.782 C 198.199 333.924,199.039 334.395,199.309 334.830 C 199.579 335.265,200.473 335.802,201.296 336.025 C 202.119 336.247,203.236 336.872,203.778 337.414 C 204.320 337.956,205.107 338.400,205.527 338.400 C 205.947 338.400,206.969 338.940,207.800 339.600 C 208.631 340.260,209.529 340.800,209.797 340.800 C 210.064 340.800,210.751 341.234,211.324 341.764 C 211.896 342.295,212.934 342.854,213.631 343.007 C 214.327 343.160,214.977 343.590,215.074 343.963 C 215.177 344.354,216.007 344.864,217.037 345.168 C 218.019 345.458,218.996 346.019,219.208 346.415 C 219.420 346.811,220.122 347.251,220.769 347.393 C 221.416 347.535,222.180 347.934,222.467 348.280 C 222.754 348.626,223.760 349.240,224.703 349.644 C 225.646 350.048,226.518 350.643,226.642 350.965 C 226.766 351.287,227.383 351.665,228.015 351.803 C 228.646 351.942,229.640 352.431,230.225 352.891 C 231.322 353.754,233.381 354.943,236.257 356.375 C 237.169 356.828,238.011 357.453,238.130 357.762 C 238.249 358.071,238.904 358.447,239.586 358.597 C 240.268 358.747,241.401 359.394,242.102 360.035 C 242.804 360.676,243.607 361.200,243.886 361.200 C 244.165 361.200,244.618 361.560,244.893 362.000 C 245.168 362.440,245.579 362.800,245.807 362.800 C 246.240 362.800,249.974 365.453,251.456 366.814 C 251.927 367.246,252.472 367.600,252.667 367.600 C 252.862 367.600,253.493 368.095,254.069 368.700 C 254.644 369.305,255.777 370.340,256.587 371.000 C 257.396 371.660,258.450 372.584,258.929 373.052 C 259.408 373.521,260.771 374.754,261.958 375.792 C 263.145 376.830,265.445 379.237,267.070 381.140 C 268.695 383.043,270.469 385.052,271.012 385.604 C 271.555 386.157,272.000 386.811,272.000 387.058 C 272.000 387.306,272.450 387.803,273.000 388.163 C 273.550 388.524,274.000 389.058,274.000 389.350 C 274.000 389.642,274.540 390.446,275.200 391.137 C 275.860 391.828,276.400 392.673,276.400 393.015 C 276.400 393.358,276.823 394.035,277.341 394.519 C 277.858 395.004,278.497 396.059,278.760 396.865 C 279.023 397.670,279.496 398.428,279.809 398.548 C 280.123 398.669,280.590 399.600,280.846 400.618 C 281.102 401.635,281.540 402.556,281.819 402.663 C 282.355 402.868,282.965 404.226,283.392 406.168 C 283.534 406.811,283.984 407.761,284.392 408.280 C 284.800 408.799,285.261 409.976,285.416 410.895 C 285.571 411.814,286.110 413.203,286.614 413.983 C 287.117 414.762,287.655 416.369,287.809 417.553 C 287.964 418.737,288.435 420.292,288.858 421.008 C 289.454 422.019,289.717 423.638,290.035 428.255 C 290.259 431.525,290.584 435.338,290.755 436.729 C 290.971 438.474,290.902 439.896,290.534 441.316 C 290.240 442.448,289.998 444.460,289.996 445.787 C 289.989 449.137,289.623 451.025,288.808 451.899 C 288.425 452.310,287.911 453.790,287.665 455.188 C 287.419 456.586,286.875 458.106,286.458 458.565 C 286.040 459.024,285.577 460.085,285.427 460.922 C 285.274 461.782,284.730 462.814,284.178 463.294 C 283.640 463.762,283.200 464.537,283.200 465.017 C 283.200 465.497,282.660 466.569,282.000 467.400 C 281.340 468.231,280.800 469.176,280.800 469.502 C 280.800 469.828,280.260 470.709,279.600 471.461 C 278.940 472.213,278.400 473.090,278.400 473.411 C 278.400 473.731,278.027 474.220,277.571 474.497 C 277.115 474.773,276.494 475.585,276.192 476.300 C 275.889 477.015,275.384 477.600,275.070 477.600 C 274.757 477.600,274.395 478.125,274.267 478.767 C 274.048 479.862,273.218 480.991,270.767 483.530 C 270.198 484.118,269.517 485.005,269.252 485.500 C 268.988 485.995,268.553 486.401,268.286 486.403 C 268.019 486.404,267.493 486.944,267.119 487.603 C 266.744 488.261,266.188 488.800,265.883 488.800 C 265.578 488.800,265.123 489.250,264.873 489.800 C 264.622 490.350,264.240 490.800,264.023 490.800 C 263.533 490.800,252.393 501.941,251.461 503.362 C 251.087 503.933,250.528 504.400,250.218 504.400 C 249.908 504.400,249.540 504.760,249.400 505.200 C 249.260 505.641,248.756 506.209,248.281 506.464 C 247.805 506.719,247.084 507.348,246.679 507.864 C 246.273 508.379,245.754 508.800,245.524 508.800 C 245.294 508.800,244.491 509.340,243.739 510.000 C 242.987 510.660,242.017 511.200,241.583 511.200 C 241.150 511.200,240.411 511.641,239.942 512.180 C 239.474 512.719,238.530 513.283,237.845 513.433 C 237.160 513.582,236.215 514.119,235.743 514.626 C 235.272 515.133,234.192 515.677,233.343 515.835 C 232.495 515.993,231.565 516.454,231.278 516.860 C 230.991 517.265,230.029 517.714,229.141 517.856 C 228.253 517.998,227.039 518.523,226.445 519.024 C 225.851 519.524,224.652 520.060,223.782 520.216 C 222.912 520.372,221.816 520.848,221.347 521.275 C 220.812 521.762,219.433 522.209,217.652 522.473 C 214.761 522.902,214.298 523.324,216.292 523.713 C 218.786 524.199,238.275 523.374,239.256 522.741 C 240.585 521.883,241.702 521.620,245.738 521.212 C 247.986 520.985,249.532 520.623,249.979 520.219 C 250.366 519.869,251.852 519.338,253.283 519.039 C 254.713 518.739,256.315 518.215,256.842 517.873 C 257.369 517.532,258.700 517.037,259.800 516.775 C 260.900 516.513,261.980 516.080,262.200 515.813 C 262.420 515.546,263.545 515.015,264.700 514.632 C 265.855 514.249,266.800 513.794,266.800 513.621 C 266.800 513.448,267.655 512.922,268.700 512.451 C 270.523 511.630,271.799 510.823,274.764 508.616 C 275.515 508.057,276.337 507.600,276.592 507.600 C 276.847 507.600,277.447 507.150,277.925 506.600 C 278.403 506.050,279.067 505.600,279.400 505.600 C 279.733 505.600,280.385 505.163,280.849 504.629 C 281.314 504.095,282.213 503.443,282.847 503.181 C 283.481 502.918,284.000 502.467,284.000 502.178 C 284.000 501.890,284.338 501.547,284.750 501.416 C 285.415 501.205,286.814 500.068,289.414 497.626 C 289.862 497.205,290.715 496.640,291.309 496.369 C 291.903 496.098,292.665 495.454,293.004 494.938 C 293.342 494.422,293.864 494.000,294.163 494.000 C 294.463 494.000,294.994 493.564,295.343 493.030 C 295.693 492.497,296.324 491.951,296.746 491.817 C 297.168 491.683,297.606 491.222,297.718 490.792 C 297.831 490.362,298.375 489.838,298.927 489.628 C 299.480 489.418,300.049 488.876,300.193 488.423 C 300.336 487.970,300.615 487.600,300.812 487.600 C 301.009 487.600,302.264 486.520,303.600 485.200 C 304.936 483.880,306.191 482.800,306.388 482.800 C 306.585 482.800,306.852 482.467,306.981 482.061 C 307.110 481.654,307.662 481.118,308.208 480.869 C 308.753 480.621,309.200 480.199,309.200 479.932 C 309.200 479.665,310.190 478.502,311.400 477.349 C 312.610 476.196,313.600 475.122,313.600 474.962 C 313.600 474.803,314.500 473.796,315.600 472.725 C 316.700 471.653,317.600 470.678,317.600 470.557 C 317.600 470.436,318.725 469.011,320.100 467.390 C 321.475 465.769,323.140 463.697,323.800 462.785 C 324.460 461.873,325.360 460.738,325.800 460.264 C 326.240 459.789,326.943 458.725,327.363 457.900 C 327.783 457.075,328.273 456.400,328.453 456.400 C 328.632 456.400,329.081 455.815,329.449 455.100 C 329.818 454.385,330.452 453.565,330.860 453.277 C 331.267 452.990,331.600 452.521,331.600 452.236 C 331.600 451.950,332.033 451.250,332.562 450.678 C 333.092 450.107,333.728 449.023,333.977 448.268 C 334.226 447.514,334.766 446.593,335.175 446.222 C 335.585 445.851,336.036 444.935,336.176 444.185 C 336.317 443.436,336.765 442.590,337.172 442.305 C 337.579 442.020,338.144 441.014,338.426 440.070 C 338.709 439.125,339.253 438.186,339.634 437.982 C 340.039 437.765,340.442 436.899,340.601 435.905 C 340.751 434.967,341.294 433.570,341.807 432.800 C 342.321 432.030,342.865 430.543,343.017 429.495 C 343.168 428.448,343.624 427.169,344.029 426.654 C 344.496 426.060,344.986 424.238,345.372 421.662 C 345.711 419.393,346.291 417.127,346.689 416.520 C 347.707 414.965,347.747 396.489,346.737 394.600 C 345.995 393.213,345.740 391.776,345.227 386.062 C 344.965 383.153,344.655 381.702,344.182 381.180 C 343.772 380.727,343.332 379.118,343.055 377.058 C 342.768 374.928,342.342 373.395,341.900 372.909 C 341.516 372.485,340.995 371.072,340.743 369.769 C 340.492 368.466,339.937 367.013,339.510 366.539 C 339.083 366.066,338.631 364.896,338.505 363.939 C 338.379 362.983,337.877 361.660,337.390 361.000 C 336.903 360.340,336.382 359.280,336.231 358.645 C 336.081 358.010,335.517 356.913,334.979 356.208 C 334.440 355.502,334.000 354.569,334.000 354.133 C 334.000 353.698,333.465 352.635,332.811 351.771 C 332.157 350.907,331.617 349.913,331.611 349.562 C 331.605 349.211,331.215 348.581,330.745 348.162 C 330.274 347.743,329.637 346.860,329.327 346.200 C 328.713 344.888,327.200 342.591,326.247 341.521 C 325.915 341.148,325.337 340.248,324.964 339.521 C 324.591 338.795,323.861 337.804,323.343 337.319 C 322.824 336.835,322.400 336.172,322.400 335.846 C 322.400 335.520,322.040 335.140,321.600 335.000 C 321.160 334.860,320.800 334.581,320.800 334.380 C 320.800 334.179,320.305 333.456,319.700 332.775 C 319.095 332.093,317.790 330.620,316.800 329.502 C 313.359 325.615,303.788 316.400,303.191 316.400 C 303.006 316.400,302.740 316.040,302.600 315.601 C 302.461 315.161,301.896 314.689,301.344 314.550 C 300.793 314.412,300.179 313.871,299.981 313.349 C 299.782 312.827,299.333 312.400,298.983 312.400 C 298.395 312.400,297.240 311.574,293.808 308.700 C 293.085 308.095,292.303 307.600,292.070 307.600 C 291.836 307.600,291.410 307.285,291.123 306.900 C 290.835 306.515,289.970 305.881,289.200 305.491 C 287.632 304.697,285.486 303.254,284.037 302.020 C 283.507 301.569,282.811 301.200,282.489 301.200 C 282.168 301.200,281.291 300.660,280.539 300.000 C 279.787 299.340,278.929 298.800,278.632 298.800 C 278.335 298.800,277.797 298.350,277.437 297.800 C 277.076 297.250,276.450 296.800,276.046 296.800 C 275.641 296.800,274.631 296.260,273.800 295.600 C 272.969 294.940,272.069 294.400,271.800 294.400 C 271.531 294.400,270.631 293.860,269.800 293.200 C 268.969 292.540,267.987 292.000,267.617 292.000 C 267.247 292.000,266.569 291.568,266.110 291.040 C 265.650 290.512,264.741 289.963,264.088 289.819 C 263.435 289.676,262.486 289.118,261.981 288.579 C 261.475 288.041,260.757 287.600,260.385 287.600 C 260.014 287.600,259.031 287.060,258.200 286.400 C 257.369 285.740,256.452 285.200,256.161 285.200 C 255.870 285.200,255.220 284.772,254.716 284.250 C 254.212 283.727,253.290 283.180,252.666 283.034 C 252.042 282.887,251.122 282.325,250.620 281.784 C 250.119 281.243,249.364 280.800,248.943 280.800 C 248.523 280.800,247.587 280.260,246.864 279.600 C 246.142 278.940,245.233 278.400,244.845 278.400 C 244.457 278.400,243.735 277.970,243.242 277.444 C 242.748 276.919,241.822 276.384,241.184 276.257 C 240.547 276.129,239.639 275.639,239.168 275.168 C 238.697 274.697,237.700 274.142,236.953 273.936 C 236.206 273.730,235.281 273.227,234.897 272.819 C 234.514 272.411,233.438 271.874,232.507 271.625 C 231.576 271.376,230.637 270.843,230.421 270.439 C 230.205 270.036,229.507 269.601,228.870 269.474 C 228.233 269.347,227.166 268.783,226.498 268.221 C 225.831 267.660,225.023 267.200,224.702 267.200 C 224.382 267.200,223.328 266.663,222.360 266.007 C 221.392 265.351,220.313 264.811,219.962 264.807 C 219.611 264.803,219.023 264.468,218.656 264.062 C 218.289 263.656,217.258 263.083,216.365 262.789 C 215.473 262.494,214.530 261.971,214.271 261.626 C 214.012 261.281,213.080 260.753,212.200 260.452 C 211.320 260.151,210.240 259.589,209.800 259.205 C 209.360 258.820,208.519 258.391,207.931 258.253 C 207.343 258.114,206.353 257.578,205.731 257.061 C 205.109 256.544,204.100 256.000,203.490 255.851 C 202.879 255.702,202.029 255.229,201.600 254.800 C 201.171 254.371,200.321 253.902,199.710 253.758 C 199.100 253.613,198.232 253.162,197.783 252.756 C 197.333 252.349,196.343 251.804,195.583 251.544 C 194.822 251.285,193.691 250.651,193.069 250.136 C 192.447 249.621,191.696 249.200,191.400 249.200 C 191.104 249.200,190.353 248.779,189.731 248.264 C 189.109 247.749,187.987 247.119,187.237 246.863 C 186.487 246.607,185.644 246.070,185.364 245.670 C 185.084 245.270,184.123 244.724,183.227 244.455 C 182.332 244.187,181.600 243.789,181.600 243.570 C 181.600 243.351,180.786 242.823,179.792 242.396 C 178.797 241.970,177.884 241.364,177.764 241.050 C 177.643 240.736,176.927 240.363,176.172 240.221 C 175.416 240.079,174.394 239.543,173.899 239.028 C 173.405 238.514,172.312 237.874,171.472 237.606 C 170.632 237.338,169.851 236.876,169.737 236.579 C 169.623 236.282,168.916 235.836,168.166 235.589 C 167.416 235.341,166.577 234.822,166.301 234.434 C 166.026 234.046,165.289 233.603,164.666 233.448 C 164.042 233.294,163.112 232.748,162.599 232.236 C 162.087 231.723,161.232 231.194,160.700 231.061 C 160.168 230.927,159.048 230.274,158.211 229.609 C 157.375 228.944,156.451 228.400,156.159 228.400 C 155.867 228.400,155.442 228.052,155.214 227.627 C 154.987 227.202,154.396 226.727,153.900 226.571 C 153.405 226.415,152.374 225.772,151.609 225.143 C 150.844 224.515,149.999 224.000,149.732 224.000 C 149.464 224.000,149.010 223.682,148.723 223.294 C 148.435 222.905,147.679 222.357,147.041 222.076 C 145.882 221.563,144.743 220.764,142.232 218.700 C 141.497 218.095,140.718 217.600,140.502 217.600 C 140.286 217.600,139.431 217.060,138.600 216.400 C 137.769 215.740,136.849 215.200,136.554 215.200 C 136.260 215.200,135.735 214.767,135.388 214.238 C 135.042 213.709,134.329 213.169,133.806 213.037 C 133.282 212.906,132.739 212.439,132.600 211.999 C 132.460 211.560,132.099 211.200,131.797 211.200 C 131.242 211.200,128.250 208.887,126.385 207.018 C 125.827 206.458,125.158 206.000,124.899 206.000 C 124.640 206.000,124.231 205.631,123.990 205.181 C 123.749 204.730,123.095 204.188,122.537 203.976 C 121.979 203.764,121.433 203.248,121.323 202.829 C 121.214 202.410,120.722 201.967,120.231 201.843 C 119.739 201.720,119.130 201.165,118.877 200.610 C 118.624 200.054,118.139 199.600,117.800 199.600 C 117.461 199.600,116.979 199.153,116.731 198.608 C 116.482 198.062,115.935 197.506,115.515 197.373 C 115.095 197.240,114.553 196.696,114.311 196.165 C 114.070 195.634,113.627 195.200,113.327 195.200 C 113.028 195.200,112.579 194.753,112.330 194.206 C 112.081 193.659,111.454 192.935,110.938 192.596 C 110.422 192.258,110.000 191.736,110.000 191.437 C 110.000 191.137,109.550 190.597,109.000 190.237 C 108.450 189.876,108.000 189.349,108.000 189.066 C 108.000 188.782,107.460 188.032,106.800 187.400 C 106.140 186.768,105.600 185.952,105.600 185.586 C 105.600 185.221,105.217 184.490,104.749 183.961 C 104.281 183.433,103.662 182.446,103.372 181.768 C 103.083 181.091,102.588 180.322,102.273 180.061 C 101.958 179.799,101.467 178.733,101.182 177.692 C 100.897 176.652,100.350 175.390,99.965 174.888 C 99.581 174.387,99.142 173.217,98.991 172.288 C 98.839 171.360,98.354 170.006,97.913 169.281 C 97.344 168.345,97.021 166.837,96.799 164.081 C 96.628 161.946,96.269 158.731,96.003 156.936 C 95.630 154.422,95.625 152.721,95.981 149.536 C 96.236 147.261,96.602 143.931,96.794 142.135 C 96.986 140.339,97.409 138.356,97.733 137.730 C 98.057 137.103,98.549 135.438,98.826 134.030 C 99.103 132.622,99.628 131.172,99.993 130.807 C 100.357 130.443,100.889 129.311,101.174 128.292 C 101.459 127.274,102.032 126.133,102.446 125.758 C 102.861 125.383,103.200 124.690,103.200 124.218 C 103.200 123.323,105.970 118.728,107.259 117.484 C 107.666 117.091,108.000 116.558,108.000 116.299 C 108.000 116.041,108.448 115.373,108.996 114.815 C 111.038 112.735,111.945 111.604,112.190 110.832 C 112.509 109.827,121.488 101.223,122.697 100.763 C 123.194 100.574,123.600 100.149,123.600 99.818 C 123.600 99.486,124.041 99.105,124.579 98.970 C 125.117 98.834,125.831 98.307,126.165 97.797 C 126.500 97.287,127.296 96.755,127.936 96.614 C 128.576 96.473,129.514 95.918,130.019 95.379 C 130.525 94.841,131.236 94.400,131.598 94.400 C 131.960 94.400,132.850 93.870,133.576 93.221 C 134.303 92.573,135.415 91.929,136.048 91.789 C 136.682 91.650,137.200 91.362,137.200 91.148 C 137.200 90.641,139.705 89.600,140.925 89.600 C 141.448 89.600,142.186 89.257,142.566 88.838 C 142.966 88.395,144.333 87.862,145.828 87.565 C 147.242 87.283,148.400 86.926,148.400 86.769 C 148.400 86.343,149.467 85.975,153.000 85.181 C 154.760 84.786,157.184 84.178,158.387 83.831 C 159.590 83.484,161.570 83.199,162.787 83.197 C 164.004 83.195,166.980 82.928,169.400 82.604 C 174.518 81.919,182.357 81.828,185.800 82.412 C 187.120 82.636,190.932 82.981,194.271 83.177 C 198.444 83.423,200.776 83.741,201.729 84.193 C 202.491 84.555,204.566 85.083,206.338 85.367 C 208.111 85.651,209.984 86.160,210.500 86.498 C 211.016 86.836,212.662 87.303,214.158 87.536 C 215.654 87.769,217.325 88.252,217.871 88.610 C 218.417 88.968,219.879 89.525,221.119 89.848 C 222.359 90.171,223.701 90.787,224.102 91.217 C 224.543 91.691,225.356 92.000,226.160 92.000 C 226.924 92.000,228.126 92.433,228.990 93.019 C 229.816 93.580,231.056 94.149,231.746 94.284 C 232.436 94.418,233.540 94.929,234.200 95.418 C 234.860 95.907,235.850 96.439,236.400 96.600 C 236.950 96.760,237.760 97.209,238.200 97.597 C 238.640 97.984,239.674 98.517,240.499 98.781 C 241.323 99.045,242.223 99.578,242.499 99.966 C 242.774 100.354,243.529 100.802,244.176 100.962 C 245.304 101.241,246.576 102.125,249.271 104.500 C 249.957 105.105,250.764 105.600,251.063 105.600 C 251.362 105.600,252.172 106.140,252.863 106.800 C 253.554 107.460,254.358 108.000,254.650 108.000 C 254.942 108.000,255.476 108.450,255.837 109.000 C 256.197 109.550,256.743 110.000,257.050 110.000 C 257.356 110.000,258.126 110.495,258.759 111.100 C 259.392 111.705,261.679 113.820,263.841 115.800 C 270.343 121.754,274.400 126.233,274.400 127.455 C 274.400 127.755,274.664 128.000,274.986 128.000 C 275.308 128.000,275.785 128.405,276.045 128.900 C 276.305 129.395,277.392 130.816,278.461 132.057 C 279.530 133.299,280.676 134.964,281.008 135.757 C 281.339 136.551,281.798 137.200,282.026 137.200 C 282.254 137.200,282.719 137.875,283.059 138.700 C 283.399 139.525,283.999 140.560,284.392 141.000 C 284.786 141.440,285.243 142.250,285.409 142.800 C 285.574 143.350,286.120 144.291,286.621 144.890 C 287.122 145.490,287.659 146.559,287.814 147.265 C 287.970 147.972,288.435 148.831,288.849 149.175 C 289.264 149.519,289.755 150.634,289.941 151.654 C 290.127 152.673,290.644 154.023,291.090 154.654 C 291.536 155.284,292.030 156.430,292.188 157.200 C 292.346 157.970,292.889 159.230,293.394 160.000 C 293.900 160.770,294.438 162.120,294.590 163.000 C 294.743 163.880,295.097 164.870,295.377 165.200 C 296.084 166.032,296.800 168.290,296.800 169.684 C 296.800 170.325,297.240 171.783,297.777 172.925 C 298.314 174.066,298.877 175.990,299.027 177.200 C 299.177 178.410,299.644 179.973,300.066 180.673 C 300.537 181.457,300.999 183.379,301.266 185.673 C 301.504 187.723,301.968 189.925,302.295 190.568 C 302.623 191.210,303.130 193.676,303.423 196.048 C 303.733 198.552,304.232 200.783,304.615 201.367 C 305.076 202.070,305.333 203.610,305.471 206.486 C 305.809 213.520,305.883 213.600,312.041 213.600 C 316.937 213.600,316.417 223.245,316.301 134.569 L 316.200 57.400 311.000 57.400 L 305.800 57.400 305.571 60.062 C 305.445 61.526,305.056 63.160,304.707 63.693 C 304.358 64.226,303.787 65.623,303.438 66.798 C 303.089 67.972,302.556 69.218,302.252 69.567 C 301.949 69.915,301.472 70.920,301.193 71.800 C 300.913 72.680,300.265 73.940,299.752 74.600 C 297.849 77.050,295.391 79.600,294.934 79.600 C 294.674 79.600,293.937 80.041,293.296 80.581 C 292.531 81.225,291.265 81.701,289.612 81.967 C 288.226 82.190,286.788 82.649,286.415 82.986 C 285.508 83.807,279.337 83.852,278.187 83.046 C 277.752 82.741,276.047 82.286,274.398 82.035 C 272.641 81.767,270.940 81.243,270.289 80.769 C 269.678 80.324,268.238 79.859,267.089 79.735 C 265.940 79.611,264.370 79.108,263.600 78.617 C 262.830 78.127,261.254 77.499,260.097 77.222 C 258.941 76.945,257.843 76.449,257.659 76.119 C 257.474 75.790,256.451 75.357,255.385 75.158 C 254.319 74.958,253.076 74.451,252.623 74.030 C 252.171 73.609,251.080 73.141,250.200 72.989 C 249.320 72.837,247.970 72.295,247.200 71.784 C 246.430 71.274,245.080 70.736,244.200 70.590 C 243.320 70.445,242.150 70.013,241.600 69.630 C 241.050 69.248,239.467 68.715,238.083 68.444 C 236.699 68.174,234.989 67.623,234.283 67.219 C 233.577 66.816,232.184 66.371,231.187 66.231 C 230.190 66.091,228.754 65.600,227.997 65.140 C 227.224 64.669,225.403 64.150,223.841 63.954 C 222.313 63.762,220.297 63.234,219.362 62.782 C 218.365 62.299,216.451 61.865,214.731 61.733 C 213.046 61.603,210.865 61.115,209.600 60.585 C 207.885 59.865,206.122 59.575,201.600 59.269 C 197.860 59.016,195.161 58.627,194.000 58.174 C 192.259 57.494,167.416 56.941,162.200 57.465 " stroke="none" fill="#f7f7f7" fill-rule="evenodd"></path><path id="path1" d="M128.402 344.737 C 127.776 345.362,127.070 346.599,126.831 347.485 C 126.592 348.371,126.053 349.534,125.632 350.069 C 125.210 350.604,124.741 351.710,124.588 352.525 C 124.435 353.340,123.996 354.410,123.613 354.903 C 123.230 355.397,122.687 356.520,122.408 357.400 C 122.128 358.280,121.670 359.270,121.391 359.600 C 121.112 359.930,120.582 361.100,120.213 362.200 C 119.844 363.300,119.304 364.470,119.013 364.800 C 118.722 365.130,118.195 366.261,117.842 367.314 C 117.489 368.367,116.948 369.627,116.639 370.114 C 116.331 370.601,115.950 371.630,115.793 372.400 C 115.637 373.170,115.056 374.880,114.504 376.200 C 113.374 378.901,113.389 383.956,114.539 387.613 C 114.853 388.611,115.329 391.118,115.598 393.186 C 115.867 395.254,116.347 397.678,116.666 398.573 C 116.984 399.468,117.513 401.730,117.842 403.600 C 118.170 405.470,118.694 407.389,119.005 407.864 C 119.316 408.339,119.744 409.805,119.957 411.122 C 120.169 412.440,120.711 414.391,121.161 415.459 C 121.612 416.526,122.175 418.300,122.412 419.400 C 122.650 420.500,123.098 421.788,123.407 422.263 C 123.717 422.737,124.183 423.997,124.444 425.063 C 124.705 426.128,125.341 427.736,125.859 428.635 C 126.377 429.534,126.801 430.524,126.802 430.835 C 126.802 431.146,127.342 432.480,128.000 433.800 C 128.658 435.120,129.198 436.454,129.198 436.765 C 129.199 437.076,129.626 438.066,130.146 438.965 C 130.666 439.864,131.313 441.284,131.584 442.121 C 132.349 444.488,133.007 443.731,132.951 440.549 C 132.918 438.705,132.629 437.179,132.088 435.989 C 131.576 434.864,131.108 432.528,130.826 429.696 C 130.579 427.218,130.181 424.698,129.941 424.096 C 129.016 421.769,128.795 419.903,128.390 411.019 C 127.922 400.758,128.417 389.820,129.476 387.000 C 129.807 386.120,130.403 383.665,130.800 381.545 C 131.198 379.424,131.797 377.264,132.133 376.745 C 132.468 376.225,132.939 374.368,133.179 372.619 C 133.418 370.869,133.898 369.005,134.245 368.476 C 134.591 367.947,135.123 365.979,135.427 364.103 C 135.730 362.227,136.253 360.273,136.589 359.761 C 136.924 359.249,137.372 357.608,137.584 356.115 C 137.797 354.622,138.176 352.812,138.427 352.093 C 139.089 350.197,138.617 348.890,136.989 348.114 C 136.225 347.750,135.600 347.296,135.600 347.106 C 135.600 346.915,135.015 346.511,134.300 346.207 C 133.585 345.904,132.380 345.193,131.622 344.628 C 129.902 343.344,129.790 343.348,128.402 344.737 M160.159 344.735 C 159.522 345.359,157.920 347.112,156.600 348.630 C 155.280 350.149,153.705 351.870,153.100 352.456 C 152.495 353.042,152.000 353.679,152.000 353.871 C 152.000 354.064,151.505 354.699,150.900 355.283 C 150.295 355.867,149.319 356.942,148.731 357.672 C 148.143 358.402,146.028 360.918,144.031 363.261 C 142.034 365.605,140.400 367.698,140.400 367.912 C 140.400 368.127,140.111 368.542,139.758 368.835 C 138.771 369.654,138.465 370.815,138.007 375.487 C 137.775 377.859,137.301 381.660,136.953 383.933 C 136.154 389.163,135.929 412.494,136.663 414.031 C 136.917 414.564,137.427 416.890,137.795 419.200 C 139.022 426.888,139.510 426.610,139.970 417.959 C 140.198 413.676,140.505 411.313,140.978 410.200 C 141.352 409.320,141.918 407.010,142.236 405.066 C 142.554 403.123,143.074 401.030,143.391 400.417 C 143.709 399.803,144.164 398.063,144.403 396.550 C 144.642 395.038,145.279 392.689,145.818 391.332 C 146.358 389.974,146.800 388.564,146.800 388.199 C 146.800 387.531,148.758 382.677,149.789 380.787 C 150.093 380.230,150.624 378.557,150.969 377.069 C 151.315 375.581,151.931 373.697,152.338 372.882 C 155.182 367.201,155.955 365.974,157.900 364.064 C 159.096 362.889,160.666 361.681,161.389 361.379 C 165.041 359.853,166.002 353.497,163.562 347.000 C 162.123 343.168,161.907 343.024,160.159 344.735 M188.400 351.800 C 187.655 352.350,186.878 352.800,186.675 352.800 C 186.472 352.800,185.723 353.295,185.012 353.900 C 183.710 355.007,182.161 356.003,179.720 357.303 C 178.994 357.690,178.400 358.163,178.400 358.355 C 178.400 358.546,177.854 358.929,177.187 359.205 C 176.520 359.482,175.326 360.223,174.532 360.854 C 173.739 361.484,172.873 362.000,172.607 362.000 C 172.341 362.000,171.807 362.350,171.421 362.777 C 171.034 363.205,170.212 363.666,169.596 363.801 C 168.979 363.936,167.864 364.639,167.119 365.363 C 166.374 366.086,165.592 366.751,165.380 366.839 C 164.621 367.156,160.920 371.825,160.416 373.100 C 160.134 373.815,159.764 374.400,159.595 374.400 C 159.425 374.400,159.164 374.895,159.014 375.500 C 158.863 376.105,158.214 377.919,157.570 379.530 C 156.927 381.142,156.398 382.852,156.396 383.330 C 156.394 383.809,155.936 385.181,155.377 386.380 C 154.819 387.579,154.254 389.379,154.121 390.380 C 153.988 391.381,153.480 393.100,152.992 394.200 C 152.503 395.300,151.993 396.939,151.857 397.842 C 151.721 398.744,151.176 400.454,150.646 401.642 C 150.087 402.894,149.570 405.022,149.416 406.711 C 149.269 408.312,148.801 410.635,148.375 411.874 C 147.561 414.240,147.267 420.400,147.969 420.400 C 148.172 420.400,148.560 419.726,148.832 418.902 C 149.104 418.078,149.748 416.611,150.263 415.642 C 150.779 414.674,151.200 413.613,151.200 413.285 C 151.200 412.654,153.675 407.557,155.611 404.200 C 156.245 403.100,157.044 401.570,157.385 400.800 C 157.727 400.030,158.272 398.950,158.596 398.400 C 158.920 397.850,159.478 396.770,159.835 396.000 C 160.192 395.230,161.456 393.578,162.642 392.330 C 163.829 391.081,164.800 389.778,164.800 389.433 C 164.800 388.871,166.739 385.954,168.146 384.400 C 168.445 384.070,168.898 383.399,169.154 382.909 C 169.410 382.419,170.019 381.592,170.509 381.072 C 170.999 380.552,172.210 378.973,173.200 377.563 C 175.557 374.206,180.670 369.075,182.418 368.312 C 185.096 367.143,187.023 366.439,189.200 365.835 C 193.445 364.658,195.487 360.274,193.358 356.910 C 193.049 356.421,192.536 355.024,192.218 353.806 C 191.311 350.324,190.780 350.044,188.400 351.800 M95.576 354.663 C 95.367 355.214,94.990 356.505,94.740 357.532 C 94.490 358.560,94.140 359.687,93.962 360.037 C 93.785 360.387,93.352 363.966,93.001 367.990 C 92.650 372.014,92.125 376.563,91.834 378.100 C 91.469 380.030,91.423 381.344,91.684 382.347 C 91.892 383.146,92.377 385.357,92.761 387.259 C 93.146 389.162,93.758 391.015,94.120 391.377 C 94.482 391.739,94.981 392.787,95.228 393.704 C 95.475 394.621,95.990 395.770,96.373 396.256 C 96.756 396.743,97.383 397.964,97.767 398.971 C 98.152 399.977,98.624 400.800,98.817 400.800 C 99.010 400.800,99.386 401.565,99.652 402.500 C 99.918 403.435,100.443 404.560,100.819 405.000 C 101.194 405.440,101.726 406.520,102.000 407.400 C 102.274 408.280,102.816 409.360,103.203 409.800 C 103.591 410.240,104.041 411.050,104.204 411.600 C 104.368 412.150,105.018 413.310,105.650 414.179 C 106.283 415.047,106.800 415.961,106.800 416.209 C 106.800 416.457,107.250 417.083,107.800 417.600 C 108.350 418.117,108.800 418.754,108.800 419.016 C 108.800 419.278,109.141 419.925,109.557 420.454 C 109.973 420.984,110.648 421.971,111.057 422.648 C 111.838 423.943,112.459 424.906,114.658 428.229 C 115.396 429.345,116.000 430.451,116.000 430.686 C 116.000 430.922,116.269 431.218,116.598 431.344 C 116.927 431.470,117.486 432.299,117.841 433.187 C 118.200 434.082,118.758 434.800,119.096 434.800 C 120.030 434.800,119.490 431.861,118.296 430.441 C 117.756 429.799,117.198 428.547,117.056 427.657 C 116.913 426.768,116.452 425.447,116.029 424.720 C 115.607 423.994,115.136 422.500,114.982 421.400 C 114.828 420.300,114.292 418.500,113.792 417.400 C 113.292 416.300,112.762 414.542,112.616 413.493 C 112.469 412.444,111.990 410.774,111.550 409.781 C 111.111 408.788,110.575 406.877,110.358 405.534 C 110.142 404.192,109.692 402.565,109.358 401.919 C 109.024 401.273,108.494 399.402,108.180 397.762 C 107.866 396.121,107.341 394.259,107.013 393.625 C 105.026 389.782,105.230 377.848,107.352 373.813 C 108.236 372.132,108.645 360.537,107.910 358.000 C 107.471 356.486,105.351 355.313,102.479 354.995 C 101.093 354.842,99.058 354.479,97.958 354.189 C 95.981 353.667,95.952 353.673,95.576 354.663 M210.669 366.388 C 209.386 366.798,208.036 367.403,207.669 367.734 C 207.301 368.064,205.600 368.528,203.890 368.765 C 202.179 369.001,200.372 369.462,199.875 369.788 C 199.377 370.114,197.626 370.643,195.985 370.964 C 194.343 371.285,192.280 371.896,191.400 372.321 C 190.520 372.747,189.119 373.218,188.288 373.368 C 185.993 373.782,183.187 375.920,181.058 378.877 C 180.692 379.385,179.768 380.610,179.004 381.600 C 178.241 382.590,177.317 383.940,176.952 384.600 C 176.587 385.260,175.939 386.160,175.512 386.600 C 174.470 387.675,172.935 389.928,172.236 391.408 C 171.923 392.073,171.291 392.955,170.833 393.370 C 170.375 393.785,170.000 394.344,170.000 394.613 C 170.000 394.882,169.716 395.338,169.369 395.626 C 169.022 395.914,168.299 397.016,167.762 398.075 C 167.226 399.134,166.640 400.000,166.461 400.000 C 166.282 400.000,165.888 400.495,165.586 401.100 C 165.284 401.705,164.742 402.560,164.383 403.000 C 164.024 403.440,163.487 404.430,163.192 405.200 C 162.896 405.970,162.353 406.997,161.984 407.481 C 161.616 407.966,161.086 409.177,160.807 410.174 C 160.528 411.170,160.053 412.190,159.750 412.441 C 159.134 412.953,158.994 414.800,159.572 414.800 C 159.777 414.800,160.002 414.395,160.072 413.900 C 160.153 413.328,160.521 412.954,161.081 412.875 C 161.569 412.805,162.084 412.359,162.235 411.875 C 162.385 411.394,163.024 410.409,163.654 409.686 C 164.284 408.963,164.800 408.225,164.800 408.045 C 164.800 407.735,165.764 406.577,168.404 403.717 C 169.056 403.012,169.937 402.248,170.363 402.020 C 170.789 401.792,171.377 401.373,171.669 401.089 C 171.961 400.806,172.830 400.142,173.600 399.615 C 174.370 399.087,175.270 398.418,175.600 398.127 C 175.930 397.836,177.010 396.956,178.000 396.172 C 178.990 395.388,180.700 393.959,181.800 392.997 C 183.796 391.251,186.741 388.957,187.957 388.200 C 188.311 387.980,189.080 387.350,189.666 386.800 C 190.252 386.250,191.395 385.260,192.206 384.600 C 193.016 383.940,193.988 383.130,194.366 382.800 C 197.963 379.654,201.762 378.013,205.495 377.991 C 214.644 377.939,217.286 375.887,215.569 370.167 C 214.053 365.115,214.228 365.251,210.669 366.388 M206.600 384.853 C 203.591 385.230,200.296 386.431,198.995 387.623 C 198.552 388.030,197.517 388.643,196.695 388.986 C 195.873 389.330,195.200 389.792,195.200 390.014 C 195.200 390.236,194.705 390.631,194.100 390.893 C 193.495 391.154,192.412 391.868,191.693 392.478 C 190.974 393.089,189.945 393.699,189.407 393.834 C 188.869 393.969,188.320 394.422,188.187 394.840 C 188.055 395.258,187.786 395.600,187.589 395.600 C 187.124 395.600,179.438 402.996,173.144 409.500 L 172.273 410.400 173.888 410.400 C 174.895 410.400,175.706 410.154,176.045 409.745 C 176.344 409.385,177.311 408.749,178.194 408.331 C 179.077 407.914,180.880 406.950,182.200 406.189 C 183.520 405.429,185.154 404.545,185.832 404.226 C 186.509 403.907,187.289 403.375,187.564 403.044 C 187.839 402.712,188.724 402.223,189.530 401.957 C 190.336 401.691,191.789 401.052,192.758 400.537 C 193.726 400.021,194.807 399.594,195.160 399.587 C 195.512 399.581,196.875 399.041,198.190 398.387 C 199.504 397.734,200.923 397.200,201.343 397.200 C 201.762 397.200,202.692 396.838,203.409 396.395 C 204.126 395.952,205.767 395.405,207.056 395.181 C 208.345 394.956,210.120 394.373,211.000 393.886 C 212.791 392.894,217.839 392.721,225.812 393.377 L 229.823 393.707 230.312 392.634 C 230.580 392.045,230.804 390.986,230.810 390.281 C 230.815 389.577,231.005 388.195,231.232 387.211 C 231.882 384.388,231.897 384.392,219.824 384.451 C 214.091 384.478,208.140 384.659,206.600 384.853 M73.000 386.652 C 63.024 387.277,62.717 387.821,64.781 401.200 C 65.257 404.290,65.878 412.503,66.202 420.000 C 66.330 422.970,66.688 427.020,66.997 429.000 C 67.306 430.980,67.756 436.200,67.997 440.600 C 68.452 448.913,68.912 454.481,69.570 459.600 C 69.781 461.250,70.156 466.560,70.403 471.400 C 70.649 476.240,71.111 481.997,71.429 484.192 C 71.746 486.388,72.182 491.518,72.398 495.592 C 72.957 506.183,73.177 508.916,73.819 513.210 C 74.132 515.306,74.576 520.886,74.806 525.610 C 75.036 530.335,75.329 534.785,75.458 535.500 L 75.691 536.800 78.148 536.800 C 79.500 536.800,81.234 536.620,82.003 536.399 C 82.771 536.178,84.930 535.812,86.800 535.584 C 91.391 535.026,91.493 534.981,92.457 533.071 C 93.436 531.132,93.644 530.871,96.341 528.200 C 99.378 525.192,100.263 524.638,104.400 523.159 L 108.200 521.800 143.400 521.777 C 178.060 521.755,180.265 521.684,182.545 520.518 C 183.175 520.196,184.615 519.687,185.745 519.387 C 186.875 519.087,188.513 518.472,189.385 518.020 C 190.256 517.569,191.354 517.200,191.825 517.200 C 192.296 517.200,193.509 516.760,194.520 516.222 C 195.532 515.684,197.044 515.118,197.880 514.965 C 198.716 514.812,200.210 514.277,201.200 513.777 C 202.190 513.276,203.760 512.747,204.688 512.600 C 205.617 512.454,206.818 511.987,207.357 511.562 C 207.896 511.138,209.275 510.613,210.421 510.396 C 211.566 510.179,213.066 509.660,213.752 509.244 C 214.438 508.828,215.983 508.281,217.184 508.030 C 218.385 507.778,219.672 507.297,220.044 506.960 C 220.416 506.623,221.857 506.082,223.246 505.758 C 224.635 505.435,226.050 504.917,226.392 504.607 C 226.733 504.298,227.910 503.850,229.006 503.612 C 234.356 502.450,232.467 501.881,222.200 501.560 C 216.900 501.395,211.955 500.999,208.800 500.488 C 206.050 500.042,202.000 499.481,199.800 499.241 C 197.600 499.001,195.008 498.525,194.040 498.184 C 193.072 497.842,190.838 497.382,189.075 497.161 C 187.313 496.940,185.534 496.579,185.124 496.359 C 184.713 496.139,182.724 495.599,180.703 495.158 C 178.682 494.717,176.830 494.191,176.587 493.989 C 176.344 493.788,174.718 493.276,172.973 492.853 C 171.228 492.430,169.260 491.796,168.600 491.444 C 167.940 491.093,167.125 490.804,166.790 490.802 C 166.454 490.801,165.104 490.266,163.790 489.613 C 162.475 488.959,161.040 488.412,160.600 488.397 C 160.160 488.381,158.810 487.835,157.600 487.184 C 156.390 486.533,155.119 486.000,154.775 486.000 C 154.432 486.000,153.753 485.629,153.266 485.176 C 152.780 484.723,151.801 484.154,151.091 483.911 C 150.381 483.668,149.173 483.049,148.407 482.535 C 147.641 482.021,146.800 481.600,146.538 481.600 C 146.276 481.600,145.553 481.188,144.931 480.684 C 144.309 480.181,143.279 479.543,142.641 479.266 C 141.484 478.764,140.357 477.975,137.832 475.900 C 137.097 475.295,136.303 474.800,136.070 474.800 C 135.836 474.800,135.410 474.482,135.123 474.093 C 134.835 473.704,134.150 473.096,133.600 472.742 C 133.050 472.387,132.119 471.670,131.531 471.149 C 130.943 470.627,129.802 469.660,128.996 469.000 C 128.190 468.340,124.711 464.971,121.265 461.514 C 115.741 455.971,113.570 453.571,110.908 450.068 C 110.519 449.555,109.614 448.385,108.897 447.468 C 107.058 445.114,107.358 445.549,103.482 439.600 C 103.123 439.050,102.018 437.430,101.026 436.000 C 100.034 434.570,99.217 433.113,99.211 432.762 C 99.205 432.411,98.847 431.804,98.415 431.414 C 97.983 431.023,97.417 430.050,97.157 429.252 C 96.897 428.453,96.275 427.309,95.776 426.710 C 95.276 426.110,94.752 425.094,94.611 424.451 C 94.470 423.809,94.004 422.966,93.576 422.578 C 93.147 422.190,92.601 421.137,92.361 420.236 C 92.122 419.336,91.660 418.302,91.335 417.938 C 91.010 417.574,90.494 416.443,90.187 415.424 C 89.881 414.406,89.366 413.309,89.043 412.986 C 88.721 412.664,88.173 411.424,87.827 410.233 C 87.480 409.041,87.003 408.001,86.765 407.922 C 86.528 407.843,86.071 406.640,85.750 405.250 C 85.429 403.859,84.830 402.244,84.420 401.661 C 84.010 401.077,83.554 399.896,83.407 399.034 C 83.260 398.173,82.718 396.643,82.203 395.634 C 81.688 394.626,81.151 393.080,81.010 392.200 C 80.227 387.327,78.734 386.292,73.000 386.652 M212.482 399.829 C 210.217 400.347,207.925 401.116,207.388 401.538 C 206.850 401.961,205.437 402.428,204.246 402.577 C 202.894 402.746,201.822 403.133,201.392 403.609 C 201.013 404.027,200.050 404.579,199.252 404.834 C 198.453 405.090,197.440 405.619,197.000 406.011 C 196.560 406.403,195.435 406.950,194.500 407.225 C 193.565 407.501,192.800 407.880,192.800 408.068 C 192.800 408.256,191.855 408.867,190.700 409.425 C 187.881 410.788,185.898 411.872,185.342 412.356 C 185.089 412.575,184.279 413.079,183.542 413.477 C 182.804 413.875,181.750 414.526,181.200 414.923 C 180.650 415.320,179.023 416.402,177.584 417.328 C 176.145 418.255,174.705 419.233,174.384 419.503 C 172.278 421.275,170.286 422.802,170.062 422.816 C 169.248 422.867,166.481 425.963,166.314 427.008 C 166.209 427.664,166.199 427.975,166.291 427.700 C 166.383 427.425,166.869 427.200,167.370 427.200 C 168.721 427.200,170.906 426.378,171.681 425.578 C 172.055 425.191,173.045 424.655,173.881 424.387 C 174.716 424.118,175.670 423.667,176.000 423.383 C 176.330 423.100,177.770 422.567,179.200 422.200 C 180.630 421.833,182.097 421.266,182.461 420.940 C 182.824 420.614,184.224 420.090,185.571 419.776 C 186.919 419.461,188.455 418.920,188.985 418.573 C 189.515 418.226,191.265 417.765,192.874 417.548 C 194.483 417.332,196.520 416.784,197.400 416.330 C 198.760 415.630,200.109 415.459,206.400 415.190 C 210.690 415.007,214.304 414.663,215.000 414.373 C 215.803 414.037,219.841 413.785,227.200 413.610 C 233.250 413.466,238.470 413.221,238.800 413.066 C 240.304 412.356,242.111 408.253,241.738 406.392 C 241.496 405.182,241.268 405.051,238.619 404.602 C 237.749 404.454,236.380 403.998,235.577 403.588 C 234.773 403.178,233.145 402.720,231.958 402.570 C 230.771 402.420,228.900 401.890,227.800 401.392 C 226.700 400.894,224.312 400.265,222.493 399.993 C 220.674 399.722,219.088 399.342,218.969 399.150 C 218.643 398.622,217.024 398.792,212.482 399.829 M134.000 445.976 C 134.000 446.623,134.167 447.256,134.371 447.382 C 134.859 447.684,135.288 446.295,134.966 445.456 C 134.561 444.399,134.000 444.701,134.000 445.976 " stroke="none" fill="#00919e" fill-rule="evenodd"></path></g></svg>