<svg width="229.99" height="229.99" inkscape:version="1.0 (6e3e5246a0, 2020-05-07)" sodipodi:docname="altramuces.inline.svg" version="1.1" xmlns="http://www.w3.org/2000/svg" xmlns:inkscape="http://www.inkscape.org/namespaces/inkscape" xmlns:sodipodi="http://sodipodi.sourceforge.net/DTD/sodipodi-0.dtd">
 <sodipodi:namedview id="base" bordercolor="#666666" borderopacity="1.0" fit-margin-bottom="0" fit-margin-left="0" fit-margin-right="0" fit-margin-top="0" inkscape:current-layer="g3474" inkscape:cx="252.5607" inkscape:cy="138.77559" inkscape:document-rotation="0" inkscape:document-units="mm" inkscape:pageopacity="0.0" inkscape:pageshadow="2" inkscape:window-height="924" inkscape:window-maximized="1" inkscape:window-width="1280" inkscape:window-x="0" inkscape:window-y="28" inkscape:zoom="1.1331274" pagecolor="#ffffff" showgrid="false"/>
 <g transform="translate(-14.881 -732.07)" inkscape:groupmode="layer" inkscape:label="Capa 1">
  <g transform="matrix(5.5766 0 0 5.5766 -1130.2 -1078.7)">
   <g transform="matrix(.99786 0 0 .99932 .26489 1.2301)" stroke-linecap="round" stroke-linejoin="round">
    <ellipse transform="matrix(1.0403 0 0 1.0205 203.73 314.44)" cx="21.573" cy="29.288" rx="18.364" ry="18.72" fill="#fadd3d" stroke="#fadd3d" stroke-width="3"/>
    <g stroke-width=".05">
     <g transform="translate(-330.75 315.24)">
      <path d="m558 19.973 0.56976-1.2676 0.63521-1.136 0.89636-1.0186 0.6519-0.6519 1.1408-0.81488 0.97785-0.44818c0.40749-0.06812 0.85907-0.21896 1.2516-0.22712l0.77392-0.0234 1.1814 0.15756 1.2982 0.44254 0.81445 0.4601c0.5592 0.34876 0.91947 0.65774 1.3333 0.97742l1.0125 1.1114 0.62264 0.94881c0.36761 0.74697 0.66917 1.4939 0.89637 2.2409l0.18682 1.3272-0.0986 1.3972-0.51276 1.6003-0.75072 1.3619-1.112 1.2514-1.3383 0.91456c-0.57574 0.3538-1.1344 0.51642-1.9325 0.7386-0.72482 0.10586-1.4865 0.07279-2.2409 0.10468l-1.6705-0.27914c-0.62997-0.17724-1.2156-0.40619-1.752-0.69264-0.64912-0.36855-1.2021-0.8012-1.7112-1.2631-0.35001-0.33771-0.56003-0.69541-0.80838-1.0476-0.3153-0.51495-0.46515-1.109-0.69307-1.6822-0.13298-0.62474-0.19209-1.2495-0.16905-1.8742l0.19245-1.2862c0.0891-0.40422 0.20306-0.83941 0.35455-1.3216z" fill="#fff" stroke="#fff" inkscape:connector-curvature="0" sodipodi:nodetypes="cccccccccccccccccccccccccccccccc"/>
      <g fill="#fadd3d" stroke="#fadd3d">
       <path d="m559.14 22.401c0.10704 0.40949 0.1699 0.86316 0.35125 1.1983l0.57042 0.93711 0.73339 0.73339 0.85562 0.61116 0.85562 0.40744 1.1001 0.32595 0.73339 0.08149 1.1408 0.16298 1.381-0.18959 1.0229-0.34008 0.89636-0.61116 0.97785-0.93711 0.48893-0.89636 0.40744-0.85562-0.10121 0.81488-0.14327 0.6519-0.2852 0.73339-0.52967 0.81488c-0.29086 0.38254-0.60508 0.71838-0.93711 1.0186l-0.57041 0.40744-1.1001 0.57041-0.73897 0.1771-0.80929 0.1081-1.1408 0.07722-1.3853-0.32168-1.1366-0.33712-1.0945-0.67588c-0.27009-0.24139-0.51404-0.5386-0.82473-0.86121-0.32515-0.38028-0.48035-0.76055-0.69265-1.1408-0.12668-0.39163-0.15494-0.83247-0.20371-1.2631v-0.61116z" inkscape:connector-curvature="0" sodipodi:nodetypes="ccccccccccccccccccccccccccccccccc"/>
       <path d="m566.46 15.654 0.73339-0.16298 0.12223-0.04074c0.047-0.0345 0.035-0.12797 0-0.24446l-0.57041-0.20372-1.2223-0.12223h-0.69265l-0.57041 0.12223-0.12223 0.16298c0.17984 0.21329 0.40601 0.2297 0.57041 0.34566l0.79944 0.11238z" inkscape:connector-curvature="0" sodipodi:nodetypes="cccccccccccc"/>
      </g>
     </g>
     <g transform="rotate(-9.5051 2326.5 2268.5)">
      <path d="m558 19.973 0.56976-1.2676 0.63521-1.136 0.89636-1.0186 0.6519-0.6519 1.1408-0.81488 0.97785-0.44818c0.40749-0.06812 0.85907-0.21896 1.2516-0.22712l0.77392-0.0234 1.1814 0.15756 1.2982 0.44254 0.81445 0.4601c0.5592 0.34876 0.91947 0.65774 1.3333 0.97742l1.0125 1.1114 0.62264 0.94881c0.36761 0.74697 0.66917 1.4939 0.89637 2.2409l0.18682 1.3272-0.0986 1.3972-0.51276 1.6003-0.75072 1.3619-1.112 1.2514-1.3383 0.91456c-0.57574 0.3538-1.1344 0.51642-1.9325 0.7386-0.72482 0.10586-1.4865 0.07279-2.2409 0.10468l-1.6705-0.27914c-0.62997-0.17724-1.2156-0.40619-1.752-0.69264-0.64912-0.36855-1.2021-0.8012-1.7112-1.2631-0.35001-0.33771-0.56003-0.69541-0.80838-1.0476-0.3153-0.51495-0.46515-1.109-0.69307-1.6822-0.13298-0.62474-0.19209-1.2495-0.16905-1.8742l0.19245-1.2862c0.0891-0.40422 0.20306-0.83941 0.35455-1.3216z" fill="#fff" stroke="#fff" inkscape:connector-curvature="0" sodipodi:nodetypes="cccccccccccccccccccccccccccccccc"/>
      <g fill="#fadd3d" stroke="#fadd3d">
       <path d="m559.14 22.401c0.10704 0.40949 0.1699 0.86316 0.35125 1.1983l0.57042 0.93711 0.73339 0.73339 0.85562 0.61116 0.85562 0.40744 1.1001 0.32595 0.73339 0.08149 1.1408 0.16298 1.381-0.18959 1.0229-0.34008 0.89636-0.61116 0.97785-0.93711 0.48893-0.89636 0.40744-0.85562-0.10121 0.81488-0.14327 0.6519-0.2852 0.73339-0.52967 0.81488c-0.29086 0.38254-0.60508 0.71838-0.93711 1.0186l-0.57041 0.40744-1.1001 0.57041-0.73897 0.1771-0.80929 0.1081-1.1408 0.07722-1.3853-0.32168-1.1366-0.33712-1.0945-0.67588c-0.27009-0.24139-0.51404-0.5386-0.82473-0.86121-0.32515-0.38028-0.48035-0.76055-0.69265-1.1408-0.12668-0.39163-0.15494-0.83247-0.20371-1.2631v-0.61116z" inkscape:connector-curvature="0" sodipodi:nodetypes="ccccccccccccccccccccccccccccccccc"/>
       <path d="m566.46 15.654 0.73339-0.16298 0.12223-0.04074c0.047-0.0345 0.035-0.12797 0-0.24446l-0.57041-0.20372-1.2223-0.12223h-0.69265l-0.57041 0.12223-0.12223 0.16298c0.17984 0.21329 0.40601 0.2297 0.57041 0.34566l0.79944 0.11238z" inkscape:connector-curvature="0" sodipodi:nodetypes="cccccccccccc"/>
      </g>
     </g>
     <path d="m237.47 349.23 0.44822 0.79733 0.26251 1.3437-0.10801 1.2011-0.5877 1.4808-0.41012 0.7468-0.32302 0.55335c-0.18377 0.37003-0.28553 0.39489-0.50908 0.71761l-0.59783 0.64062-0.72005 0.62635-0.58061 0.46609-0.64968 0.40248c-0.61041 0.24846-0.49525 0.29643-0.99684 0.44416l-0.90472 0.23119-1.1838 0.13605c-0.82063-0.14023-1.0258-0.15845-1.7641-0.41242l-1.31-0.84005-0.72293-0.6735-0.84516-1.1155-0.48744-1.0431-0.42427-1.3838-0.0124-1.5106c0.051-0.67383 0.0772-1.1559 0.36562-1.9327 0.33927-0.6492 0.56819-1.2468 0.98474-1.8766l1.1649-1.434c0.51298-0.40636 1.0418-0.58352 1.5884-0.85001 0.67917-0.3097 1.1909-0.21868 1.8636-0.36029 0.4788-0.0855 0.9732 0.0764 1.4041 0.0817 0.60202 0.0466 1.2933 0.55876 1.8913 0.71026 0.58404 0.25861 0.71728 0.45479 1.2098 0.83984l0.8883 0.66563c0.27518 0.3092 0.76463 0.94195 1.0664 1.3474z" fill="#fff" stroke="#fff" inkscape:connector-curvature="0" sodipodi:nodetypes="cccccccccccccccccccccccccccccccc"/>
     <g transform="translate(-330.75 315.24)" fill="#fadd3d" stroke="#fadd3d">
      <path d="m561.48 31.978-0.31137 0.23394-0.31607 0.27623-0.34694 0.32705-0.29452 0.27201-0.36776 0.35384-0.31971 0.399-0.33302 0.40834-0.68812 1.0668-0.48791 1.1898-0.24182 1.2812-8e-3 1.0954c0.0255 0.42353 0.14183 0.87303 0.26759 1.3252l0.37387 0.95442 0.45416 0.8263-0.63895-0.58165-0.44405-0.49832-0.45959-0.66107-0.42593-0.9178c-0.13932-0.45992-0.29348-0.913-0.34196-1.358l-0.0211-0.68843 0.12032-1.2507 0.2397-0.95325 0.37444-0.7691 0.60641-1.007c0.23797-0.36488 0.55485-0.6982 0.96002-0.99621 0.22558-0.32361 0.68783-0.45788 1.0649-0.66027 0.28979-0.15048 0.68233-0.23932 1.1391-0.2896 0.35392-0.07723-0.0398 0.0123 0.40372-0.0502 0.4987-0.0404 0.44628-0.05599 0.87881-5e-3 0.43472 0.12449-0.3029 0.09721-0.38735 0.33736l-0.24484 0.20789z" inkscape:connector-curvature="0" sodipodi:nodetypes="ccccccccccccccccccccccccccccccccc"/>
      <path d="m565.53 40.926-0.29803 0.68964-0.0387 0.1229c3.9e-4 0.0583 0.0831 0.10339 0.19803 0.14335 0.17904 0.01609 0.35808-0.14803 0.53711-0.25481 0.70182-0.83815 0.50272-0.43362 0.87846-1.0313l0.30583-0.53599 0.23547-0.53373-0.0603-0.19458c-0.27823-0.13087-0.42414 0.16129-0.61448 0.25936l-0.5598 0.58168z" inkscape:connector-curvature="0" sodipodi:nodetypes="cccccccccccc"/>
     </g>
    </g>
   </g>
  </g>
 </g>
</svg>
