<?xml version="1.0" encoding="UTF-8"?>
<svg width="230.13" height="229.89" version="1.1" xmlns="http://www.w3.org/2000/svg">
 <g transform="translate(-46.545 -749.08)">
  <g transform="matrix(4.103 0 0 4.103 -784.27 -540.33)">
   <g transform="matrix(1.3571 0 0 1.3576 -72.235 -112.45)">
    <ellipse transform="matrix(1.0403 0 0 1.0205 200.66 305.05)" cx="21.573" cy="29.288" rx="18.364" ry="18.72" fill="#82104e" stroke="#82104e" stroke-linecap="round" stroke-linejoin="round" stroke-width="3"/>
    <g transform="translate(-290.44 304.96)">
     <g fill="#ffffff" font-family="sans-serif" letter-spacing="0px" word-spacing="0px">
      <text x="504.79108" y="23.955332" style="line-height:0%" xml:space="preserve"><tspan x="504.79108" y="23.955332" fill="#ffffff" font-family="sans-serif" font-size="10px" font-weight="bold" style="line-height:1.25">E</tspan></text>
      <text x="510.72043" y="24.006355" style="line-height:0%" xml:space="preserve"><tspan x="510.72043" y="24.006355" fill="#ffffff" font-family="sans-serif" font-size="10px" font-weight="bold" style="line-height:1.25">-</tspan></text>
      <text x="513.88678" y="23.955332" style="line-height:0%" xml:space="preserve"><tspan x="513.88678" y="23.955332" fill="#ffffff" font-family="sans-serif" font-size="10px" font-weight="bold" style="line-height:1.25">X</tspan></text>
     </g>
     <g stroke-width=".05">
      <path d="m519.66 43.213-0.019-1.2603 6.0301-3.5827-0.0761-7.4371-5.992-3.3926-0.0162-1.3771-0.9181-0.0027v1.35l-5.1772 3.0178-5.2722-3.0531 0.0217-1.2902-0.87734-0.0163v1.2902l-5.9839 3.4306-0.0516 7.5756 6.0301 3.4904-3e-3 1.2305 0.90995 0.03259-8e-3 -1.2739 5.1554-3.0368 5.2532 2.9933-0.038 1.3364z" fill="#fff" stroke="#fff" stroke-linecap="round" stroke-linejoin="round"/>
      <g>
       <path d="m507.85 29.121 4.8031 2.7787 0.0132 5.5551-4.8737 2.911-4.8781-2.814 0.022-5.7117z" fill="#82104e" stroke="#82104e"/>
       <path d="m503.85 32.183 0.47639 0.80235 3.7109-2.1563-0.44704-0.79196z" fill="#fff" stroke="#fff"/>
       <path d="m519.27 28.821 4.8031 2.7787 0.0132 5.5551-4.8737 2.911-4.8781-2.814 0.022-5.7117z" fill="#82104e" stroke="#82104e"/>
      </g>
     </g>
     <g fill="#fff">
      <g stroke="#fff" stroke-width=".05">
       <path d="m515.2 32.174 0.47639 0.80235 3.7109-2.1563-0.44704-0.79196z"/>
       <path d="m522.4 32.566 0.88659 0.01773-0.0177 4.4862-3.9187 2.3229-0.4433-0.81566 3.4754-1.9682z"/>
       <path d="m511 32.557 0.97525 0.01773-0.0177 4.4862-3.9187 2.3229-0.51423-0.76247 3.4754-1.986z"/>
      </g>
      <g stroke="#82104e" stroke-linecap="round" stroke-linejoin="round" stroke-width=".7786">
       <ellipse transform="matrix(1.0149 0 0 1.0402 -5.2063 1.7465)" cx="500.03" cy="28.693" rx="1.3573" ry="1.3241"/>
       <ellipse transform="matrix(1.0149 0 0 1.0402 -5.2697 7.9798)" cx="500.03" cy="28.693" rx="1.3573" ry="1.3241"/>
       <ellipse transform="matrix(1.0149 0 0 1.0402 5.9985 8.2838)" cx="500.03" cy="28.693" rx="1.3573" ry="1.3241"/>
       <ellipse transform="matrix(1.0149 0 0 1.0402 17.348 8.1522)" cx="500.03" cy="28.693" rx="1.3573" ry="1.3241"/>
      </g>
     </g>
    </g>
   </g>
  </g>
 </g>
</svg>
